<?xml version="1.0" encoding="UTF-8" standalone="no"?>
<!DOCTYPE svg PUBLIC "-//W3C//DTD SVG 1.1//EN"
 "http://www.w3.org/Graphics/SVG/1.1/DTD/svg11.dtd">
<!-- Generated by graphviz version 2.44.0 (20200518.1210)
 -->
<!-- Pages: 1 -->
<svg width="1847pt" height="44pt"
 viewBox="0.00 0.00 1846.86 44.00" xmlns="http://www.w3.org/2000/svg" xmlns:xlink="http://www.w3.org/1999/xlink">
<g id="graph0" class="graph" transform="scale(1 1) rotate(0) translate(4 40)">
<polygon fill="white" stroke="transparent" points="-4,4 -4,-40 1842.86,-40 1842.86,4 -4,4"/>
<!-- getFunctionAndParameters -->
<g id="node1" class="node">
<title>getFunctionAndParameters</title>
<path fill="lightyellow" stroke="red" d="M790.89,-36C790.89,-36 602,-36 602,-36 596,-36 590,-30 590,-24 590,-24 590,-12 590,-12 590,-6 596,0 602,0 602,0 790.89,0 790.89,0 796.89,0 802.89,-6 802.89,-12 802.89,-12 802.89,-24 802.89,-24 802.89,-30 796.89,-36 790.89,-36"/>
<text text-anchor="middle" x="696.44" y="-12.6" font-family="Times,serif" font-size="18.00">getFunctionAndParameters</text>
</g>
<!-- Init -->
<g id="node2" class="node">
<title>Init</title>
<path fill="aliceblue" stroke="blue" d="M934.91,-36C934.91,-36 886.91,-36 886.91,-36 880.91,-36 874.91,-30 874.91,-24 874.91,-24 874.91,-12 874.91,-12 874.91,-6 880.91,0 886.91,0 886.91,0 934.91,0 934.91,0 940.91,0 946.91,-6 946.91,-12 946.91,-12 946.91,-24 946.91,-24 946.91,-30 940.91,-36 934.91,-36"/>
<text text-anchor="middle" x="910.91" y="-12.6" font-family="Times,serif" font-size="18.00">Init</text>
</g>
<!-- Init&#45;&gt;getFunctionAndParameters -->
<g id="edge1" class="edge">
<title>Init&#45;&gt;getFunctionAndParameters</title>
<path fill="none" stroke="indigo" d="M874.53,-18C857.33,-18 835.72,-18 813.55,-18"/>
<polygon fill="indigo" stroke="indigo" points="813.33,-14.5 803.33,-18 813.33,-21.5 813.33,-14.5"/>
</g>
<!-- putState -->
<g id="node3" class="node">
<title>putState</title>
<path fill="lightyellow" stroke="red" d="M1081.9,-36C1081.9,-36 1030.92,-36 1030.92,-36 1024.92,-36 1018.92,-30 1018.92,-24 1018.92,-24 1018.92,-12 1018.92,-12 1018.92,-6 1024.92,0 1030.92,0 1030.92,0 1081.9,0 1081.9,0 1087.9,0 1093.9,-6 1093.9,-12 1093.9,-12 1093.9,-24 1093.9,-24 1093.9,-30 1087.9,-36 1081.9,-36"/>
<text text-anchor="middle" x="1056.41" y="-12.6" font-family="Times,serif" font-size="18.00">putState</text>
</g>
<!-- Init&#45;&gt;putState -->
<g id="edge2" class="edge">
<title>Init&#45;&gt;putState</title>
<path fill="none" stroke="indigo" d="M947.25,-18C965.82,-18 988.64,-18 1008.62,-18"/>
<polygon fill="indigo" stroke="indigo" points="1008.76,-21.5 1018.76,-18 1008.76,-14.5 1008.76,-21.5"/>
</g>
<!-- Invoke -->
<g id="node4" class="node">
<title>Invoke</title>
<path fill="aliceblue" stroke="blue" d="M60,-36C60,-36 12,-36 12,-36 6,-36 0,-30 0,-24 0,-24 0,-12 0,-12 0,-6 6,0 12,0 12,0 60,0 60,0 66,0 72,-6 72,-12 72,-12 72,-24 72,-24 72,-30 66,-36 60,-36"/>
<text text-anchor="middle" x="36" y="-12.6" font-family="Times,serif" font-size="18.00">Invoke</text>
</g>
<!-- Invoke&#45;&gt;getFunctionAndParameters -->
<g id="edge3" class="edge">
<title>Invoke&#45;&gt;getFunctionAndParameters</title>
<path fill="none" stroke="indigo" d="M72.45,-18C167.61,-18 426.75,-18 579.49,-18"/>
<polygon fill="indigo" stroke="indigo" points="579.85,-21.5 589.85,-18 579.85,-14.5 579.85,-21.5"/>
</g>
<!-- invoke -->
<g id="node5" class="node">
<title>invoke</title>
<path fill="aliceblue" stroke="blue" d="M1225.91,-36C1225.91,-36 1177.91,-36 1177.91,-36 1171.91,-36 1165.91,-30 1165.91,-24 1165.91,-24 1165.91,-12 1165.91,-12 1165.91,-6 1171.91,0 1177.91,0 1177.91,0 1225.91,0 1225.91,0 1231.91,0 1237.91,-6 1237.91,-12 1237.91,-12 1237.91,-24 1237.91,-24 1237.91,-30 1231.91,-36 1225.91,-36"/>
<text text-anchor="middle" x="1201.91" y="-12.6" font-family="Times,serif" font-size="18.00">invoke</text>
</g>
<!-- invoke&#45;&gt;putState -->
<g id="edge4" class="edge">
<title>invoke&#45;&gt;putState</title>
<path fill="none" stroke="indigo" d="M1165.57,-18C1147,-18 1124.18,-18 1104.21,-18"/>
<polygon fill="indigo" stroke="indigo" points="1104.06,-14.5 1094.06,-18 1104.06,-21.5 1104.06,-14.5"/>
</g>
<!-- getState -->
<g id="node6" class="node">
<title>getState</title>
<path fill="lightyellow" stroke="red" d="M1371.88,-36C1371.88,-36 1321.92,-36 1321.92,-36 1315.92,-36 1309.92,-30 1309.92,-24 1309.92,-24 1309.92,-12 1309.92,-12 1309.92,-6 1315.92,0 1321.92,0 1321.92,0 1371.88,0 1371.88,0 1377.88,0 1383.88,-6 1383.88,-12 1383.88,-12 1383.88,-24 1383.88,-24 1383.88,-30 1377.88,-36 1371.88,-36"/>
<text text-anchor="middle" x="1346.9" y="-12.6" font-family="Times,serif" font-size="18.00">getState</text>
</g>
<!-- invoke&#45;&gt;getState -->
<g id="edge5" class="edge">
<title>invoke&#45;&gt;getState</title>
<path fill="none" stroke="indigo" d="M1238.12,-18C1256.76,-18 1279.72,-18 1299.73,-18"/>
<polygon fill="indigo" stroke="indigo" points="1299.89,-21.5 1309.89,-18 1299.89,-14.5 1299.89,-21.5"/>
</g>
<!-- delete -->
<g id="node7" class="node">
<title>delete</title>
<path fill="aliceblue" stroke="blue" d="M1659.89,-36C1659.89,-36 1611.89,-36 1611.89,-36 1605.89,-36 1599.89,-30 1599.89,-24 1599.89,-24 1599.89,-12 1599.89,-12 1599.89,-6 1605.89,0 1611.89,0 1611.89,0 1659.89,0 1659.89,0 1665.89,0 1671.89,-6 1671.89,-12 1671.89,-12 1671.89,-24 1671.89,-24 1671.89,-30 1665.89,-36 1659.89,-36"/>
<text text-anchor="middle" x="1635.89" y="-12.6" font-family="Times,serif" font-size="18.00">delete</text>
</g>
<!-- query -->
<g id="node8" class="node">
<title>query</title>
<path fill="aliceblue" stroke="blue" d="M1515.89,-36C1515.89,-36 1467.89,-36 1467.89,-36 1461.89,-36 1455.89,-30 1455.89,-24 1455.89,-24 1455.89,-12 1455.89,-12 1455.89,-6 1461.89,0 1467.89,0 1467.89,0 1515.89,0 1515.89,0 1521.89,0 1527.89,-6 1527.89,-12 1527.89,-12 1527.89,-24 1527.89,-24 1527.89,-30 1521.89,-36 1515.89,-36"/>
<text text-anchor="middle" x="1491.89" y="-12.6" font-family="Times,serif" font-size="18.00">query</text>
</g>
<!-- delete&#45;&gt;query -->
<g id="edge6" class="edge">
<title>delete&#45;&gt;query</title>
<path fill="none" stroke="indigo" d="M1599.55,-18C1580.89,-18 1557.96,-18 1538.06,-18"/>
<polygon fill="indigo" stroke="indigo" points="1537.97,-14.5 1527.97,-18 1537.97,-21.5 1537.97,-14.5"/>
</g>
<!-- deleteState -->
<g id="node9" class="node">
<title>deleteState</title>
<path fill="lightyellow" stroke="red" d="M1826.84,-36C1826.84,-36 1755.91,-36 1755.91,-36 1749.91,-36 1743.91,-30 1743.91,-24 1743.91,-24 1743.91,-12 1743.91,-12 1743.91,-6 1749.91,0 1755.91,0 1755.91,0 1826.84,0 1826.84,0 1832.84,0 1838.84,-6 1838.84,-12 1838.84,-12 1838.84,-24 1838.84,-24 1838.84,-30 1832.84,-36 1826.84,-36"/>
<text text-anchor="middle" x="1791.37" y="-12.6" font-family="Times,serif" font-size="18.00">deleteState</text>
</g>
<!-- delete&#45;&gt;deleteState -->
<g id="edge7" class="edge">
<title>delete&#45;&gt;deleteState</title>
<path fill="none" stroke="indigo" d="M1671.95,-18C1690.22,-18 1712.84,-18 1733.47,-18"/>
<polygon fill="indigo" stroke="indigo" points="1733.72,-21.5 1743.72,-18 1733.72,-14.5 1733.72,-21.5"/>
</g>
<!-- query&#45;&gt;getState -->
<g id="edge8" class="edge">
<title>query&#45;&gt;getState</title>
<path fill="none" stroke="indigo" d="M1455.68,-18C1437.04,-18 1414.08,-18 1394.07,-18"/>
<polygon fill="indigo" stroke="indigo" points="1393.91,-14.5 1383.91,-18 1393.91,-21.5 1393.91,-14.5"/>
</g>
</g>
</svg>
