<?xml version="1.0" encoding="UTF-8" standalone="no"?>
<!DOCTYPE svg PUBLIC "-//W3C//DTD SVG 1.1//EN"
 "http://www.w3.org/Graphics/SVG/1.1/DTD/svg11.dtd">
<!-- Generated by graphviz version 2.44.0 (20200518.1210)
 -->
<!-- Pages: 1 -->
<svg width="2821pt" height="2405pt"
 viewBox="0.00 0.00 2821.46 2405.49" xmlns="http://www.w3.org/2000/svg" xmlns:xlink="http://www.w3.org/1999/xlink">
<g id="graph0" class="graph" transform="scale(1 1) rotate(0) translate(4 2401.49)">
<polygon fill="white" stroke="transparent" points="-4,4 -4,-2401.49 2817.46,-2401.49 2817.46,4 -4,4"/>
<!-- CreateAsset -->
<g id="node1" class="node">
<title>CreateAsset</title>
<path fill="aliceblue" stroke="blue" d="M2319.68,-543.89C2319.68,-543.89 2240.77,-543.89 2240.77,-543.89 2234.77,-543.89 2228.77,-537.89 2228.77,-531.89 2228.77,-531.89 2228.77,-519.89 2228.77,-519.89 2228.77,-513.89 2234.77,-507.89 2240.77,-507.89 2240.77,-507.89 2319.68,-507.89 2319.68,-507.89 2325.68,-507.89 2331.68,-513.89 2331.68,-519.89 2331.68,-519.89 2331.68,-531.89 2331.68,-531.89 2331.68,-537.89 2325.68,-543.89 2319.68,-543.89"/>
<text text-anchor="middle" x="2280.23" y="-520.49" font-family="Times,serif" font-size="18.00">CreateAsset</text>
</g>
<!-- ReadAsset -->
<g id="node2" class="node">
<title>ReadAsset</title>
<path fill="aliceblue" stroke="blue" d="M2468.85,-846.43C2468.85,-846.43 2399.91,-846.43 2399.91,-846.43 2393.91,-846.43 2387.91,-840.43 2387.91,-834.43 2387.91,-834.43 2387.91,-822.43 2387.91,-822.43 2387.91,-816.43 2393.91,-810.43 2399.91,-810.43 2399.91,-810.43 2468.85,-810.43 2468.85,-810.43 2474.85,-810.43 2480.85,-816.43 2480.85,-822.43 2480.85,-822.43 2480.85,-834.43 2480.85,-834.43 2480.85,-840.43 2474.85,-846.43 2468.85,-846.43"/>
<text text-anchor="middle" x="2434.38" y="-823.03" font-family="Times,serif" font-size="18.00">ReadAsset</text>
</g>
<!-- CreateAsset&#45;&gt;ReadAsset -->
<g id="edge1" class="edge">
<title>CreateAsset&#45;&gt;ReadAsset</title>
<path fill="none" stroke="indigo" d="M2289.41,-543.91C2315.37,-594.86 2389.45,-740.24 2420.46,-801.1"/>
<polygon fill="indigo" stroke="indigo" points="2417.39,-802.8 2425.05,-810.12 2423.63,-799.62 2417.39,-802.8"/>
</g>
<!-- AssetExists -->
<g id="node3" class="node">
<title>AssetExists</title>
<path fill="aliceblue" stroke="blue" d="M802.29,-303.79C802.29,-303.79 726.32,-303.79 726.32,-303.79 720.32,-303.79 714.32,-297.79 714.32,-291.79 714.32,-291.79 714.32,-279.79 714.32,-279.79 714.32,-273.79 720.32,-267.79 726.32,-267.79 726.32,-267.79 802.29,-267.79 802.29,-267.79 808.29,-267.79 814.29,-273.79 814.29,-279.79 814.29,-279.79 814.29,-291.79 814.29,-291.79 814.29,-297.79 808.29,-303.79 802.29,-303.79"/>
<text text-anchor="middle" x="764.31" y="-280.39" font-family="Times,serif" font-size="18.00">AssetExists</text>
</g>
<!-- CreateAsset&#45;&gt;AssetExists -->
<g id="edge2" class="edge">
<title>CreateAsset&#45;&gt;AssetExists</title>
<path fill="none" stroke="indigo" d="M2228.48,-517.69C1998.66,-481.29 1070.86,-334.34 824.58,-295.33"/>
<polygon fill="indigo" stroke="indigo" points="824.81,-291.83 814.39,-293.72 823.72,-298.74 824.81,-291.83"/>
</g>
<!-- putState -->
<g id="node4" class="node">
<title>putState</title>
<path fill="lightyellow" stroke="red" d="M2065.62,-303.79C2065.62,-303.79 2014.64,-303.79 2014.64,-303.79 2008.64,-303.79 2002.64,-297.79 2002.64,-291.79 2002.64,-291.79 2002.64,-279.79 2002.64,-279.79 2002.64,-273.79 2008.64,-267.79 2014.64,-267.79 2014.64,-267.79 2065.62,-267.79 2065.62,-267.79 2071.62,-267.79 2077.62,-273.79 2077.62,-279.79 2077.62,-279.79 2077.62,-291.79 2077.62,-291.79 2077.62,-297.79 2071.62,-303.79 2065.62,-303.79"/>
<text text-anchor="middle" x="2040.13" y="-280.39" font-family="Times,serif" font-size="18.00">putState</text>
</g>
<!-- CreateAsset&#45;&gt;putState -->
<g id="edge3" class="edge">
<title>CreateAsset&#45;&gt;putState</title>
<path fill="none" stroke="indigo" d="M2262.18,-507.84C2219.94,-465.6 2114.56,-360.21 2065.72,-311.38"/>
<polygon fill="indigo" stroke="indigo" points="2067.93,-308.64 2058.38,-304.04 2062.98,-313.59 2067.93,-308.64"/>
</g>
<!-- createCompositeKey -->
<g id="node5" class="node">
<title>createCompositeKey</title>
<path fill="lightyellow" stroke="red" d="M1809.03,-149.64C1809.03,-149.64 1666.15,-149.64 1666.15,-149.64 1660.15,-149.64 1654.15,-143.64 1654.15,-137.64 1654.15,-137.64 1654.15,-125.64 1654.15,-125.64 1654.15,-119.64 1660.15,-113.64 1666.15,-113.64 1666.15,-113.64 1809.03,-113.64 1809.03,-113.64 1815.03,-113.64 1821.03,-119.64 1821.03,-125.64 1821.03,-125.64 1821.03,-137.64 1821.03,-137.64 1821.03,-143.64 1815.03,-149.64 1809.03,-149.64"/>
<text text-anchor="middle" x="1737.59" y="-126.24" font-family="Times,serif" font-size="18.00">createCompositeKey</text>
</g>
<!-- CreateAsset&#45;&gt;createCompositeKey -->
<g id="edge4" class="edge">
<title>CreateAsset&#45;&gt;createCompositeKey</title>
<path fill="none" stroke="indigo" d="M2255.14,-507.66C2166.84,-443.5 1870.31,-228.07 1770.61,-155.63"/>
<polygon fill="indigo" stroke="indigo" points="1772.55,-152.71 1762.41,-149.67 1768.44,-158.38 1772.55,-152.71"/>
</g>
<!-- getState -->
<g id="node6" class="node">
<title>getState</title>
<path fill="lightyellow" stroke="red" d="M549.19,-543.89C549.19,-543.89 499.23,-543.89 499.23,-543.89 493.23,-543.89 487.23,-537.89 487.23,-531.89 487.23,-531.89 487.23,-519.89 487.23,-519.89 487.23,-513.89 493.23,-507.89 499.23,-507.89 499.23,-507.89 549.19,-507.89 549.19,-507.89 555.19,-507.89 561.19,-513.89 561.19,-519.89 561.19,-519.89 561.19,-531.89 561.19,-531.89 561.19,-537.89 555.19,-543.89 549.19,-543.89"/>
<text text-anchor="middle" x="524.21" y="-520.49" font-family="Times,serif" font-size="18.00">getState</text>
</g>
<!-- ReadAsset&#45;&gt;getState -->
<g id="edge5" class="edge">
<title>ReadAsset&#45;&gt;getState</title>
<path fill="none" stroke="indigo" d="M2387.64,-821.02C2124.96,-779.42 835.01,-575.11 571.33,-533.35"/>
<polygon fill="indigo" stroke="indigo" points="571.75,-529.87 561.32,-531.76 570.65,-536.79 571.75,-529.87"/>
</g>
<!-- AssetExists&#45;&gt;getState -->
<g id="edge47" class="edge">
<title>AssetExists&#45;&gt;getState</title>
<path fill="none" stroke="indigo" d="M746.26,-303.83C704.02,-346.07 598.64,-451.46 549.8,-500.3"/>
<polygon fill="indigo" stroke="indigo" points="547.06,-498.08 542.46,-507.63 552.01,-503.03 547.06,-498.08"/>
</g>
<!-- DeleteAsset -->
<g id="node7" class="node">
<title>DeleteAsset</title>
<path fill="aliceblue" stroke="blue" d="M1106.3,-149.64C1106.3,-149.64 1027.39,-149.64 1027.39,-149.64 1021.39,-149.64 1015.39,-143.64 1015.39,-137.64 1015.39,-137.64 1015.39,-125.64 1015.39,-125.64 1015.39,-119.64 1021.39,-113.64 1027.39,-113.64 1027.39,-113.64 1106.3,-113.64 1106.3,-113.64 1112.3,-113.64 1118.3,-119.64 1118.3,-125.64 1118.3,-125.64 1118.3,-137.64 1118.3,-137.64 1118.3,-143.64 1112.3,-149.64 1106.3,-149.64"/>
<text text-anchor="middle" x="1066.85" y="-126.24" font-family="Times,serif" font-size="18.00">DeleteAsset</text>
</g>
<!-- DeleteAsset&#45;&gt;AssetExists -->
<g id="edge7" class="edge">
<title>DeleteAsset&#45;&gt;AssetExists</title>
<path fill="none" stroke="indigo" d="M1031.25,-149.77C975.84,-178.01 869.04,-232.42 808.68,-263.18"/>
<polygon fill="indigo" stroke="indigo" points="807.09,-260.06 799.77,-267.72 810.27,-266.3 807.09,-260.06"/>
</g>
<!-- DeleteAsset&#45;&gt;createCompositeKey -->
<g id="edge8" class="edge">
<title>DeleteAsset&#45;&gt;createCompositeKey</title>
<path fill="none" stroke="indigo" d="M1118.37,-131.64C1231.01,-131.64 1500.56,-131.64 1644.03,-131.64"/>
<polygon fill="indigo" stroke="indigo" points="1644.14,-135.14 1654.14,-131.64 1644.14,-128.14 1644.14,-135.14"/>
</g>
<!-- DeleteAsset&#45;&gt;getState -->
<g id="edge9" class="edge">
<title>DeleteAsset&#45;&gt;getState</title>
<path fill="none" stroke="indigo" d="M1041.76,-149.86C953.46,-214.02 656.94,-429.45 557.23,-501.89"/>
<polygon fill="indigo" stroke="indigo" points="555.06,-499.14 549.03,-507.85 559.17,-504.81 555.06,-499.14"/>
</g>
<!-- TransferAsset -->
<g id="node8" class="node">
<title>TransferAsset</title>
<path fill="aliceblue" stroke="blue" d="M416.5,-846.43C416.5,-846.43 323.62,-846.43 323.62,-846.43 317.62,-846.43 311.62,-840.43 311.62,-834.43 311.62,-834.43 311.62,-822.43 311.62,-822.43 311.62,-816.43 317.62,-810.43 323.62,-810.43 323.62,-810.43 416.5,-810.43 416.5,-810.43 422.5,-810.43 428.5,-816.43 428.5,-822.43 428.5,-822.43 428.5,-834.43 428.5,-834.43 428.5,-840.43 422.5,-846.43 416.5,-846.43"/>
<text text-anchor="middle" x="370.06" y="-823.03" font-family="Times,serif" font-size="18.00">TransferAsset</text>
</g>
<!-- DeleteAsset&#45;&gt;TransferAsset -->
<g id="edge6" class="edge">
<title>DeleteAsset&#45;&gt;TransferAsset</title>
<path fill="none" stroke="indigo" d="M1048.57,-149.91C952.54,-245.94 506.58,-691.9 395.28,-803.21"/>
<polygon fill="indigo" stroke="indigo" points="392.74,-800.79 388.14,-810.34 397.69,-805.74 392.74,-800.79"/>
</g>
<!-- deleteState -->
<g id="node9" class="node">
<title>deleteState</title>
<path fill="lightyellow" stroke="red" d="M1065.39,-36C1065.39,-36 994.46,-36 994.46,-36 988.46,-36 982.46,-30 982.46,-24 982.46,-24 982.46,-12 982.46,-12 982.46,-6 988.46,0 994.46,0 994.46,0 1065.39,0 1065.39,0 1071.39,0 1077.39,-6 1077.39,-12 1077.39,-12 1077.39,-24 1077.39,-24 1077.39,-30 1071.39,-36 1065.39,-36"/>
<text text-anchor="middle" x="1029.93" y="-12.6" font-family="Times,serif" font-size="18.00">deleteState</text>
</g>
<!-- DeleteAsset&#45;&gt;deleteState -->
<g id="edge10" class="edge">
<title>DeleteAsset&#45;&gt;deleteState</title>
<path fill="none" stroke="indigo" d="M1061,-113.63C1055.09,-95.45 1045.89,-67.12 1039.03,-46.01"/>
<polygon fill="indigo" stroke="indigo" points="1042.29,-44.73 1035.87,-36.3 1035.63,-46.89 1042.29,-44.73"/>
</g>
<!-- TransferAsset&#45;&gt;putState -->
<g id="edge12" class="edge">
<title>TransferAsset&#45;&gt;putState</title>
<path fill="none" stroke="indigo" d="M425.62,-810.37C682.57,-726.89 1753.18,-379.02 1992.53,-301.25"/>
<polygon fill="indigo" stroke="indigo" points="1993.89,-304.49 2002.32,-298.07 1991.73,-297.83 1993.89,-304.49"/>
</g>
<!-- TransferAsset&#45;&gt;getState -->
<g id="edge13" class="edge">
<title>TransferAsset&#45;&gt;getState</title>
<path fill="none" stroke="indigo" d="M379.24,-810.41C405.2,-759.45 479.27,-614.07 510.29,-553.21"/>
<polygon fill="indigo" stroke="indigo" points="513.46,-554.69 514.88,-544.19 507.22,-551.51 513.46,-554.69"/>
</g>
<!-- GetAssetsByRange -->
<g id="node10" class="node">
<title>GetAssetsByRange</title>
<path fill="aliceblue" stroke="blue" d="M436.02,-1517.17C436.02,-1517.17 304.09,-1517.17 304.09,-1517.17 298.09,-1517.17 292.09,-1511.17 292.09,-1505.17 292.09,-1505.17 292.09,-1493.17 292.09,-1493.17 292.09,-1487.17 298.09,-1481.17 304.09,-1481.17 304.09,-1481.17 436.02,-1481.17 436.02,-1481.17 442.02,-1481.17 448.02,-1487.17 448.02,-1493.17 448.02,-1493.17 448.02,-1505.17 448.02,-1505.17 448.02,-1511.17 442.02,-1517.17 436.02,-1517.17"/>
<text text-anchor="middle" x="370.06" y="-1493.77" font-family="Times,serif" font-size="18.00">GetAssetsByRange</text>
</g>
<!-- TransferAsset&#45;&gt;GetAssetsByRange -->
<g id="edge11" class="edge">
<title>TransferAsset&#45;&gt;GetAssetsByRange</title>
<path fill="none" stroke="indigo" d="M367.66,-846.72C362.04,-939.37 361.86,-1357.02 367.11,-1470.58"/>
<polygon fill="indigo" stroke="indigo" points="363.64,-1471.09 367.66,-1480.89 370.63,-1470.72 363.64,-1471.09"/>
</g>
<!-- GetAssetsByRange&#45;&gt;getState -->
<g id="edge17" class="edge">
<title>GetAssetsByRange&#45;&gt;getState</title>
<path fill="none" stroke="indigo" d="M372.93,-1481.02C391.71,-1362.46 496.85,-698.61 519.79,-553.79"/>
<polygon fill="indigo" stroke="indigo" points="523.25,-554.33 521.35,-543.91 516.33,-553.24 523.25,-554.33"/>
</g>
<!-- GetAssetsByRange&#45;&gt;TransferAsset -->
<g id="edge14" class="edge">
<title>GetAssetsByRange&#45;&gt;TransferAsset</title>
<path fill="none" stroke="indigo" d="M372.46,-1480.88C378.07,-1388.22 378.25,-970.58 373,-857.01"/>
<polygon fill="indigo" stroke="indigo" points="376.48,-856.5 372.46,-846.7 369.49,-856.87 376.48,-856.5"/>
</g>
<!-- TransferAssetByColor -->
<g id="node11" class="node">
<title>TransferAssetByColor</title>
<path fill="aliceblue" stroke="blue" d="M394.38,-1181.8C394.38,-1181.8 239.5,-1181.8 239.5,-1181.8 233.5,-1181.8 227.5,-1175.8 227.5,-1169.8 227.5,-1169.8 227.5,-1157.8 227.5,-1157.8 227.5,-1151.8 233.5,-1145.8 239.5,-1145.8 239.5,-1145.8 394.38,-1145.8 394.38,-1145.8 400.38,-1145.8 406.38,-1151.8 406.38,-1157.8 406.38,-1157.8 406.38,-1169.8 406.38,-1169.8 406.38,-1175.8 400.38,-1181.8 394.38,-1181.8"/>
<text text-anchor="middle" x="316.94" y="-1158.4" font-family="Times,serif" font-size="18.00">TransferAssetByColor</text>
</g>
<!-- GetAssetsByRange&#45;&gt;TransferAssetByColor -->
<g id="edge15" class="edge">
<title>GetAssetsByRange&#45;&gt;TransferAssetByColor</title>
<path fill="none" stroke="indigo" d="M367.2,-1481.14C358.46,-1425.97 332.05,-1259.19 321.43,-1192.15"/>
<polygon fill="indigo" stroke="indigo" points="324.83,-1191.25 319.81,-1181.92 317.92,-1192.34 324.83,-1191.25"/>
</g>
<!-- _GetAllResults -->
<g id="node12" class="node">
<title>_GetAllResults</title>
<path fill="aliceblue" stroke="blue" d="M815.79,-2059.81C815.79,-2059.81 712.82,-2059.81 712.82,-2059.81 706.82,-2059.81 700.82,-2053.81 700.82,-2047.81 700.82,-2047.81 700.82,-2035.81 700.82,-2035.81 700.82,-2029.81 706.82,-2023.81 712.82,-2023.81 712.82,-2023.81 815.79,-2023.81 815.79,-2023.81 821.79,-2023.81 827.79,-2029.81 827.79,-2035.81 827.79,-2035.81 827.79,-2047.81 827.79,-2047.81 827.79,-2053.81 821.79,-2059.81 815.79,-2059.81"/>
<text text-anchor="middle" x="764.31" y="-2036.41" font-family="Times,serif" font-size="18.00">_GetAllResults</text>
</g>
<!-- GetAssetsByRange&#45;&gt;_GetAllResults -->
<g id="edge16" class="edge">
<title>GetAssetsByRange&#45;&gt;_GetAllResults</title>
<path fill="none" stroke="indigo" d="M383.17,-1517.22C441.35,-1597.29 676.21,-1920.55 745.18,-2015.47"/>
<polygon fill="indigo" stroke="indigo" points="742.43,-2017.65 751.14,-2023.68 748.09,-2013.54 742.43,-2017.65"/>
</g>
<!-- getStateByRange -->
<g id="node13" class="node">
<title>getStateByRange</title>
<path fill="lightyellow" stroke="red" d="M2492.85,-1517.17C2492.85,-1517.17 2375.91,-1517.17 2375.91,-1517.17 2369.91,-1517.17 2363.91,-1511.17 2363.91,-1505.17 2363.91,-1505.17 2363.91,-1493.17 2363.91,-1493.17 2363.91,-1487.17 2369.91,-1481.17 2375.91,-1481.17 2375.91,-1481.17 2492.85,-1481.17 2492.85,-1481.17 2498.85,-1481.17 2504.85,-1487.17 2504.85,-1493.17 2504.85,-1493.17 2504.85,-1505.17 2504.85,-1505.17 2504.85,-1511.17 2498.85,-1517.17 2492.85,-1517.17"/>
<text text-anchor="middle" x="2434.38" y="-1493.77" font-family="Times,serif" font-size="18.00">getStateByRange</text>
</g>
<!-- GetAssetsByRange&#45;&gt;getStateByRange -->
<g id="edge18" class="edge">
<title>GetAssetsByRange&#45;&gt;getStateByRange</title>
<path fill="none" stroke="indigo" d="M448.15,-1499.17C773.77,-1499.17 2021.87,-1499.17 2353.22,-1499.17"/>
<polygon fill="indigo" stroke="indigo" points="2353.69,-1502.67 2363.69,-1499.17 2353.69,-1495.67 2353.69,-1502.67"/>
</g>
<!-- TransferAssetByColor&#45;&gt;getState -->
<g id="edge22" class="edge">
<title>TransferAssetByColor&#45;&gt;getState</title>
<path fill="none" stroke="indigo" d="M322.81,-1145.73C351.81,-1056.46 479.87,-662.34 515.17,-553.7"/>
<polygon fill="indigo" stroke="indigo" points="518.53,-554.69 518.29,-544.1 511.87,-552.53 518.53,-554.69"/>
</g>
<!-- TransferAssetByColor&#45;&gt;TransferAsset -->
<g id="edge19" class="edge">
<title>TransferAssetByColor&#45;&gt;TransferAsset</title>
<path fill="none" stroke="indigo" d="M319.79,-1145.77C328.53,-1090.61 354.95,-923.82 365.57,-856.78"/>
<polygon fill="indigo" stroke="indigo" points="369.08,-856.97 367.19,-846.55 362.17,-855.88 369.08,-856.97"/>
</g>
<!-- QueryAssetsByOwner -->
<g id="node14" class="node">
<title>QueryAssetsByOwner</title>
<path fill="aliceblue" stroke="blue" d="M2117.07,-2059.81C2117.07,-2059.81 1963.19,-2059.81 1963.19,-2059.81 1957.19,-2059.81 1951.19,-2053.81 1951.19,-2047.81 1951.19,-2047.81 1951.19,-2035.81 1951.19,-2035.81 1951.19,-2029.81 1957.19,-2023.81 1963.19,-2023.81 1963.19,-2023.81 2117.07,-2023.81 2117.07,-2023.81 2123.07,-2023.81 2129.07,-2029.81 2129.07,-2035.81 2129.07,-2035.81 2129.07,-2047.81 2129.07,-2047.81 2129.07,-2053.81 2123.07,-2059.81 2117.07,-2059.81"/>
<text text-anchor="middle" x="2040.13" y="-2036.41" font-family="Times,serif" font-size="18.00">QueryAssetsByOwner</text>
</g>
<!-- TransferAssetByColor&#45;&gt;QueryAssetsByOwner -->
<g id="edge20" class="edge">
<title>TransferAssetByColor&#45;&gt;QueryAssetsByOwner</title>
<path fill="none" stroke="indigo" d="M352.53,-1181.93C573.04,-1294.29 1751.23,-1894.61 1995.7,-2019.17"/>
<polygon fill="indigo" stroke="indigo" points="1994.16,-2022.31 2004.66,-2023.73 1997.34,-2016.07 1994.16,-2022.31"/>
</g>
<!-- QueryAssets -->
<g id="node15" class="node">
<title>QueryAssets</title>
<path fill="aliceblue" stroke="blue" d="M2322.19,-1819.71C2322.19,-1819.71 2238.26,-1819.71 2238.26,-1819.71 2232.26,-1819.71 2226.26,-1813.71 2226.26,-1807.71 2226.26,-1807.71 2226.26,-1795.71 2226.26,-1795.71 2226.26,-1789.71 2232.26,-1783.71 2238.26,-1783.71 2238.26,-1783.71 2322.19,-1783.71 2322.19,-1783.71 2328.19,-1783.71 2334.19,-1789.71 2334.19,-1795.71 2334.19,-1795.71 2334.19,-1807.71 2334.19,-1807.71 2334.19,-1813.71 2328.19,-1819.71 2322.19,-1819.71"/>
<text text-anchor="middle" x="2280.23" y="-1796.31" font-family="Times,serif" font-size="18.00">QueryAssets</text>
</g>
<!-- TransferAssetByColor&#45;&gt;QueryAssets -->
<g id="edge21" class="edge">
<title>TransferAssetByColor&#45;&gt;QueryAssets</title>
<path fill="none" stroke="indigo" d="M372.53,-1181.86C653.58,-1273.18 1916.35,-1683.48 2216.2,-1780.91"/>
<polygon fill="indigo" stroke="indigo" points="2215.45,-1784.34 2226.05,-1784.1 2217.62,-1777.68 2215.45,-1784.34"/>
</g>
<!-- getStateByPartialCompositeKey -->
<g id="node16" class="node">
<title>getStateByPartialCompositeKey</title>
<path fill="lightyellow" stroke="red" d="M237.94,-1295.14C237.94,-1295.14 12.02,-1295.14 12.02,-1295.14 6.02,-1295.14 0.02,-1289.14 0.02,-1283.14 0.02,-1283.14 0.02,-1271.14 0.02,-1271.14 0.02,-1265.14 6.02,-1259.14 12.02,-1259.14 12.02,-1259.14 237.94,-1259.14 237.94,-1259.14 243.94,-1259.14 249.94,-1265.14 249.94,-1271.14 249.94,-1271.14 249.94,-1283.14 249.94,-1283.14 249.94,-1289.14 243.94,-1295.14 237.94,-1295.14"/>
<text text-anchor="middle" x="124.98" y="-1271.74" font-family="Times,serif" font-size="18.00">getStateByPartialCompositeKey</text>
</g>
<!-- TransferAssetByColor&#45;&gt;getStateByPartialCompositeKey -->
<g id="edge23" class="edge">
<title>TransferAssetByColor&#45;&gt;getStateByPartialCompositeKey</title>
<path fill="none" stroke="indigo" d="M286.1,-1182.01C253.07,-1201.51 200.57,-1232.51 164.53,-1253.79"/>
<polygon fill="indigo" stroke="indigo" points="162.58,-1250.88 155.74,-1258.98 166.13,-1256.91 162.58,-1250.88"/>
</g>
<!-- splitCompositeKey -->
<g id="node17" class="node">
<title>splitCompositeKey</title>
<path fill="lightyellow" stroke="red" d="M195.54,-1021.24C195.54,-1021.24 64.56,-1021.24 64.56,-1021.24 58.56,-1021.24 52.56,-1015.24 52.56,-1009.24 52.56,-1009.24 52.56,-997.24 52.56,-997.24 52.56,-991.24 58.56,-985.24 64.56,-985.24 64.56,-985.24 195.54,-985.24 195.54,-985.24 201.54,-985.24 207.54,-991.24 207.54,-997.24 207.54,-997.24 207.54,-1009.24 207.54,-1009.24 207.54,-1015.24 201.54,-1021.24 195.54,-1021.24"/>
<text text-anchor="middle" x="130.05" y="-997.84" font-family="Times,serif" font-size="18.00">splitCompositeKey</text>
</g>
<!-- TransferAssetByColor&#45;&gt;splitCompositeKey -->
<g id="edge24" class="edge">
<title>TransferAssetByColor&#45;&gt;splitCompositeKey</title>
<path fill="none" stroke="indigo" d="M295.86,-1145.69C262.27,-1116.83 196.5,-1060.33 158.68,-1027.83"/>
<polygon fill="indigo" stroke="indigo" points="160.92,-1025.14 151.05,-1021.28 156.35,-1030.45 160.92,-1025.14"/>
</g>
<!-- InitLedger -->
<g id="node26" class="node">
<title>InitLedger</title>
<path fill="aliceblue" stroke="blue" d="M1436.18,-96.52C1436.18,-96.52 1368.25,-96.52 1368.25,-96.52 1362.25,-96.52 1356.25,-90.52 1356.25,-84.52 1356.25,-84.52 1356.25,-72.52 1356.25,-72.52 1356.25,-66.52 1362.25,-60.52 1368.25,-60.52 1368.25,-60.52 1436.18,-60.52 1436.18,-60.52 1442.18,-60.52 1448.18,-66.52 1448.18,-72.52 1448.18,-72.52 1448.18,-84.52 1448.18,-84.52 1448.18,-90.52 1442.18,-96.52 1436.18,-96.52"/>
<text text-anchor="middle" x="1402.22" y="-73.12" font-family="Times,serif" font-size="18.00">InitLedger</text>
</g>
<!-- _GetAllResults&#45;&gt;InitLedger -->
<g id="edge48" class="edge">
<title>_GetAllResults&#45;&gt;InitLedger</title>
<path fill="none" stroke="indigo" d="M770.21,-2023.62C829.72,-1840.49 1320.17,-331.05 1393.15,-106.42"/>
<polygon fill="indigo" stroke="indigo" points="1396.55,-107.3 1396.31,-96.71 1389.89,-105.14 1396.55,-107.3"/>
</g>
<!-- QueryAssetsByOwner&#45;&gt;QueryAssets -->
<g id="edge25" class="edge">
<title>QueryAssetsByOwner&#45;&gt;QueryAssets</title>
<path fill="none" stroke="indigo" d="M2058.18,-2023.76C2100.41,-1981.52 2205.8,-1876.13 2254.64,-1827.3"/>
<polygon fill="indigo" stroke="indigo" points="2257.37,-1829.51 2261.97,-1819.96 2252.43,-1824.56 2257.37,-1829.51"/>
</g>
<!-- GetQueryResultForQueryString -->
<g id="node18" class="node">
<title>GetQueryResultForQueryString</title>
<path fill="aliceblue" stroke="blue" d="M1849.03,-2213.96C1849.03,-2213.96 1626.15,-2213.96 1626.15,-2213.96 1620.15,-2213.96 1614.15,-2207.96 1614.15,-2201.96 1614.15,-2201.96 1614.15,-2189.96 1614.15,-2189.96 1614.15,-2183.96 1620.15,-2177.96 1626.15,-2177.96 1626.15,-2177.96 1849.03,-2177.96 1849.03,-2177.96 1855.03,-2177.96 1861.03,-2183.96 1861.03,-2189.96 1861.03,-2189.96 1861.03,-2201.96 1861.03,-2201.96 1861.03,-2207.96 1855.03,-2213.96 1849.03,-2213.96"/>
<text text-anchor="middle" x="1737.59" y="-2190.56" font-family="Times,serif" font-size="18.00">GetQueryResultForQueryString</text>
</g>
<!-- QueryAssetsByOwner&#45;&gt;GetQueryResultForQueryString -->
<g id="edge26" class="edge">
<title>QueryAssetsByOwner&#45;&gt;GetQueryResultForQueryString</title>
<path fill="none" stroke="indigo" d="M2004.53,-2059.94C1949.12,-2088.18 1842.32,-2142.59 1781.96,-2173.35"/>
<polygon fill="indigo" stroke="indigo" points="1780.37,-2170.23 1773.05,-2177.89 1783.55,-2176.47 1780.37,-2170.23"/>
</g>
<!-- QueryAssets&#45;&gt;GetQueryResultForQueryString -->
<g id="edge27" class="edge">
<title>QueryAssets&#45;&gt;GetQueryResultForQueryString</title>
<path fill="none" stroke="indigo" d="M2255.14,-1819.93C2166.84,-1884.09 1870.31,-2099.53 1770.61,-2171.96"/>
<polygon fill="indigo" stroke="indigo" points="1768.44,-2169.22 1762.41,-2177.93 1772.55,-2174.88 1768.44,-2169.22"/>
</g>
<!-- GetQueryResultForQueryString&#45;&gt;GetAssetsByRange -->
<g id="edge28" class="edge">
<title>GetQueryResultForQueryString&#45;&gt;GetAssetsByRange</title>
<path fill="none" stroke="indigo" d="M1702.06,-2177.86C1512.93,-2081.49 625.11,-1629.12 414.8,-1521.97"/>
<polygon fill="indigo" stroke="indigo" points="416.09,-1518.69 405.59,-1517.27 412.91,-1524.93 416.09,-1518.69"/>
</g>
<!-- GetQueryResultForQueryString&#45;&gt;_GetAllResults -->
<g id="edge30" class="edge">
<title>GetQueryResultForQueryString&#45;&gt;_GetAllResults</title>
<path fill="none" stroke="indigo" d="M1623.56,-2177.9C1421.62,-2145.91 1006.56,-2080.18 837.95,-2053.47"/>
<polygon fill="indigo" stroke="indigo" points="838.35,-2049.99 827.93,-2051.88 837.26,-2056.9 838.35,-2049.99"/>
</g>
<!-- GetAssetsByRangeWithPagination -->
<g id="node19" class="node">
<title>GetAssetsByRangeWithPagination</title>
<path fill="aliceblue" stroke="blue" d="M2609.95,-1181.8C2609.95,-1181.8 2365.05,-1181.8 2365.05,-1181.8 2359.05,-1181.8 2353.05,-1175.8 2353.05,-1169.8 2353.05,-1169.8 2353.05,-1157.8 2353.05,-1157.8 2353.05,-1151.8 2359.05,-1145.8 2365.05,-1145.8 2365.05,-1145.8 2609.95,-1145.8 2609.95,-1145.8 2615.95,-1145.8 2621.95,-1151.8 2621.95,-1157.8 2621.95,-1157.8 2621.95,-1169.8 2621.95,-1169.8 2621.95,-1175.8 2615.95,-1181.8 2609.95,-1181.8"/>
<text text-anchor="middle" x="2487.5" y="-1158.4" font-family="Times,serif" font-size="18.00">GetAssetsByRangeWithPagination</text>
</g>
<!-- GetQueryResultForQueryString&#45;&gt;GetAssetsByRangeWithPagination -->
<g id="edge29" class="edge">
<title>GetQueryResultForQueryString&#45;&gt;GetAssetsByRangeWithPagination</title>
<path fill="none" stroke="indigo" d="M1750.92,-2177.6C1841.09,-2053.5 2361.25,-1337.56 2468.25,-1190.28"/>
<polygon fill="indigo" stroke="indigo" points="2471.1,-1192.31 2474.15,-1182.17 2465.44,-1188.2 2471.1,-1192.31"/>
</g>
<!-- getQueryResult -->
<g id="node20" class="node">
<title>getQueryResult</title>
<path fill="lightyellow" stroke="red" d="M1454.69,-2267.08C1454.69,-2267.08 1349.75,-2267.08 1349.75,-2267.08 1343.75,-2267.08 1337.75,-2261.08 1337.75,-2255.08 1337.75,-2255.08 1337.75,-2243.08 1337.75,-2243.08 1337.75,-2237.08 1343.75,-2231.08 1349.75,-2231.08 1349.75,-2231.08 1454.69,-2231.08 1454.69,-2231.08 1460.69,-2231.08 1466.69,-2237.08 1466.69,-2243.08 1466.69,-2243.08 1466.69,-2255.08 1466.69,-2255.08 1466.69,-2261.08 1460.69,-2267.08 1454.69,-2267.08"/>
<text text-anchor="middle" x="1402.22" y="-2243.68" font-family="Times,serif" font-size="18.00">getQueryResult</text>
</g>
<!-- GetQueryResultForQueryString&#45;&gt;getQueryResult -->
<g id="edge31" class="edge">
<title>GetQueryResultForQueryString&#45;&gt;getQueryResult</title>
<path fill="none" stroke="indigo" d="M1623.58,-2214.02C1575.23,-2221.67 1520.24,-2230.38 1477.15,-2237.21"/>
<polygon fill="indigo" stroke="indigo" points="1476.36,-2233.79 1467.03,-2238.81 1477.46,-2240.7 1476.36,-2233.79"/>
</g>
<!-- GetAssetsByRangeWithPagination&#45;&gt;getState -->
<g id="edge36" class="edge">
<title>GetAssetsByRangeWithPagination&#45;&gt;getState</title>
<path fill="none" stroke="indigo" d="M2431.9,-1145.73C2145.11,-1052.55 836.06,-627.21 571.07,-541.11"/>
<polygon fill="indigo" stroke="indigo" points="571.96,-537.72 561.37,-537.96 569.8,-544.38 571.96,-537.72"/>
</g>
<!-- GetAssetsByRangeWithPagination&#45;&gt;GetAssetsByRange -->
<g id="edge32" class="edge">
<title>GetAssetsByRangeWithPagination&#45;&gt;GetAssetsByRange</title>
<path fill="none" stroke="indigo" d="M2373.65,-1181.83C1996.8,-1241.52 794.75,-1431.9 458.31,-1485.19"/>
<polygon fill="indigo" stroke="indigo" points="457.47,-1481.78 448.14,-1486.8 458.56,-1488.69 457.47,-1481.78"/>
</g>
<!-- GetAssetsByRangeWithPagination&#45;&gt;_GetAllResults -->
<g id="edge35" class="edge">
<title>GetAssetsByRangeWithPagination&#45;&gt;_GetAllResults</title>
<path fill="none" stroke="indigo" d="M2451.9,-1181.93C2231.4,-1294.29 1053.2,-1894.61 808.74,-2019.17"/>
<polygon fill="indigo" stroke="indigo" points="807.1,-2016.07 799.78,-2023.73 810.28,-2022.31 807.1,-2016.07"/>
</g>
<!-- GetAssetsByRangeWithPagination&#45;&gt;getStateByRange -->
<g id="edge37" class="edge">
<title>GetAssetsByRangeWithPagination&#45;&gt;getStateByRange</title>
<path fill="none" stroke="indigo" d="M2484.64,-1181.83C2475.9,-1236.99 2449.49,-1403.77 2438.87,-1470.81"/>
<polygon fill="indigo" stroke="indigo" points="2435.36,-1470.62 2437.25,-1481.05 2442.27,-1471.72 2435.36,-1470.62"/>
</g>
<!-- GetAssetsByRangeWithPagination&#45;&gt;QueryAssets -->
<g id="edge33" class="edge">
<title>GetAssetsByRangeWithPagination&#45;&gt;QueryAssets</title>
<path fill="none" stroke="indigo" d="M2481.63,-1181.86C2452.62,-1271.13 2324.56,-1665.26 2289.26,-1773.89"/>
<polygon fill="indigo" stroke="indigo" points="2285.91,-1772.9 2286.14,-1783.5 2292.56,-1775.07 2285.91,-1772.9"/>
</g>
<!-- QueryAssetsWithPagination -->
<g id="node21" class="node">
<title>QueryAssetsWithPagination</title>
<path fill="aliceblue" stroke="blue" d="M1165.3,-2213.96C1165.3,-2213.96 968.4,-2213.96 968.4,-2213.96 962.4,-2213.96 956.4,-2207.96 956.4,-2201.96 956.4,-2201.96 956.4,-2189.96 956.4,-2189.96 956.4,-2183.96 962.4,-2177.96 968.4,-2177.96 968.4,-2177.96 1165.3,-2177.96 1165.3,-2177.96 1171.3,-2177.96 1177.3,-2183.96 1177.3,-2189.96 1177.3,-2189.96 1177.3,-2201.96 1177.3,-2201.96 1177.3,-2207.96 1171.3,-2213.96 1165.3,-2213.96"/>
<text text-anchor="middle" x="1066.85" y="-2190.56" font-family="Times,serif" font-size="18.00">QueryAssetsWithPagination</text>
</g>
<!-- GetAssetsByRangeWithPagination&#45;&gt;QueryAssetsWithPagination -->
<g id="edge34" class="edge">
<title>GetAssetsByRangeWithPagination&#45;&gt;QueryAssetsWithPagination</title>
<path fill="none" stroke="indigo" d="M2462.54,-1181.93C2291.66,-1306.08 1295.35,-2029.94 1100.05,-2171.83"/>
<polygon fill="indigo" stroke="indigo" points="1097.91,-2169.06 1091.88,-2177.77 1102.03,-2174.73 1097.91,-2169.06"/>
</g>
<!-- getStateByRangeWithPagination -->
<g id="node22" class="node">
<title>getStateByRangeWithPagination</title>
<path fill="lightyellow" stroke="red" d="M2801.44,-1181.8C2801.44,-1181.8 2571.52,-1181.8 2571.52,-1181.8 2565.52,-1181.8 2559.52,-1175.8 2559.52,-1169.8 2559.52,-1169.8 2559.52,-1157.8 2559.52,-1157.8 2559.52,-1151.8 2565.52,-1145.8 2571.52,-1145.8 2571.52,-1145.8 2801.44,-1145.8 2801.44,-1145.8 2807.44,-1145.8 2813.44,-1151.8 2813.44,-1157.8 2813.44,-1157.8 2813.44,-1169.8 2813.44,-1169.8 2813.44,-1175.8 2807.44,-1181.8 2801.44,-1181.8"/>
<text text-anchor="middle" x="2686.48" y="-1158.4" font-family="Times,serif" font-size="18.00">getStateByRangeWithPagination</text>
</g>
<!-- GetAssetsByRangeWithPagination&#45;&gt;getStateByRangeWithPagination -->
<g id="edge38" class="edge">
<title>GetAssetsByRangeWithPagination&#45;&gt;getStateByRangeWithPagination</title>
<path fill="none" stroke="indigo" d="M2622.15,-1163.8C2622.22,-1163.8 2622.29,-1163.8 2622.36,-1163.8"/>
<polygon fill="indigo" stroke="indigo" points="2612.57,-1167.3 2622.57,-1163.8 2612.56,-1160.3 2612.57,-1167.3"/>
</g>
<!-- QueryAssetsWithPagination&#45;&gt;_GetAllResults -->
<g id="edge41" class="edge">
<title>QueryAssetsWithPagination&#45;&gt;_GetAllResults</title>
<path fill="none" stroke="indigo" d="M1031.25,-2177.82C975.84,-2149.58 869.04,-2095.17 808.68,-2064.42"/>
<polygon fill="indigo" stroke="indigo" points="810.27,-2061.29 799.77,-2059.87 807.09,-2067.53 810.27,-2061.29"/>
</g>
<!-- QueryAssetsWithPagination&#45;&gt;QueryAssets -->
<g id="edge39" class="edge">
<title>QueryAssetsWithPagination&#45;&gt;QueryAssets</title>
<path fill="none" stroke="indigo" d="M1122.54,-2177.86C1322.5,-2112.89 2003.67,-1891.57 2216.29,-1822.48"/>
<polygon fill="indigo" stroke="indigo" points="2217.63,-1825.73 2226.06,-1819.31 2215.47,-1819.07 2217.63,-1825.73"/>
</g>
<!-- QueryAssetsWithPagination&#45;&gt;getQueryResult -->
<g id="edge42" class="edge">
<title>QueryAssetsWithPagination&#45;&gt;getQueryResult</title>
<path fill="none" stroke="indigo" d="M1177.59,-2213.5C1226.8,-2221.29 1283.43,-2230.26 1327.52,-2237.24"/>
<polygon fill="indigo" stroke="indigo" points="1327.16,-2240.73 1337.58,-2238.84 1328.25,-2233.82 1327.16,-2240.73"/>
</g>
<!-- GetAssetHistory -->
<g id="node23" class="node">
<title>GetAssetHistory</title>
<path fill="aliceblue" stroke="blue" d="M580.17,-1819.71C580.17,-1819.71 468.24,-1819.71 468.24,-1819.71 462.24,-1819.71 456.24,-1813.71 456.24,-1807.71 456.24,-1807.71 456.24,-1795.71 456.24,-1795.71 456.24,-1789.71 462.24,-1783.71 468.24,-1783.71 468.24,-1783.71 580.17,-1783.71 580.17,-1783.71 586.17,-1783.71 592.17,-1789.71 592.17,-1795.71 592.17,-1795.71 592.17,-1807.71 592.17,-1807.71 592.17,-1813.71 586.17,-1819.71 580.17,-1819.71"/>
<text text-anchor="middle" x="524.21" y="-1796.31" font-family="Times,serif" font-size="18.00">GetAssetHistory</text>
</g>
<!-- QueryAssetsWithPagination&#45;&gt;GetAssetHistory -->
<g id="edge40" class="edge">
<title>QueryAssetsWithPagination&#45;&gt;GetAssetHistory</title>
<path fill="none" stroke="indigo" d="M1041.76,-2177.73C953.46,-2113.58 656.94,-1898.14 557.23,-1825.7"/>
<polygon fill="indigo" stroke="indigo" points="559.17,-1822.79 549.03,-1819.74 555.06,-1828.45 559.17,-1822.79"/>
</g>
<!-- getQueryResultWithPagination -->
<g id="node24" class="node">
<title>getQueryResultWithPagination</title>
<path fill="lightyellow" stroke="red" d="M1116.17,-2397.49C1116.17,-2397.49 898.26,-2397.49 898.26,-2397.49 892.26,-2397.49 886.26,-2391.49 886.26,-2385.49 886.26,-2385.49 886.26,-2373.49 886.26,-2373.49 886.26,-2367.49 892.26,-2361.49 898.26,-2361.49 898.26,-2361.49 1116.17,-2361.49 1116.17,-2361.49 1122.17,-2361.49 1128.17,-2367.49 1128.17,-2373.49 1128.17,-2373.49 1128.17,-2385.49 1128.17,-2385.49 1128.17,-2391.49 1122.17,-2397.49 1116.17,-2397.49"/>
<text text-anchor="middle" x="1007.21" y="-2374.09" font-family="Times,serif" font-size="18.00">getQueryResultWithPagination</text>
</g>
<!-- QueryAssetsWithPagination&#45;&gt;getQueryResultWithPagination -->
<g id="edge43" class="edge">
<title>QueryAssetsWithPagination&#45;&gt;getQueryResultWithPagination</title>
<path fill="none" stroke="indigo" d="M1060.91,-2214.23C1050.46,-2246.38 1028.73,-2313.29 1016.35,-2351.37"/>
<polygon fill="indigo" stroke="indigo" points="1012.89,-2350.7 1013.13,-2361.3 1019.55,-2352.87 1012.89,-2350.7"/>
</g>
<!-- GetAssetHistory&#45;&gt;AssetExists -->
<g id="edge44" class="edge">
<title>GetAssetHistory&#45;&gt;AssetExists</title>
<path fill="none" stroke="indigo" d="M527.07,-1783.63C551.83,-1627.32 729.47,-505.76 759.88,-313.73"/>
<polygon fill="indigo" stroke="indigo" points="763.34,-314.27 761.45,-303.84 756.43,-313.17 763.34,-314.27"/>
</g>
<!-- GetAssetHistory&#45;&gt;_GetAllResults -->
<g id="edge45" class="edge">
<title>GetAssetHistory&#45;&gt;_GetAllResults</title>
<path fill="none" stroke="indigo" d="M542.26,-1819.75C584.49,-1861.99 689.88,-1967.38 738.72,-2016.22"/>
<polygon fill="indigo" stroke="indigo" points="736.51,-2018.95 746.05,-2023.55 741.45,-2014 736.51,-2018.95"/>
</g>
<!-- getHistoryForKey -->
<g id="node25" class="node">
<title>getHistoryForKey</title>
<path fill="lightyellow" stroke="red" d="M467.98,-1905.22C467.98,-1905.22 345.04,-1905.22 345.04,-1905.22 339.04,-1905.22 333.04,-1899.22 333.04,-1893.22 333.04,-1893.22 333.04,-1881.22 333.04,-1881.22 333.04,-1875.22 339.04,-1869.22 345.04,-1869.22 345.04,-1869.22 467.98,-1869.22 467.98,-1869.22 473.98,-1869.22 479.98,-1875.22 479.98,-1881.22 479.98,-1881.22 479.98,-1893.22 479.98,-1893.22 479.98,-1899.22 473.98,-1905.22 467.98,-1905.22"/>
<text text-anchor="middle" x="406.51" y="-1881.82" font-family="Times,serif" font-size="18.00">getHistoryForKey</text>
</g>
<!-- GetAssetHistory&#45;&gt;getHistoryForKey -->
<g id="edge46" class="edge">
<title>GetAssetHistory&#45;&gt;getHistoryForKey</title>
<path fill="none" stroke="indigo" d="M499.25,-1819.84C481.93,-1832.43 458.66,-1849.33 439.77,-1863.05"/>
<polygon fill="indigo" stroke="indigo" points="437.47,-1860.4 431.44,-1869.11 441.58,-1866.07 437.47,-1860.4"/>
</g>
<!-- InitLedger&#45;&gt;CreateAsset -->
<g id="edge49" class="edge">
<title>InitLedger&#45;&gt;CreateAsset</title>
<path fill="none" stroke="indigo" d="M1437.72,-96.61C1576.46,-167.3 2081.87,-424.82 2235.58,-503.13"/>
<polygon fill="indigo" stroke="indigo" points="2234.26,-506.39 2244.76,-507.81 2237.44,-500.16 2234.26,-506.39"/>
</g>
</g>
</svg>
