<?xml version="1.0" encoding="UTF-8" standalone="no"?>
<!DOCTYPE svg PUBLIC "-//W3C//DTD SVG 1.1//EN"
 "http://www.w3.org/Graphics/SVG/1.1/DTD/svg11.dtd">
<!-- Generated by graphviz version 2.44.0 (20200518.1210)
 -->
<!-- Pages: 1 -->
<svg width="909pt" height="616pt"
 viewBox="0.00 0.00 909.10 615.98" xmlns="http://www.w3.org/2000/svg" xmlns:xlink="http://www.w3.org/1999/xlink">
<g id="graph0" class="graph" transform="scale(1 1) rotate(0) translate(4 611.98)">
<polygon fill="white" stroke="transparent" points="-4,4 -4,-611.98 905.1,-611.98 905.1,4 -4,4"/>
<!-- InitLedger -->
<g id="node1" class="node">
<title>InitLedger</title>
<path fill="aliceblue" stroke="blue" d="M328.47,-36C328.47,-36 260.54,-36 260.54,-36 254.54,-36 248.54,-30 248.54,-24 248.54,-24 248.54,-12 248.54,-12 248.54,-6 254.54,0 260.54,0 260.54,0 328.47,0 328.47,0 334.47,0 340.47,-6 340.47,-12 340.47,-12 340.47,-24 340.47,-24 340.47,-30 334.47,-36 328.47,-36"/>
<text text-anchor="middle" x="294.5" y="-12.6" font-family="Times,serif" font-size="18.00">InitLedger</text>
</g>
<!-- CreateAsset -->
<g id="node2" class="node">
<title>CreateAsset</title>
<path fill="aliceblue" stroke="blue" d="M519.8,-36C519.8,-36 440.89,-36 440.89,-36 434.89,-36 428.89,-30 428.89,-24 428.89,-24 428.89,-12 428.89,-12 428.89,-6 434.89,0 440.89,0 440.89,0 519.8,0 519.8,0 525.8,0 531.8,-6 531.8,-12 531.8,-12 531.8,-24 531.8,-24 531.8,-30 525.8,-36 519.8,-36"/>
<text text-anchor="middle" x="480.35" y="-12.6" font-family="Times,serif" font-size="18.00">CreateAsset</text>
</g>
<!-- InitLedger&#45;&gt;CreateAsset -->
<g id="edge1" class="edge">
<title>InitLedger&#45;&gt;CreateAsset</title>
<path fill="none" stroke="indigo" d="M340.92,-18C364.35,-18 393.1,-18 418.4,-18"/>
<polygon fill="indigo" stroke="indigo" points="418.63,-21.5 428.63,-18 418.63,-14.5 418.63,-21.5"/>
</g>
<!-- putState -->
<g id="node3" class="node">
<title>putState</title>
<path fill="lightyellow" stroke="red" d="M169.64,-145.24C169.64,-145.24 118.65,-145.24 118.65,-145.24 112.65,-145.24 106.65,-139.24 106.65,-133.24 106.65,-133.24 106.65,-121.24 106.65,-121.24 106.65,-115.24 112.65,-109.24 118.65,-109.24 118.65,-109.24 169.64,-109.24 169.64,-109.24 175.64,-109.24 181.64,-115.24 181.64,-121.24 181.64,-121.24 181.64,-133.24 181.64,-133.24 181.64,-139.24 175.64,-145.24 169.64,-145.24"/>
<text text-anchor="middle" x="144.15" y="-121.84" font-family="Times,serif" font-size="18.00">putState</text>
</g>
<!-- InitLedger&#45;&gt;putState -->
<g id="edge2" class="edge">
<title>InitLedger&#45;&gt;putState</title>
<path fill="none" stroke="indigo" d="M269.67,-36.04C244.43,-54.38 205.16,-82.91 177.27,-103.17"/>
<polygon fill="indigo" stroke="indigo" points="175.04,-100.46 169.01,-109.17 179.16,-106.13 175.04,-100.46"/>
</g>
<!-- CreateAsset&#45;&gt;putState -->
<g id="edge5" class="edge">
<title>CreateAsset&#45;&gt;putState</title>
<path fill="none" stroke="indigo" d="M428.55,-34.83C363.86,-55.85 254.1,-91.51 191.54,-111.84"/>
<polygon fill="indigo" stroke="indigo" points="190.34,-108.55 181.91,-114.97 192.51,-115.21 190.34,-108.55"/>
</g>
<!-- ReadAsset -->
<g id="node4" class="node">
<title>ReadAsset</title>
<path fill="aliceblue" stroke="blue" d="M514.82,-607.98C514.82,-607.98 445.88,-607.98 445.88,-607.98 439.88,-607.98 433.88,-601.98 433.88,-595.98 433.88,-595.98 433.88,-583.98 433.88,-583.98 433.88,-577.98 439.88,-571.98 445.88,-571.98 445.88,-571.98 514.82,-571.98 514.82,-571.98 520.82,-571.98 526.82,-577.98 526.82,-583.98 526.82,-583.98 526.82,-595.98 526.82,-595.98 526.82,-601.98 520.82,-607.98 514.82,-607.98"/>
<text text-anchor="middle" x="480.35" y="-584.58" font-family="Times,serif" font-size="18.00">ReadAsset</text>
</g>
<!-- CreateAsset&#45;&gt;ReadAsset -->
<g id="edge3" class="edge">
<title>CreateAsset&#45;&gt;ReadAsset</title>
<path fill="none" stroke="indigo" d="M480.35,-36.06C480.35,-118.69 480.35,-460.97 480.35,-561.87"/>
<polygon fill="indigo" stroke="indigo" points="476.85,-561.91 480.35,-571.91 483.85,-561.91 476.85,-561.91"/>
</g>
<!-- AssetExists -->
<g id="node5" class="node">
<title>AssetExists</title>
<path fill="aliceblue" stroke="blue" d="M332.49,-607.98C332.49,-607.98 256.51,-607.98 256.51,-607.98 250.51,-607.98 244.51,-601.98 244.51,-595.98 244.51,-595.98 244.51,-583.98 244.51,-583.98 244.51,-577.98 250.51,-571.98 256.51,-571.98 256.51,-571.98 332.49,-571.98 332.49,-571.98 338.49,-571.98 344.49,-577.98 344.49,-583.98 344.49,-583.98 344.49,-595.98 344.49,-595.98 344.49,-601.98 338.49,-607.98 332.49,-607.98"/>
<text text-anchor="middle" x="294.5" y="-584.58" font-family="Times,serif" font-size="18.00">AssetExists</text>
</g>
<!-- CreateAsset&#45;&gt;AssetExists -->
<g id="edge4" class="edge">
<title>CreateAsset&#45;&gt;AssetExists</title>
<path fill="none" stroke="indigo" d="M474.48,-36.06C447.6,-118.78 336.19,-461.67 303.54,-562.18"/>
<polygon fill="indigo" stroke="indigo" points="300.13,-561.32 300.37,-571.91 306.79,-563.48 300.13,-561.32"/>
</g>
<!-- UpdateAsset -->
<g id="node6" class="node">
<title>UpdateAsset</title>
<path fill="aliceblue" stroke="blue" d="M128.68,-321.99C128.68,-321.99 44.75,-321.99 44.75,-321.99 38.75,-321.99 32.75,-315.99 32.75,-309.99 32.75,-309.99 32.75,-297.99 32.75,-297.99 32.75,-291.99 38.75,-285.99 44.75,-285.99 44.75,-285.99 128.68,-285.99 128.68,-285.99 134.68,-285.99 140.68,-291.99 140.68,-297.99 140.68,-297.99 140.68,-309.99 140.68,-309.99 140.68,-315.99 134.68,-321.99 128.68,-321.99"/>
<text text-anchor="middle" x="86.72" y="-298.59" font-family="Times,serif" font-size="18.00">UpdateAsset</text>
</g>
<!-- ReadAsset&#45;&gt;UpdateAsset -->
<g id="edge6" class="edge">
<title>ReadAsset&#45;&gt;UpdateAsset</title>
<path fill="none" stroke="indigo" d="M455.43,-571.87C387.16,-522.28 197.12,-384.2 119.94,-328.13"/>
<polygon fill="indigo" stroke="indigo" points="121.68,-325.06 111.53,-322.02 117.56,-330.73 121.68,-325.06"/>
</g>
<!-- getState -->
<g id="node7" class="node">
<title>getState</title>
<path fill="lightyellow" stroke="red" d="M655.69,-145.24C655.69,-145.24 605.72,-145.24 605.72,-145.24 599.72,-145.24 593.72,-139.24 593.72,-133.24 593.72,-133.24 593.72,-121.24 593.72,-121.24 593.72,-115.24 599.72,-109.24 605.72,-109.24 605.72,-109.24 655.69,-109.24 655.69,-109.24 661.69,-109.24 667.69,-115.24 667.69,-121.24 667.69,-121.24 667.69,-133.24 667.69,-133.24 667.69,-139.24 661.69,-145.24 655.69,-145.24"/>
<text text-anchor="middle" x="630.7" y="-121.84" font-family="Times,serif" font-size="18.00">getState</text>
</g>
<!-- ReadAsset&#45;&gt;getState -->
<g id="edge7" class="edge">
<title>ReadAsset&#45;&gt;getState</title>
<path fill="none" stroke="indigo" d="M486.24,-571.84C509.36,-500.71 593.9,-240.51 621.74,-154.81"/>
<polygon fill="indigo" stroke="indigo" points="625.09,-155.85 624.85,-145.25 618.43,-153.68 625.09,-155.85"/>
</g>
<!-- AssetExists&#45;&gt;getState -->
<g id="edge14" class="edge">
<title>AssetExists&#45;&gt;getState</title>
<path fill="none" stroke="indigo" d="M307.68,-571.84C359.62,-500.35 550.33,-237.86 611.61,-153.52"/>
<polygon fill="indigo" stroke="indigo" points="614.57,-155.4 617.61,-145.25 608.9,-151.29 614.57,-155.4"/>
</g>
<!-- TransferAsset -->
<g id="node10" class="node">
<title>TransferAsset</title>
<path fill="aliceblue" stroke="blue" d="M677.14,-498.74C677.14,-498.74 584.26,-498.74 584.26,-498.74 578.26,-498.74 572.26,-492.74 572.26,-486.74 572.26,-486.74 572.26,-474.74 572.26,-474.74 572.26,-468.74 578.26,-462.74 584.26,-462.74 584.26,-462.74 677.14,-462.74 677.14,-462.74 683.14,-462.74 689.14,-468.74 689.14,-474.74 689.14,-474.74 689.14,-486.74 689.14,-486.74 689.14,-492.74 683.14,-498.74 677.14,-498.74"/>
<text text-anchor="middle" x="630.7" y="-475.34" font-family="Times,serif" font-size="18.00">TransferAsset</text>
</g>
<!-- AssetExists&#45;&gt;TransferAsset -->
<g id="edge13" class="edge">
<title>AssetExists&#45;&gt;TransferAsset</title>
<path fill="none" stroke="indigo" d="M344.83,-573.63C403.64,-554.52 501.08,-522.86 565.6,-501.9"/>
<polygon fill="indigo" stroke="indigo" points="566.83,-505.17 575.26,-498.76 564.67,-498.52 566.83,-505.17"/>
</g>
<!-- UpdateAsset&#45;&gt;putState -->
<g id="edge10" class="edge">
<title>UpdateAsset&#45;&gt;putState</title>
<path fill="none" stroke="indigo" d="M92.65,-285.74C102.73,-254.7 123.28,-191.45 135.15,-154.93"/>
<polygon fill="indigo" stroke="indigo" points="138.49,-155.98 138.25,-145.39 131.83,-153.82 138.49,-155.98"/>
</g>
<!-- UpdateAsset&#45;&gt;AssetExists -->
<g id="edge9" class="edge">
<title>UpdateAsset&#45;&gt;AssetExists</title>
<path fill="none" stroke="indigo" d="M100.03,-322.32C135.73,-371.45 233.68,-506.27 275.34,-563.61"/>
<polygon fill="indigo" stroke="indigo" points="272.59,-565.78 281.3,-571.81 278.25,-561.66 272.59,-565.78"/>
</g>
<!-- DeleteAsset -->
<g id="node8" class="node">
<title>DeleteAsset</title>
<path fill="aliceblue" stroke="blue" d="M183.6,-498.74C183.6,-498.74 104.69,-498.74 104.69,-498.74 98.69,-498.74 92.69,-492.74 92.69,-486.74 92.69,-486.74 92.69,-474.74 92.69,-474.74 92.69,-468.74 98.69,-462.74 104.69,-462.74 104.69,-462.74 183.6,-462.74 183.6,-462.74 189.6,-462.74 195.6,-468.74 195.6,-474.74 195.6,-474.74 195.6,-486.74 195.6,-486.74 195.6,-492.74 189.6,-498.74 183.6,-498.74"/>
<text text-anchor="middle" x="144.15" y="-475.34" font-family="Times,serif" font-size="18.00">DeleteAsset</text>
</g>
<!-- UpdateAsset&#45;&gt;DeleteAsset -->
<g id="edge8" class="edge">
<title>UpdateAsset&#45;&gt;DeleteAsset</title>
<path fill="none" stroke="indigo" d="M92.65,-322.24C102.73,-353.28 123.28,-416.53 135.15,-453.05"/>
<polygon fill="indigo" stroke="indigo" points="131.83,-454.16 138.25,-462.59 138.49,-452 131.83,-454.16"/>
</g>
<!-- DeleteAsset&#45;&gt;AssetExists -->
<g id="edge11" class="edge">
<title>DeleteAsset&#45;&gt;AssetExists</title>
<path fill="none" stroke="indigo" d="M168.97,-498.78C194.22,-517.12 233.49,-545.65 261.38,-565.91"/>
<polygon fill="indigo" stroke="indigo" points="259.49,-568.87 269.64,-571.92 263.6,-563.21 259.49,-568.87"/>
</g>
<!-- deleteState -->
<g id="node9" class="node">
<title>deleteState</title>
<path fill="lightyellow" stroke="red" d="M82.95,-568.97C82.95,-568.97 12.02,-568.97 12.02,-568.97 6.02,-568.97 0.02,-562.97 0.02,-556.97 0.02,-556.97 0.02,-544.97 0.02,-544.97 0.02,-538.97 6.02,-532.97 12.02,-532.97 12.02,-532.97 82.95,-532.97 82.95,-532.97 88.95,-532.97 94.95,-538.97 94.95,-544.97 94.95,-544.97 94.95,-556.97 94.95,-556.97 94.95,-562.97 88.95,-568.97 82.95,-568.97"/>
<text text-anchor="middle" x="47.48" y="-545.57" font-family="Times,serif" font-size="18.00">deleteState</text>
</g>
<!-- DeleteAsset&#45;&gt;deleteState -->
<g id="edge12" class="edge">
<title>DeleteAsset&#45;&gt;deleteState</title>
<path fill="none" stroke="indigo" d="M119.25,-498.83C107.53,-507.35 93.37,-517.63 80.74,-526.81"/>
<polygon fill="indigo" stroke="indigo" points="78.32,-524.24 72.29,-532.95 82.44,-529.9 78.32,-524.24"/>
</g>
<!-- TransferAsset&#45;&gt;putState -->
<g id="edge17" class="edge">
<title>TransferAsset&#45;&gt;putState</title>
<path fill="none" stroke="indigo" d="M605.91,-462.73C525.06,-403.99 269.07,-218 177.29,-151.32"/>
<polygon fill="indigo" stroke="indigo" points="179.33,-148.48 169.19,-145.43 175.22,-154.14 179.33,-148.48"/>
</g>
<!-- TransferAsset&#45;&gt;ReadAsset -->
<g id="edge15" class="edge">
<title>TransferAsset&#45;&gt;ReadAsset</title>
<path fill="none" stroke="indigo" d="M605.87,-498.78C580.63,-517.12 541.36,-545.65 513.47,-565.91"/>
<polygon fill="indigo" stroke="indigo" points="511.25,-563.21 505.21,-571.92 515.36,-568.87 511.25,-563.21"/>
</g>
<!-- GetAllAssets -->
<g id="node11" class="node">
<title>GetAllAssets</title>
<path fill="aliceblue" stroke="blue" d="M732.11,-321.99C732.11,-321.99 644.16,-321.99 644.16,-321.99 638.16,-321.99 632.16,-315.99 632.16,-309.99 632.16,-309.99 632.16,-297.99 632.16,-297.99 632.16,-291.99 638.16,-285.99 644.16,-285.99 644.16,-285.99 732.11,-285.99 732.11,-285.99 738.11,-285.99 744.11,-291.99 744.11,-297.99 744.11,-297.99 744.11,-309.99 744.11,-309.99 744.11,-315.99 738.11,-321.99 732.11,-321.99"/>
<text text-anchor="middle" x="688.13" y="-298.59" font-family="Times,serif" font-size="18.00">GetAllAssets</text>
</g>
<!-- TransferAsset&#45;&gt;GetAllAssets -->
<g id="edge16" class="edge">
<title>TransferAsset&#45;&gt;GetAllAssets</title>
<path fill="none" stroke="indigo" d="M636.63,-462.49C646.72,-431.45 667.27,-368.2 679.13,-331.68"/>
<polygon fill="indigo" stroke="indigo" points="682.47,-332.73 682.24,-322.14 675.82,-330.57 682.47,-332.73"/>
</g>
<!-- GetAllAssets&#45;&gt;getState -->
<g id="edge18" class="edge">
<title>GetAllAssets&#45;&gt;getState</title>
<path fill="none" stroke="indigo" d="M682.2,-285.74C672.12,-254.7 651.57,-191.45 639.7,-154.93"/>
<polygon fill="indigo" stroke="indigo" points="643.02,-153.82 636.6,-145.39 636.36,-155.98 643.02,-153.82"/>
</g>
<!-- getStateByRange -->
<g id="node12" class="node">
<title>getStateByRange</title>
<path fill="lightyellow" stroke="red" d="M889.09,-321.99C889.09,-321.99 772.15,-321.99 772.15,-321.99 766.15,-321.99 760.15,-315.99 760.15,-309.99 760.15,-309.99 760.15,-297.99 760.15,-297.99 760.15,-291.99 766.15,-285.99 772.15,-285.99 772.15,-285.99 889.09,-285.99 889.09,-285.99 895.09,-285.99 901.09,-291.99 901.09,-297.99 901.09,-297.99 901.09,-309.99 901.09,-309.99 901.09,-315.99 895.09,-321.99 889.09,-321.99"/>
<text text-anchor="middle" x="830.62" y="-298.59" font-family="Times,serif" font-size="18.00">getStateByRange</text>
</g>
<!-- GetAllAssets&#45;&gt;getStateByRange -->
<g id="edge19" class="edge">
<title>GetAllAssets&#45;&gt;getStateByRange</title>
<path fill="none" stroke="indigo" d="M744.45,-303.99C746.21,-303.99 747.99,-303.99 749.78,-303.99"/>
<polygon fill="indigo" stroke="indigo" points="750.06,-307.49 760.06,-303.99 750.06,-300.49 750.06,-307.49"/>
</g>
</g>
</svg>
