<?xml version="1.0" encoding="UTF-8" standalone="no"?>
<!DOCTYPE svg PUBLIC "-//W3C//DTD SVG 1.1//EN"
 "http://www.w3.org/Graphics/SVG/1.1/DTD/svg11.dtd">
<!-- Generated by graphviz version 2.44.0 (20200518.1210)
 -->
<!-- Pages: 1 -->
<svg width="1322pt" height="691pt"
 viewBox="0.00 0.00 1322.18 691.21" xmlns="http://www.w3.org/2000/svg" xmlns:xlink="http://www.w3.org/1999/xlink">
<g id="graph0" class="graph" transform="scale(1 1) rotate(0) translate(4 687.21)">
<polygon fill="white" stroke="transparent" points="-4,4 -4,-687.21 1318.18,-687.21 1318.18,4 -4,4"/>
<!-- putState -->
<g id="node1" class="node">
<title>putState</title>
<path fill="lightyellow" stroke="red" d="M214.68,-511.44C214.68,-511.44 163.7,-511.44 163.7,-511.44 157.7,-511.44 151.7,-505.44 151.7,-499.44 151.7,-499.44 151.7,-487.44 151.7,-487.44 151.7,-481.44 157.7,-475.44 163.7,-475.44 163.7,-475.44 214.68,-475.44 214.68,-475.44 220.68,-475.44 226.68,-481.44 226.68,-487.44 226.68,-487.44 226.68,-499.44 226.68,-499.44 226.68,-505.44 220.68,-511.44 214.68,-511.44"/>
<text text-anchor="middle" x="189.19" y="-488.04" font-family="Times,serif" font-size="18.00">putState</text>
</g>
<!-- initLedger -->
<g id="node2" class="node">
<title>initLedger</title>
<path fill="aliceblue" stroke="blue" d="M157.23,-638.31C157.23,-638.31 90.28,-638.31 90.28,-638.31 84.28,-638.31 78.28,-632.31 78.28,-626.31 78.28,-626.31 78.28,-614.31 78.28,-614.31 78.28,-608.31 84.28,-602.31 90.28,-602.31 90.28,-602.31 157.23,-602.31 157.23,-602.31 163.23,-602.31 169.23,-608.31 169.23,-614.31 169.23,-614.31 169.23,-626.31 169.23,-626.31 169.23,-632.31 163.23,-638.31 157.23,-638.31"/>
<text text-anchor="middle" x="123.76" y="-614.91" font-family="Times,serif" font-size="18.00">initLedger</text>
</g>
<!-- initLedger&#45;&gt;putState -->
<g id="edge1" class="edge">
<title>initLedger&#45;&gt;putState</title>
<path fill="none" stroke="indigo" d="M133.13,-602.14C144.11,-580.84 162.41,-545.36 175.1,-520.75"/>
<polygon fill="indigo" stroke="indigo" points="178.36,-522.08 179.83,-511.59 172.14,-518.87 178.36,-522.08"/>
</g>
<!-- getState -->
<g id="node3" class="node">
<title>getState</title>
<path fill="lightyellow" stroke="red" d="M817.68,-373.7C817.68,-373.7 767.71,-373.7 767.71,-373.7 761.71,-373.7 755.71,-367.7 755.71,-361.7 755.71,-361.7 755.71,-349.7 755.71,-349.7 755.71,-343.7 761.71,-337.7 767.71,-337.7 767.71,-337.7 817.68,-337.7 817.68,-337.7 823.68,-337.7 829.68,-343.7 829.68,-349.7 829.68,-349.7 829.68,-361.7 829.68,-361.7 829.68,-367.7 823.68,-373.7 817.68,-373.7"/>
<text text-anchor="middle" x="792.7" y="-350.3" font-family="Times,serif" font-size="18.00">getState</text>
</g>
<!-- queryTopic -->
<g id="node4" class="node">
<title>queryTopic</title>
<path fill="aliceblue" stroke="blue" d="M1132.24,-36C1132.24,-36 1057.3,-36 1057.3,-36 1051.3,-36 1045.3,-30 1045.3,-24 1045.3,-24 1045.3,-12 1045.3,-12 1045.3,-6 1051.3,0 1057.3,0 1057.3,0 1132.24,0 1132.24,0 1138.24,0 1144.24,-6 1144.24,-12 1144.24,-12 1144.24,-24 1144.24,-24 1144.24,-30 1138.24,-36 1132.24,-36"/>
<text text-anchor="middle" x="1094.77" y="-12.6" font-family="Times,serif" font-size="18.00">queryTopic</text>
</g>
<!-- queryTopic&#45;&gt;getState -->
<g id="edge2" class="edge">
<title>queryTopic&#45;&gt;getState</title>
<path fill="none" stroke="indigo" d="M1078.53,-36.16C1028.23,-92.39 874.89,-263.81 816.03,-329.6"/>
<polygon fill="indigo" stroke="indigo" points="813.08,-327.66 809.02,-337.45 818.29,-332.33 813.08,-327.66"/>
</g>
<!-- createTopic -->
<g id="node5" class="node">
<title>createTopic</title>
<path fill="aliceblue" stroke="blue" d="M88.92,-488.32C88.92,-488.32 12.03,-488.32 12.03,-488.32 6.03,-488.32 0.03,-482.32 0.03,-476.32 0.03,-476.32 0.03,-464.32 0.03,-464.32 0.03,-458.32 6.03,-452.32 12.03,-452.32 12.03,-452.32 88.92,-452.32 88.92,-452.32 94.92,-452.32 100.92,-458.32 100.92,-464.32 100.92,-464.32 100.92,-476.32 100.92,-476.32 100.92,-482.32 94.92,-488.32 88.92,-488.32"/>
<text text-anchor="middle" x="50.47" y="-464.92" font-family="Times,serif" font-size="18.00">createTopic</text>
</g>
<!-- createTopic&#45;&gt;putState -->
<g id="edge3" class="edge">
<title>createTopic&#45;&gt;putState</title>
<path fill="none" stroke="indigo" d="M100.94,-478.73C114.15,-480.93 128.34,-483.3 141.4,-485.47"/>
<polygon fill="indigo" stroke="indigo" points="141.15,-488.98 151.59,-487.17 142.3,-482.08 141.15,-488.98"/>
</g>
<!-- queryAllTopics -->
<g id="node6" class="node">
<title>queryAllTopics</title>
<path fill="aliceblue" stroke="blue" d="M457.05,-64.18C457.05,-64.18 352.11,-64.18 352.11,-64.18 346.11,-64.18 340.11,-58.18 340.11,-52.18 340.11,-52.18 340.11,-40.18 340.11,-40.18 340.11,-34.18 346.11,-28.18 352.11,-28.18 352.11,-28.18 457.05,-28.18 457.05,-28.18 463.05,-28.18 469.05,-34.18 469.05,-40.18 469.05,-40.18 469.05,-52.18 469.05,-52.18 469.05,-58.18 463.05,-64.18 457.05,-64.18"/>
<text text-anchor="middle" x="404.58" y="-40.78" font-family="Times,serif" font-size="18.00">queryAllTopics</text>
</g>
<!-- queryAllTopics&#45;&gt;getState -->
<g id="edge4" class="edge">
<title>queryAllTopics&#45;&gt;getState</title>
<path fill="none" stroke="indigo" d="M427.41,-64.39C493.59,-117.17 685.64,-270.32 761.42,-330.75"/>
<polygon fill="indigo" stroke="indigo" points="759.65,-333.82 769.65,-337.32 764.02,-328.35 759.65,-333.82"/>
</g>
<!-- getStateByRange -->
<g id="node7" class="node">
<title>getStateByRange</title>
<path fill="lightyellow" stroke="red" d="M247.66,-235.95C247.66,-235.95 130.72,-235.95 130.72,-235.95 124.72,-235.95 118.72,-229.95 118.72,-223.95 118.72,-223.95 118.72,-211.95 118.72,-211.95 118.72,-205.95 124.72,-199.95 130.72,-199.95 130.72,-199.95 247.66,-199.95 247.66,-199.95 253.66,-199.95 259.66,-205.95 259.66,-211.95 259.66,-211.95 259.66,-223.95 259.66,-223.95 259.66,-229.95 253.66,-235.95 247.66,-235.95"/>
<text text-anchor="middle" x="189.19" y="-212.55" font-family="Times,serif" font-size="18.00">getStateByRange</text>
</g>
<!-- queryAllTopics&#45;&gt;getStateByRange -->
<g id="edge5" class="edge">
<title>queryAllTopics&#45;&gt;getStateByRange</title>
<path fill="none" stroke="indigo" d="M381.94,-64.24C343.07,-95.23 263.64,-158.58 219.85,-193.49"/>
<polygon fill="indigo" stroke="indigo" points="217.49,-190.9 211.85,-199.88 221.85,-196.38 217.49,-190.9"/>
</g>
<!-- subscribeToTopic -->
<g id="node8" class="node">
<title>subscribeToTopic</title>
<path fill="aliceblue" stroke="blue" d="M465.54,-683.21C465.54,-683.21 343.62,-683.21 343.62,-683.21 337.62,-683.21 331.62,-677.21 331.62,-671.21 331.62,-671.21 331.62,-659.21 331.62,-659.21 331.62,-653.21 337.62,-647.21 343.62,-647.21 343.62,-647.21 465.54,-647.21 465.54,-647.21 471.54,-647.21 477.54,-653.21 477.54,-659.21 477.54,-659.21 477.54,-671.21 477.54,-671.21 477.54,-677.21 471.54,-683.21 465.54,-683.21"/>
<text text-anchor="middle" x="404.58" y="-659.81" font-family="Times,serif" font-size="18.00">subscribeToTopic</text>
</g>
<!-- subscribeToTopic&#45;&gt;putState -->
<g id="edge6" class="edge">
<title>subscribeToTopic&#45;&gt;putState</title>
<path fill="none" stroke="indigo" d="M381.94,-647.15C343.07,-616.16 263.64,-552.82 219.85,-517.9"/>
<polygon fill="indigo" stroke="indigo" points="221.85,-515.01 211.85,-511.51 217.49,-520.49 221.85,-515.01"/>
</g>
<!-- subscribeToTopic&#45;&gt;getState -->
<g id="edge7" class="edge">
<title>subscribeToTopic&#45;&gt;getState</title>
<path fill="none" stroke="indigo" d="M427.41,-647C493.59,-594.22 685.64,-441.07 761.42,-380.64"/>
<polygon fill="indigo" stroke="indigo" points="764.02,-383.04 769.65,-374.07 759.65,-377.57 764.02,-383.04"/>
</g>
<!-- unsubscribeFromTopic -->
<g id="node9" class="node">
<title>unsubscribeFromTopic</title>
<path fill="aliceblue" stroke="blue" d="M752.63,-621.91C752.63,-621.91 593.7,-621.91 593.7,-621.91 587.7,-621.91 581.7,-615.91 581.7,-609.91 581.7,-609.91 581.7,-597.91 581.7,-597.91 581.7,-591.91 587.7,-585.91 593.7,-585.91 593.7,-585.91 752.63,-585.91 752.63,-585.91 758.63,-585.91 764.63,-591.91 764.63,-597.91 764.63,-597.91 764.63,-609.91 764.63,-609.91 764.63,-615.91 758.63,-621.91 752.63,-621.91"/>
<text text-anchor="middle" x="673.16" y="-598.51" font-family="Times,serif" font-size="18.00">unsubscribeFromTopic</text>
</g>
<!-- unsubscribeFromTopic&#45;&gt;putState -->
<g id="edge8" class="edge">
<title>unsubscribeFromTopic&#45;&gt;putState</title>
<path fill="none" stroke="indigo" d="M594.06,-585.85C492.69,-562.71 320.15,-523.33 236.9,-504.33"/>
<polygon fill="indigo" stroke="indigo" points="237.49,-500.88 226.97,-502.06 235.94,-507.7 237.49,-500.88"/>
</g>
<!-- unsubscribeFromTopic&#45;&gt;getState -->
<g id="edge9" class="edge">
<title>unsubscribeFromTopic&#45;&gt;getState</title>
<path fill="none" stroke="indigo" d="M681.95,-585.65C702.72,-542.53 754.92,-434.15 779.5,-383.1"/>
<polygon fill="indigo" stroke="indigo" points="782.71,-384.5 783.89,-373.97 776.4,-381.46 782.71,-384.5"/>
</g>
<!-- unsubscribeFromAllTopics -->
<g id="node10" class="node">
<title>unsubscribeFromAllTopics</title>
<path fill="aliceblue" stroke="blue" d="M767.63,-125.48C767.63,-125.48 578.7,-125.48 578.7,-125.48 572.7,-125.48 566.7,-119.48 566.7,-113.48 566.7,-113.48 566.7,-101.48 566.7,-101.48 566.7,-95.48 572.7,-89.48 578.7,-89.48 578.7,-89.48 767.63,-89.48 767.63,-89.48 773.63,-89.48 779.63,-95.48 779.63,-101.48 779.63,-101.48 779.63,-113.48 779.63,-113.48 779.63,-119.48 773.63,-125.48 767.63,-125.48"/>
<text text-anchor="middle" x="673.16" y="-102.08" font-family="Times,serif" font-size="18.00">unsubscribeFromAllTopics</text>
</g>
<!-- unsubscribeFromAllTopics&#45;&gt;putState -->
<g id="edge10" class="edge">
<title>unsubscribeFromAllTopics&#45;&gt;putState</title>
<path fill="none" stroke="indigo" d="M650.47,-125.58C571.64,-188.45 309.59,-397.43 219.74,-469.08"/>
<polygon fill="indigo" stroke="indigo" points="217.47,-466.41 211.83,-475.38 221.84,-471.88 217.47,-466.41"/>
</g>
<!-- unsubscribeFromAllTopics&#45;&gt;getState -->
<g id="edge11" class="edge">
<title>unsubscribeFromAllTopics&#45;&gt;getState</title>
<path fill="none" stroke="indigo" d="M681.95,-125.74C702.72,-168.86 754.92,-277.24 779.5,-328.29"/>
<polygon fill="indigo" stroke="indigo" points="776.4,-329.93 783.89,-337.42 782.71,-326.89 776.4,-329.93"/>
</g>
<!-- unsubscribeFromAllTopics&#45;&gt;getStateByRange -->
<g id="edge12" class="edge">
<title>unsubscribeFromAllTopics&#45;&gt;getStateByRange</title>
<path fill="none" stroke="indigo" d="M594.06,-125.54C504.68,-145.94 359.96,-178.97 269.92,-199.52"/>
<polygon fill="indigo" stroke="indigo" points="269,-196.14 260.03,-201.78 270.55,-202.97 269,-196.14"/>
</g>
<!-- registerUser -->
<g id="node11" class="node">
<title>registerUser</title>
<path fill="moccasin" stroke="red" d="M977.35,-516.7C977.35,-516.7 897.46,-516.7 897.46,-516.7 891.46,-516.7 885.46,-510.7 885.46,-504.7 885.46,-504.7 885.46,-492.7 885.46,-492.7 885.46,-486.7 891.46,-480.7 897.46,-480.7 897.46,-480.7 977.35,-480.7 977.35,-480.7 983.35,-480.7 989.35,-486.7 989.35,-492.7 989.35,-492.7 989.35,-504.7 989.35,-504.7 989.35,-510.7 983.35,-516.7 977.35,-516.7"/>
<text text-anchor="middle" x="937.4" y="-493.3" font-family="Times,serif" font-size="18.00">registerUser</text>
</g>
<!-- publishToTopic -->
<g id="node12" class="node">
<title>publishToTopic</title>
<path fill="aliceblue" stroke="blue" d="M1128.99,-438.81C1128.99,-438.81 1022.01,-438.81 1022.01,-438.81 1016.01,-438.81 1010.01,-432.81 1010.01,-426.81 1010.01,-426.81 1010.01,-414.81 1010.01,-414.81 1010.01,-408.81 1016.01,-402.81 1022.01,-402.81 1022.01,-402.81 1128.99,-402.81 1128.99,-402.81 1134.99,-402.81 1140.99,-408.81 1140.99,-414.81 1140.99,-414.81 1140.99,-426.81 1140.99,-426.81 1140.99,-432.81 1134.99,-438.81 1128.99,-438.81"/>
<text text-anchor="middle" x="1075.5" y="-415.41" font-family="Times,serif" font-size="18.00">publishToTopic</text>
</g>
<!-- publishToTopic&#45;&gt;putState -->
<g id="edge16" class="edge">
<title>publishToTopic&#45;&gt;putState</title>
<path fill="none" stroke="indigo" d="M1009.97,-426.18C839.65,-440.13 385.96,-477.32 237.18,-489.51"/>
<polygon fill="indigo" stroke="indigo" points="236.68,-486.04 227,-490.34 237.26,-493.01 236.68,-486.04"/>
</g>
<!-- publishToTopic&#45;&gt;getState -->
<g id="edge17" class="edge">
<title>publishToTopic&#45;&gt;getState</title>
<path fill="none" stroke="indigo" d="M1009.91,-405.7C957.77,-393.7 886.1,-377.2 839.59,-366.49"/>
<polygon fill="indigo" stroke="indigo" points="840.31,-363.07 829.78,-364.23 838.74,-369.89 840.31,-363.07"/>
</g>
<!-- publishToTopic&#45;&gt;registerUser -->
<g id="edge13" class="edge">
<title>publishToTopic&#45;&gt;registerUser</title>
<path fill="none" stroke="indigo" d="M1043.47,-438.87C1024.18,-449.75 999.41,-463.73 978.65,-475.43"/>
<polygon fill="indigo" stroke="indigo" points="976.73,-472.5 969.74,-480.46 980.17,-478.6 976.73,-472.5"/>
</g>
<!-- updateTopic -->
<g id="node13" class="node">
<title>updateTopic</title>
<path fill="moccasin" stroke="red" d="M1249.24,-555.79C1249.24,-555.79 1167.29,-555.79 1167.29,-555.79 1161.29,-555.79 1155.29,-549.79 1155.29,-543.79 1155.29,-543.79 1155.29,-531.79 1155.29,-531.79 1155.29,-525.79 1161.29,-519.79 1167.29,-519.79 1167.29,-519.79 1249.24,-519.79 1249.24,-519.79 1255.24,-519.79 1261.24,-525.79 1261.24,-531.79 1261.24,-531.79 1261.24,-543.79 1261.24,-543.79 1261.24,-549.79 1255.24,-555.79 1249.24,-555.79"/>
<text text-anchor="middle" x="1208.27" y="-532.39" font-family="Times,serif" font-size="18.00">updateTopic</text>
</g>
<!-- publishToTopic&#45;&gt;updateTopic -->
<g id="edge14" class="edge">
<title>publishToTopic&#45;&gt;updateTopic</title>
<path fill="none" stroke="indigo" d="M1095.96,-438.83C1118.4,-458.61 1154.59,-490.49 1179.8,-512.71"/>
<polygon fill="indigo" stroke="indigo" points="1177.75,-515.57 1187.57,-519.55 1182.38,-510.32 1177.75,-515.57"/>
</g>
<!-- updateBesuTopic -->
<g id="node14" class="node">
<title>updateBesuTopic</title>
<path fill="moccasin" stroke="red" d="M1302.16,-382.32C1302.16,-382.32 1184.23,-382.32 1184.23,-382.32 1178.23,-382.32 1172.23,-376.32 1172.23,-370.32 1172.23,-370.32 1172.23,-358.32 1172.23,-358.32 1172.23,-352.32 1178.23,-346.32 1184.23,-346.32 1184.23,-346.32 1302.16,-346.32 1302.16,-346.32 1308.16,-346.32 1314.16,-352.32 1314.16,-358.32 1314.16,-358.32 1314.16,-370.32 1314.16,-370.32 1314.16,-376.32 1308.16,-382.32 1302.16,-382.32"/>
<text text-anchor="middle" x="1243.19" y="-358.92" font-family="Times,serif" font-size="18.00">updateBesuTopic</text>
</g>
<!-- publishToTopic&#45;&gt;updateBesuTopic -->
<g id="edge15" class="edge">
<title>publishToTopic&#45;&gt;updateBesuTopic</title>
<path fill="none" stroke="indigo" d="M1129.02,-402.78C1145.21,-397.33 1163.14,-391.29 1179.9,-385.64"/>
<polygon fill="indigo" stroke="indigo" points="1181.25,-388.88 1189.61,-382.37 1179.01,-382.25 1181.25,-388.88"/>
</g>
<!-- invokeChaincode -->
<g id="node15" class="node">
<title>invokeChaincode</title>
<path fill="lightyellow" stroke="red" d="M1026.61,-329.26C1026.61,-329.26 908.67,-329.26 908.67,-329.26 902.67,-329.26 896.67,-323.26 896.67,-317.26 896.67,-317.26 896.67,-305.26 896.67,-305.26 896.67,-299.26 902.67,-293.26 908.67,-293.26 908.67,-293.26 1026.61,-293.26 1026.61,-293.26 1032.61,-293.26 1038.61,-299.26 1038.61,-305.26 1038.61,-305.26 1038.61,-317.26 1038.61,-317.26 1038.61,-323.26 1032.61,-329.26 1026.61,-329.26"/>
<text text-anchor="middle" x="967.64" y="-305.86" font-family="Times,serif" font-size="18.00">invokeChaincode</text>
</g>
<!-- publishToTopic&#45;&gt;invokeChaincode -->
<g id="edge18" class="edge">
<title>publishToTopic&#45;&gt;invokeChaincode</title>
<path fill="none" stroke="indigo" d="M1057.69,-402.72C1039.97,-384.72 1012.62,-356.94 992.71,-336.72"/>
<polygon fill="indigo" stroke="indigo" points="994.99,-334.05 985.48,-329.38 990,-338.96 994.99,-334.05"/>
</g>
<!-- updateBesuTopic&#45;&gt;updateTopic -->
<g id="edge19" class="edge">
<title>updateBesuTopic&#45;&gt;updateTopic</title>
<path fill="none" stroke="indigo" d="M1239.52,-382.56C1233.42,-412.88 1221.14,-473.87 1213.92,-509.71"/>
<polygon fill="indigo" stroke="indigo" points="1210.48,-509.04 1211.94,-519.54 1217.35,-510.42 1210.48,-509.04"/>
</g>
</g>
</svg>
