<?xml version="1.0" encoding="UTF-8" standalone="no"?>
<!DOCTYPE svg PUBLIC "-//W3C//DTD SVG 1.1//EN"
 "http://www.w3.org/Graphics/SVG/1.1/DTD/svg11.dtd">
<!-- Generated by graphviz version 2.44.0 (20200518.1210)
 -->
<!-- Pages: 1 -->
<svg width="1695pt" height="1642pt"
 viewBox="0.00 0.00 1695.43 1641.57" xmlns="http://www.w3.org/2000/svg" xmlns:xlink="http://www.w3.org/1999/xlink">
<g id="graph0" class="graph" transform="scale(1 1) rotate(0) translate(4 1637.57)">
<polygon fill="white" stroke="transparent" points="-4,4 -4,-1637.57 1691.43,-1637.57 1691.43,4 -4,4"/>
<!-- TokenName -->
<g id="node1" class="node">
<title>TokenName</title>
<path fill="aliceblue" stroke="blue" d="M1649.31,-587.95C1649.31,-587.95 1568.38,-587.95 1568.38,-587.95 1562.38,-587.95 1556.38,-581.95 1556.38,-575.95 1556.38,-575.95 1556.38,-563.95 1556.38,-563.95 1556.38,-557.95 1562.38,-551.95 1568.38,-551.95 1568.38,-551.95 1649.31,-551.95 1649.31,-551.95 1655.31,-551.95 1661.31,-557.95 1661.31,-563.95 1661.31,-563.95 1661.31,-575.95 1661.31,-575.95 1661.31,-581.95 1655.31,-587.95 1649.31,-587.95"/>
<text text-anchor="middle" x="1608.85" y="-564.55" font-family="Times,serif" font-size="18.00">TokenName</text>
</g>
<!-- Initialize -->
<g id="node2" class="node">
<title>Initialize</title>
<path fill="aliceblue" stroke="blue" d="M78.35,-834.78C78.35,-834.78 22.4,-834.78 22.4,-834.78 16.4,-834.78 10.4,-828.78 10.4,-822.78 10.4,-822.78 10.4,-810.78 10.4,-810.78 10.4,-804.78 16.4,-798.78 22.4,-798.78 22.4,-798.78 78.35,-798.78 78.35,-798.78 84.35,-798.78 90.35,-804.78 90.35,-810.78 90.35,-810.78 90.35,-822.78 90.35,-822.78 90.35,-828.78 84.35,-834.78 78.35,-834.78"/>
<text text-anchor="middle" x="50.38" y="-811.38" font-family="Times,serif" font-size="18.00">Initialize</text>
</g>
<!-- TokenName&#45;&gt;Initialize -->
<g id="edge1" class="edge">
<title>TokenName&#45;&gt;Initialize</title>
<path fill="none" stroke="indigo" d="M1556.1,-578.3C1316.67,-616.22 333.68,-771.91 100.27,-808.88"/>
<polygon fill="indigo" stroke="indigo" points="99.69,-805.43 90.36,-810.45 100.78,-812.34 99.69,-805.43"/>
</g>
<!-- CheckInitialized -->
<g id="node3" class="node">
<title>CheckInitialized</title>
<path fill="aliceblue" stroke="blue" d="M657.78,-75.1C657.78,-75.1 546.86,-75.1 546.86,-75.1 540.86,-75.1 534.86,-69.1 534.86,-63.1 534.86,-63.1 534.86,-51.1 534.86,-51.1 534.86,-45.1 540.86,-39.1 546.86,-39.1 546.86,-39.1 657.78,-39.1 657.78,-39.1 663.78,-39.1 669.78,-45.1 669.78,-51.1 669.78,-51.1 669.78,-63.1 669.78,-63.1 669.78,-69.1 663.78,-75.1 657.78,-75.1"/>
<text text-anchor="middle" x="602.32" y="-51.7" font-family="Times,serif" font-size="18.00">CheckInitialized</text>
</g>
<!-- TokenName&#45;&gt;CheckInitialized -->
<g id="edge2" class="edge">
<title>TokenName&#45;&gt;CheckInitialized</title>
<path fill="none" stroke="indigo" d="M1573.32,-551.84C1420.18,-473.81 816.58,-166.27 646.91,-79.81"/>
<polygon fill="indigo" stroke="indigo" points="648.25,-76.57 637.75,-75.15 645.07,-82.81 648.25,-76.57"/>
</g>
<!-- getState -->
<g id="node4" class="node">
<title>getState</title>
<path fill="lightyellow" stroke="red" d="M1520.37,-365.27C1520.37,-365.27 1470.41,-365.27 1470.41,-365.27 1464.41,-365.27 1458.41,-359.27 1458.41,-353.27 1458.41,-353.27 1458.41,-341.27 1458.41,-341.27 1458.41,-335.27 1464.41,-329.27 1470.41,-329.27 1470.41,-329.27 1520.37,-329.27 1520.37,-329.27 1526.37,-329.27 1532.37,-335.27 1532.37,-341.27 1532.37,-341.27 1532.37,-353.27 1532.37,-353.27 1532.37,-359.27 1526.37,-365.27 1520.37,-365.27"/>
<text text-anchor="middle" x="1495.39" y="-341.87" font-family="Times,serif" font-size="18.00">getState</text>
</g>
<!-- TokenName&#45;&gt;getState -->
<g id="edge3" class="edge">
<title>TokenName&#45;&gt;getState</title>
<path fill="none" stroke="indigo" d="M1599.56,-551.72C1579.65,-512.64 1532.75,-420.6 1509.28,-374.53"/>
<polygon fill="indigo" stroke="indigo" points="1512.3,-372.75 1504.64,-365.43 1506.06,-375.93 1512.3,-372.75"/>
</g>
<!-- Initialize&#45;&gt;getState -->
<g id="edge46" class="edge">
<title>Initialize&#45;&gt;getState</title>
<path fill="none" stroke="indigo" d="M90.53,-803.74C295.91,-737 1227.81,-434.21 1448.45,-362.52"/>
<polygon fill="indigo" stroke="indigo" points="1449.68,-365.8 1458.11,-359.38 1447.52,-359.14 1449.68,-365.8"/>
</g>
<!-- putState -->
<g id="node16" class="node">
<title>putState</title>
<path fill="lightyellow" stroke="red" d="M1520.88,-1304.3C1520.88,-1304.3 1469.9,-1304.3 1469.9,-1304.3 1463.9,-1304.3 1457.9,-1298.3 1457.9,-1292.3 1457.9,-1292.3 1457.9,-1280.3 1457.9,-1280.3 1457.9,-1274.3 1463.9,-1268.3 1469.9,-1268.3 1469.9,-1268.3 1520.88,-1268.3 1520.88,-1268.3 1526.88,-1268.3 1532.88,-1274.3 1532.88,-1280.3 1532.88,-1280.3 1532.88,-1292.3 1532.88,-1292.3 1532.88,-1298.3 1526.88,-1304.3 1520.88,-1304.3"/>
<text text-anchor="middle" x="1495.39" y="-1280.9" font-family="Times,serif" font-size="18.00">putState</text>
</g>
<!-- Initialize&#45;&gt;putState -->
<g id="edge47" class="edge">
<title>Initialize&#45;&gt;putState</title>
<path fill="none" stroke="indigo" d="M90.53,-829.83C295.8,-896.53 1226.79,-1199.02 1448.09,-1270.93"/>
<polygon fill="indigo" stroke="indigo" points="1447.19,-1274.31 1457.78,-1274.08 1449.35,-1267.66 1447.19,-1274.31"/>
</g>
<!-- Mint -->
<g id="node18" class="node">
<title>Mint</title>
<path fill="aliceblue" stroke="blue" d="M1342.67,-1481.01C1342.67,-1481.01 1294.67,-1481.01 1294.67,-1481.01 1288.67,-1481.01 1282.67,-1475.01 1282.67,-1469.01 1282.67,-1469.01 1282.67,-1457.01 1282.67,-1457.01 1282.67,-1451.01 1288.67,-1445.01 1294.67,-1445.01 1294.67,-1445.01 1342.67,-1445.01 1342.67,-1445.01 1348.67,-1445.01 1354.67,-1451.01 1354.67,-1457.01 1354.67,-1457.01 1354.67,-1469.01 1354.67,-1469.01 1354.67,-1475.01 1348.67,-1481.01 1342.67,-1481.01"/>
<text text-anchor="middle" x="1318.67" y="-1457.61" font-family="Times,serif" font-size="18.00">Mint</text>
</g>
<!-- Initialize&#45;&gt;Mint -->
<g id="edge45" class="edge">
<title>Initialize&#45;&gt;Mint</title>
<path fill="none" stroke="indigo" d="M80.69,-834.8C249.28,-927.22 1070.95,-1346.03 1273.49,-1443"/>
<polygon fill="indigo" stroke="indigo" points="1272.13,-1446.23 1282.67,-1447.37 1275.14,-1439.91 1272.13,-1446.23"/>
</g>
<!-- CheckInitialized&#45;&gt;Initialize -->
<g id="edge71" class="edge">
<title>CheckInitialized&#45;&gt;Initialize</title>
<path fill="none" stroke="indigo" d="M589.22,-75.12C515.96,-175.96 157.16,-669.81 69.65,-790.26"/>
<polygon fill="indigo" stroke="indigo" points="66.65,-788.44 63.6,-798.58 72.31,-792.55 66.65,-788.44"/>
</g>
<!-- CheckInitialized&#45;&gt;getState -->
<g id="edge72" class="edge">
<title>CheckInitialized&#45;&gt;getState</title>
<path fill="none" stroke="indigo" d="M657.85,-75.14C820.83,-128.09 1295.91,-282.45 1447.98,-331.87"/>
<polygon fill="indigo" stroke="indigo" points="1447.35,-335.34 1457.94,-335.1 1449.51,-328.68 1447.35,-335.34"/>
</g>
<!-- Symbol -->
<g id="node5" class="node">
<title>Symbol</title>
<path fill="aliceblue" stroke="blue" d="M1342.68,-188.55C1342.68,-188.55 1294.66,-188.55 1294.66,-188.55 1288.66,-188.55 1282.66,-182.55 1282.66,-176.55 1282.66,-176.55 1282.66,-164.55 1282.66,-164.55 1282.66,-158.55 1288.66,-152.55 1294.66,-152.55 1294.66,-152.55 1342.68,-152.55 1342.68,-152.55 1348.68,-152.55 1354.68,-158.55 1354.68,-164.55 1354.68,-164.55 1354.68,-176.55 1354.68,-176.55 1354.68,-182.55 1348.68,-188.55 1342.68,-188.55"/>
<text text-anchor="middle" x="1318.67" y="-165.15" font-family="Times,serif" font-size="18.00">Symbol</text>
</g>
<!-- Symbol&#45;&gt;Initialize -->
<g id="edge4" class="edge">
<title>Symbol&#45;&gt;Initialize</title>
<path fill="none" stroke="indigo" d="M1283.09,-188.68C1103.12,-280.38 293.82,-692.74 94.73,-794.18"/>
<polygon fill="indigo" stroke="indigo" points="93.04,-791.12 85.72,-798.78 96.21,-797.36 93.04,-791.12"/>
</g>
<!-- Symbol&#45;&gt;CheckInitialized -->
<g id="edge5" class="edge">
<title>Symbol&#45;&gt;CheckInitialized</title>
<path fill="none" stroke="indigo" d="M1282.66,-164.85C1171.86,-147.3 834.27,-93.83 680.33,-69.45"/>
<polygon fill="indigo" stroke="indigo" points="680.43,-65.92 670.01,-67.82 679.34,-72.84 680.43,-65.92"/>
</g>
<!-- Symbol&#45;&gt;getState -->
<g id="edge6" class="edge">
<title>Symbol&#45;&gt;getState</title>
<path fill="none" stroke="indigo" d="M1336.92,-188.8C1368.62,-220.5 1433.91,-285.79 1470,-321.89"/>
<polygon fill="indigo" stroke="indigo" points="1467.7,-324.53 1477.24,-329.12 1472.65,-319.58 1467.7,-324.53"/>
</g>
<!-- Decimals -->
<g id="node6" class="node">
<title>Decimals</title>
<path fill="aliceblue" stroke="blue" d="M1125.97,-75.1C1125.97,-75.1 1066.03,-75.1 1066.03,-75.1 1060.03,-75.1 1054.03,-69.1 1054.03,-63.1 1054.03,-63.1 1054.03,-51.1 1054.03,-51.1 1054.03,-45.1 1060.03,-39.1 1066.03,-39.1 1066.03,-39.1 1125.97,-39.1 1125.97,-39.1 1131.97,-39.1 1137.97,-45.1 1137.97,-51.1 1137.97,-51.1 1137.97,-63.1 1137.97,-63.1 1137.97,-69.1 1131.97,-75.1 1125.97,-75.1"/>
<text text-anchor="middle" x="1096" y="-51.7" font-family="Times,serif" font-size="18.00">Decimals</text>
</g>
<!-- Decimals&#45;&gt;Initialize -->
<g id="edge7" class="edge">
<title>Decimals&#45;&gt;Initialize</title>
<path fill="none" stroke="indigo" d="M1071.18,-75.12C931.56,-176.57 244.48,-675.76 83.96,-792.39"/>
<polygon fill="indigo" stroke="indigo" points="81.46,-789.88 75.42,-798.58 85.57,-795.54 81.46,-789.88"/>
</g>
<!-- Decimals&#45;&gt;CheckInitialized -->
<g id="edge8" class="edge">
<title>Decimals&#45;&gt;CheckInitialized</title>
<path fill="none" stroke="indigo" d="M1053.91,-57.1C971.09,-57.1 785.86,-57.1 680.16,-57.1"/>
<polygon fill="indigo" stroke="indigo" points="679.87,-53.6 669.87,-57.1 679.87,-60.6 679.87,-53.6"/>
</g>
<!-- Decimals&#45;&gt;getState -->
<g id="edge9" class="edge">
<title>Decimals&#45;&gt;getState</title>
<path fill="none" stroke="indigo" d="M1120.98,-75.25C1190.04,-125.42 1383.6,-266.05 1461.89,-322.93"/>
<polygon fill="indigo" stroke="indigo" points="1460.27,-326.08 1470.41,-329.13 1464.38,-320.42 1460.27,-326.08"/>
</g>
<!-- TotalSupply -->
<g id="node7" class="node">
<title>TotalSupply</title>
<path fill="aliceblue" stroke="blue" d="M889.66,-36C889.66,-36 808.66,-36 808.66,-36 802.66,-36 796.66,-30 796.66,-24 796.66,-24 796.66,-12 796.66,-12 796.66,-6 802.66,0 808.66,0 808.66,0 889.66,0 889.66,0 895.66,0 901.66,-6 901.66,-12 901.66,-12 901.66,-24 901.66,-24 901.66,-30 895.66,-36 889.66,-36"/>
<text text-anchor="middle" x="849.16" y="-12.6" font-family="Times,serif" font-size="18.00">TotalSupply</text>
</g>
<!-- TotalSupply&#45;&gt;Initialize -->
<g id="edge11" class="edge">
<title>TotalSupply&#45;&gt;Initialize</title>
<path fill="none" stroke="indigo" d="M830.98,-36.18C726,-141.16 197.93,-669.23 75.67,-791.49"/>
<polygon fill="indigo" stroke="indigo" points="73.13,-789.08 68.53,-798.63 78.08,-794.03 73.13,-789.08"/>
</g>
<!-- TotalSupply&#45;&gt;CheckInitialized -->
<g id="edge12" class="edge">
<title>TotalSupply&#45;&gt;CheckInitialized</title>
<path fill="none" stroke="indigo" d="M796.51,-26.34C762.59,-31.71 717.89,-38.79 679.93,-44.8"/>
<polygon fill="indigo" stroke="indigo" points="679.26,-41.37 669.93,-46.39 680.35,-48.28 679.26,-41.37"/>
</g>
<!-- TotalSupply&#45;&gt;getState -->
<g id="edge13" class="edge">
<title>TotalSupply&#45;&gt;getState</title>
<path fill="none" stroke="indigo" d="M884.82,-36.17C994.94,-92.28 1329.42,-262.71 1450.79,-324.55"/>
<polygon fill="indigo" stroke="indigo" points="1449.34,-327.73 1459.83,-329.15 1452.51,-321.5 1449.34,-327.73"/>
</g>
<!-- BalanceOf -->
<g id="node8" class="node">
<title>BalanceOf</title>
<path fill="aliceblue" stroke="blue" d="M414.1,-188.55C414.1,-188.55 345.19,-188.55 345.19,-188.55 339.19,-188.55 333.19,-182.55 333.19,-176.55 333.19,-176.55 333.19,-164.55 333.19,-164.55 333.19,-158.55 339.19,-152.55 345.19,-152.55 345.19,-152.55 414.1,-152.55 414.1,-152.55 420.1,-152.55 426.1,-158.55 426.1,-164.55 426.1,-164.55 426.1,-176.55 426.1,-176.55 426.1,-182.55 420.1,-188.55 414.1,-188.55"/>
<text text-anchor="middle" x="379.65" y="-165.15" font-family="Times,serif" font-size="18.00">BalanceOf</text>
</g>
<!-- TotalSupply&#45;&gt;BalanceOf -->
<g id="edge10" class="edge">
<title>TotalSupply&#45;&gt;BalanceOf</title>
<path fill="none" stroke="indigo" d="M796.21,-35.2C707.01,-64.19 527.57,-122.49 436.08,-152.22"/>
<polygon fill="indigo" stroke="indigo" points="434.87,-148.93 426.44,-155.35 437.03,-155.59 434.87,-148.93"/>
</g>
<!-- BalanceOf&#45;&gt;Initialize -->
<g id="edge15" class="edge">
<title>BalanceOf&#45;&gt;Initialize</title>
<path fill="none" stroke="indigo" d="M370.32,-188.85C324.1,-279.57 119.54,-681.04 64.21,-789.63"/>
<polygon fill="indigo" stroke="indigo" points="61.04,-788.14 59.62,-798.64 67.28,-791.32 61.04,-788.14"/>
</g>
<!-- BalanceOf&#45;&gt;CheckInitialized -->
<g id="edge17" class="edge">
<title>BalanceOf&#45;&gt;CheckInitialized</title>
<path fill="none" stroke="indigo" d="M415.42,-152.32C454.06,-132.64 515.67,-101.25 557.5,-79.93"/>
<polygon fill="indigo" stroke="indigo" points="559.31,-82.94 566.63,-75.28 556.14,-76.7 559.31,-82.94"/>
</g>
<!-- BalanceOf&#45;&gt;getState -->
<g id="edge18" class="edge">
<title>BalanceOf&#45;&gt;getState</title>
<path fill="none" stroke="indigo" d="M426.17,-177.92C607.52,-206.65 1266,-310.94 1448.31,-339.81"/>
<polygon fill="indigo" stroke="indigo" points="1447.96,-343.3 1458.39,-341.41 1449.06,-336.39 1447.96,-343.3"/>
</g>
<!-- Transfer -->
<g id="node9" class="node">
<title>Transfer</title>
<path fill="aliceblue" stroke="blue" d="M406.1,-1481.01C406.1,-1481.01 353.19,-1481.01 353.19,-1481.01 347.19,-1481.01 341.19,-1475.01 341.19,-1469.01 341.19,-1469.01 341.19,-1457.01 341.19,-1457.01 341.19,-1451.01 347.19,-1445.01 353.19,-1445.01 353.19,-1445.01 406.1,-1445.01 406.1,-1445.01 412.1,-1445.01 418.1,-1451.01 418.1,-1457.01 418.1,-1457.01 418.1,-1469.01 418.1,-1469.01 418.1,-1475.01 412.1,-1481.01 406.1,-1481.01"/>
<text text-anchor="middle" x="379.65" y="-1457.61" font-family="Times,serif" font-size="18.00">Transfer</text>
</g>
<!-- BalanceOf&#45;&gt;Transfer -->
<g id="edge14" class="edge">
<title>BalanceOf&#45;&gt;Transfer</title>
<path fill="none" stroke="indigo" d="M379.65,-188.82C379.65,-331.05 379.65,-1260.22 379.65,-1434.77"/>
<polygon fill="indigo" stroke="indigo" points="376.15,-1434.95 379.65,-1444.95 383.15,-1434.95 376.15,-1434.95"/>
</g>
<!-- ClientAccountID -->
<g id="node10" class="node">
<title>ClientAccountID</title>
<path fill="aliceblue" stroke="blue" d="M260.9,-365.27C260.9,-365.27 144.97,-365.27 144.97,-365.27 138.97,-365.27 132.97,-359.27 132.97,-353.27 132.97,-353.27 132.97,-341.27 132.97,-341.27 132.97,-335.27 138.97,-329.27 144.97,-329.27 144.97,-329.27 260.9,-329.27 260.9,-329.27 266.9,-329.27 272.9,-335.27 272.9,-341.27 272.9,-341.27 272.9,-353.27 272.9,-353.27 272.9,-359.27 266.9,-365.27 260.9,-365.27"/>
<text text-anchor="middle" x="202.93" y="-341.87" font-family="Times,serif" font-size="18.00">ClientAccountID</text>
</g>
<!-- BalanceOf&#45;&gt;ClientAccountID -->
<g id="edge16" class="edge">
<title>BalanceOf&#45;&gt;ClientAccountID</title>
<path fill="none" stroke="indigo" d="M361.4,-188.8C329.7,-220.5 264.41,-285.79 228.32,-321.89"/>
<polygon fill="indigo" stroke="indigo" points="225.67,-319.58 221.08,-329.12 230.62,-324.53 225.67,-319.58"/>
</g>
<!-- createCompositeKey -->
<g id="node11" class="node">
<title>createCompositeKey</title>
<path fill="lightyellow" stroke="red" d="M920.6,-1633.57C920.6,-1633.57 777.72,-1633.57 777.72,-1633.57 771.72,-1633.57 765.72,-1627.57 765.72,-1621.57 765.72,-1621.57 765.72,-1609.57 765.72,-1609.57 765.72,-1603.57 771.72,-1597.57 777.72,-1597.57 777.72,-1597.57 920.6,-1597.57 920.6,-1597.57 926.6,-1597.57 932.6,-1603.57 932.6,-1609.57 932.6,-1609.57 932.6,-1621.57 932.6,-1621.57 932.6,-1627.57 926.6,-1633.57 920.6,-1633.57"/>
<text text-anchor="middle" x="849.16" y="-1610.17" font-family="Times,serif" font-size="18.00">createCompositeKey</text>
</g>
<!-- BalanceOf&#45;&gt;createCompositeKey -->
<g id="edge19" class="edge">
<title>BalanceOf&#45;&gt;createCompositeKey</title>
<path fill="none" stroke="indigo" d="M385.5,-188.56C434.73,-340.07 779.42,-1400.93 840.06,-1587.56"/>
<polygon fill="indigo" stroke="indigo" points="836.77,-1588.77 843.19,-1597.2 843.43,-1586.6 836.77,-1588.77"/>
</g>
<!-- Transfer&#45;&gt;Initialize -->
<g id="edge21" class="edge">
<title>Transfer&#45;&gt;Initialize</title>
<path fill="none" stroke="indigo" d="M370.32,-1444.71C324.1,-1353.99 119.54,-952.52 64.21,-843.94"/>
<polygon fill="indigo" stroke="indigo" points="67.28,-842.24 59.62,-834.92 61.04,-845.42 67.28,-842.24"/>
</g>
<!-- Transfer&#45;&gt;CheckInitialized -->
<g id="edge22" class="edge">
<title>Transfer&#45;&gt;CheckInitialized</title>
<path fill="none" stroke="indigo" d="M382.5,-1444.98C406.1,-1296.01 568.65,-269.72 597.84,-85.41"/>
<polygon fill="indigo" stroke="indigo" points="601.31,-85.84 599.42,-75.41 594.4,-84.74 601.31,-85.84"/>
</g>
<!-- _transfer -->
<g id="node12" class="node">
<title>_transfer</title>
<path fill="aliceblue" stroke="blue" d="M630.28,-1594.47C630.28,-1594.47 574.36,-1594.47 574.36,-1594.47 568.36,-1594.47 562.36,-1588.47 562.36,-1582.47 562.36,-1582.47 562.36,-1570.47 562.36,-1570.47 562.36,-1564.47 568.36,-1558.47 574.36,-1558.47 574.36,-1558.47 630.28,-1558.47 630.28,-1558.47 636.28,-1558.47 642.28,-1564.47 642.28,-1570.47 642.28,-1570.47 642.28,-1582.47 642.28,-1582.47 642.28,-1588.47 636.28,-1594.47 630.28,-1594.47"/>
<text text-anchor="middle" x="602.32" y="-1571.07" font-family="Times,serif" font-size="18.00">_transfer</text>
</g>
<!-- Transfer&#45;&gt;_transfer -->
<g id="edge20" class="edge">
<title>Transfer&#45;&gt;_transfer</title>
<path fill="none" stroke="indigo" d="M415.42,-1481.24C454.06,-1500.92 515.67,-1532.32 557.5,-1553.63"/>
<polygon fill="indigo" stroke="indigo" points="556.14,-1556.86 566.63,-1558.29 559.31,-1550.63 556.14,-1556.86"/>
</g>
<!-- setEvent -->
<g id="node13" class="node">
<title>setEvent</title>
<path fill="lightyellow" stroke="red" d="M1635.83,-1081.62C1635.83,-1081.62 1581.87,-1081.62 1581.87,-1081.62 1575.87,-1081.62 1569.87,-1075.62 1569.87,-1069.62 1569.87,-1069.62 1569.87,-1057.62 1569.87,-1057.62 1569.87,-1051.62 1575.87,-1045.62 1581.87,-1045.62 1581.87,-1045.62 1635.83,-1045.62 1635.83,-1045.62 1641.83,-1045.62 1647.83,-1051.62 1647.83,-1057.62 1647.83,-1057.62 1647.83,-1069.62 1647.83,-1069.62 1647.83,-1075.62 1641.83,-1081.62 1635.83,-1081.62"/>
<text text-anchor="middle" x="1608.85" y="-1058.22" font-family="Times,serif" font-size="18.00">setEvent</text>
</g>
<!-- Transfer&#45;&gt;setEvent -->
<g id="edge23" class="edge">
<title>Transfer&#45;&gt;setEvent</title>
<path fill="none" stroke="indigo" d="M418.12,-1450.51C598.38,-1391.94 1359.01,-1144.8 1559.98,-1079.5"/>
<polygon fill="indigo" stroke="indigo" points="1561.24,-1082.77 1569.67,-1076.35 1559.08,-1076.11 1561.24,-1082.77"/>
</g>
<!-- ClientAccountID&#45;&gt;Initialize -->
<g id="edge69" class="edge">
<title>ClientAccountID&#45;&gt;Initialize</title>
<path fill="none" stroke="indigo" d="M197.04,-365.39C173.71,-437.21 87.6,-702.21 59.39,-789.04"/>
<polygon fill="indigo" stroke="indigo" points="56.01,-788.13 56.25,-798.72 62.67,-790.29 56.01,-788.13"/>
</g>
<!-- ClientAccountID&#45;&gt;CheckInitialized -->
<g id="edge70" class="edge">
<title>ClientAccountID&#45;&gt;CheckInitialized</title>
<path fill="none" stroke="indigo" d="M227.91,-329.12C296.98,-278.94 490.53,-138.32 568.82,-81.43"/>
<polygon fill="indigo" stroke="indigo" points="571.32,-83.95 577.35,-75.24 567.2,-78.29 571.32,-83.95"/>
</g>
<!-- _transfer&#45;&gt;getState -->
<g id="edge33" class="edge">
<title>_transfer&#45;&gt;getState</title>
<path fill="none" stroke="indigo" d="M615.64,-1558.14C716.26,-1419.66 1356.23,-538.81 1476.07,-373.86"/>
<polygon fill="indigo" stroke="indigo" points="1478.95,-375.85 1481.99,-365.71 1473.28,-371.74 1478.95,-375.85"/>
</g>
<!-- _transfer&#45;&gt;createCompositeKey -->
<g id="edge34" class="edge">
<title>_transfer&#45;&gt;createCompositeKey</title>
<path fill="none" stroke="indigo" d="M642.53,-1582.84C673,-1587.67 716.15,-1594.5 755.13,-1600.67"/>
<polygon fill="indigo" stroke="indigo" points="755.05,-1604.2 765.47,-1602.31 756.14,-1597.29 755.05,-1604.2"/>
</g>
<!-- _transfer&#45;&gt;putState -->
<g id="edge35" class="edge">
<title>_transfer&#45;&gt;putState</title>
<path fill="none" stroke="indigo" d="M642.43,-1563.44C788.23,-1516.07 1289.79,-1353.1 1447.52,-1301.85"/>
<polygon fill="indigo" stroke="indigo" points="1448.97,-1305.06 1457.4,-1298.64 1446.81,-1298.4 1448.97,-1305.06"/>
</g>
<!-- TransferFrom -->
<g id="node14" class="node">
<title>TransferFrom</title>
<path fill="aliceblue" stroke="blue" d="M248.89,-1304.3C248.89,-1304.3 156.98,-1304.3 156.98,-1304.3 150.98,-1304.3 144.98,-1298.3 144.98,-1292.3 144.98,-1292.3 144.98,-1280.3 144.98,-1280.3 144.98,-1274.3 150.98,-1268.3 156.98,-1268.3 156.98,-1268.3 248.89,-1268.3 248.89,-1268.3 254.89,-1268.3 260.89,-1274.3 260.89,-1280.3 260.89,-1280.3 260.89,-1292.3 260.89,-1292.3 260.89,-1298.3 254.89,-1304.3 248.89,-1304.3"/>
<text text-anchor="middle" x="202.93" y="-1280.9" font-family="Times,serif" font-size="18.00">TransferFrom</text>
</g>
<!-- TransferFrom&#45;&gt;Initialize -->
<g id="edge27" class="edge">
<title>TransferFrom&#45;&gt;Initialize</title>
<path fill="none" stroke="indigo" d="M197.04,-1268.18C173.71,-1196.36 87.6,-931.35 59.39,-844.53"/>
<polygon fill="indigo" stroke="indigo" points="62.67,-843.28 56.25,-834.85 56.01,-845.44 62.67,-843.28"/>
</g>
<!-- TransferFrom&#45;&gt;CheckInitialized -->
<g id="edge28" class="edge">
<title>TransferFrom&#45;&gt;CheckInitialized</title>
<path fill="none" stroke="indigo" d="M208.89,-1267.97C253.75,-1129.89 538.38,-253.88 593.2,-85.18"/>
<polygon fill="indigo" stroke="indigo" points="596.57,-86.12 596.33,-75.53 589.91,-83.96 596.57,-86.12"/>
</g>
<!-- TransferFrom&#45;&gt;getState -->
<g id="edge29" class="edge">
<title>TransferFrom&#45;&gt;getState</title>
<path fill="none" stroke="indigo" d="M227.88,-1268.17C388.75,-1151.29 1278.79,-504.64 1462.29,-371.32"/>
<polygon fill="indigo" stroke="indigo" points="1464.46,-374.07 1470.49,-365.36 1460.34,-368.41 1464.46,-374.07"/>
</g>
<!-- TransferFrom&#45;&gt;Transfer -->
<g id="edge24" class="edge">
<title>TransferFrom&#45;&gt;Transfer</title>
<path fill="none" stroke="indigo" d="M221.18,-1304.54C252.87,-1336.24 318.17,-1401.53 354.26,-1437.63"/>
<polygon fill="indigo" stroke="indigo" points="351.95,-1440.27 361.5,-1444.86 356.9,-1435.32 351.95,-1440.27"/>
</g>
<!-- TransferFrom&#45;&gt;createCompositeKey -->
<g id="edge30" class="edge">
<title>TransferFrom&#45;&gt;createCompositeKey</title>
<path fill="none" stroke="indigo" d="M238.6,-1304.47C348.71,-1360.57 683.2,-1531 804.56,-1592.84"/>
<polygon fill="indigo" stroke="indigo" points="803.11,-1596.03 813.61,-1597.45 806.28,-1589.79 803.11,-1596.03"/>
</g>
<!-- TransferFrom&#45;&gt;_transfer -->
<g id="edge25" class="edge">
<title>TransferFrom&#45;&gt;_transfer</title>
<path fill="none" stroke="indigo" d="M227.91,-1304.45C296.98,-1354.62 490.53,-1495.25 568.82,-1552.13"/>
<polygon fill="indigo" stroke="indigo" points="567.2,-1555.28 577.35,-1558.33 571.32,-1549.62 567.2,-1555.28"/>
</g>
<!-- TransferFrom&#45;&gt;setEvent -->
<g id="edge31" class="edge">
<title>TransferFrom&#45;&gt;setEvent</title>
<path fill="none" stroke="indigo" d="M261.11,-1277.08C492.45,-1240.44 1345.04,-1105.4 1559.59,-1071.42"/>
<polygon fill="indigo" stroke="indigo" points="1560.28,-1074.86 1569.61,-1069.83 1559.19,-1067.94 1560.28,-1074.86"/>
</g>
<!-- Allowance -->
<g id="node15" class="node">
<title>Allowance</title>
<path fill="aliceblue" stroke="blue" d="M124.44,-1081.62C124.44,-1081.62 54.51,-1081.62 54.51,-1081.62 48.51,-1081.62 42.51,-1075.62 42.51,-1069.62 42.51,-1069.62 42.51,-1057.62 42.51,-1057.62 42.51,-1051.62 48.51,-1045.62 54.51,-1045.62 54.51,-1045.62 124.44,-1045.62 124.44,-1045.62 130.44,-1045.62 136.44,-1051.62 136.44,-1057.62 136.44,-1057.62 136.44,-1069.62 136.44,-1069.62 136.44,-1075.62 130.44,-1081.62 124.44,-1081.62"/>
<text text-anchor="middle" x="89.47" y="-1058.22" font-family="Times,serif" font-size="18.00">Allowance</text>
</g>
<!-- TransferFrom&#45;&gt;Allowance -->
<g id="edge26" class="edge">
<title>TransferFrom&#45;&gt;Allowance</title>
<path fill="none" stroke="indigo" d="M193.65,-1268.07C173.73,-1228.99 126.83,-1136.95 103.36,-1090.88"/>
<polygon fill="indigo" stroke="indigo" points="106.38,-1089.1 98.73,-1081.78 100.15,-1092.28 106.38,-1089.1"/>
</g>
<!-- TransferFrom&#45;&gt;putState -->
<g id="edge32" class="edge">
<title>TransferFrom&#45;&gt;putState</title>
<path fill="none" stroke="indigo" d="M260.98,-1286.3C479.09,-1286.3 1247.39,-1286.3 1447.47,-1286.3"/>
<polygon fill="indigo" stroke="indigo" points="1447.65,-1289.8 1457.65,-1286.3 1447.65,-1282.8 1447.65,-1289.8"/>
</g>
<!-- Allowance&#45;&gt;Initialize -->
<g id="edge41" class="edge">
<title>Allowance&#45;&gt;Initialize</title>
<path fill="none" stroke="indigo" d="M86.6,-1045.47C79.85,-1002.85 62.95,-896.14 54.84,-844.99"/>
<polygon fill="indigo" stroke="indigo" points="58.28,-844.29 53.26,-834.96 51.36,-845.38 58.28,-844.29"/>
</g>
<!-- Allowance&#45;&gt;CheckInitialized -->
<g id="edge42" class="edge">
<title>Allowance&#45;&gt;CheckInitialized</title>
<path fill="none" stroke="indigo" d="M98.81,-1045.29C160.85,-923.53 513.29,-231.84 588.29,-84.64"/>
<polygon fill="indigo" stroke="indigo" points="591.59,-85.87 593.01,-75.37 585.35,-82.69 591.59,-85.87"/>
</g>
<!-- Allowance&#45;&gt;getState -->
<g id="edge43" class="edge">
<title>Allowance&#45;&gt;getState</title>
<path fill="none" stroke="indigo" d="M124.93,-1045.55C317.54,-947.41 1237.29,-478.78 1450.97,-369.9"/>
<polygon fill="indigo" stroke="indigo" points="1452.71,-372.95 1460.03,-365.29 1449.53,-366.71 1452.71,-372.95"/>
</g>
<!-- Allowance&#45;&gt;createCompositeKey -->
<g id="edge44" class="edge">
<title>Allowance&#45;&gt;createCompositeKey</title>
<path fill="none" stroke="indigo" d="M114.32,-1081.67C226.68,-1163.31 687.41,-1498.05 815.81,-1591.33"/>
<polygon fill="indigo" stroke="indigo" points="813.97,-1594.33 824.12,-1597.37 818.09,-1588.66 813.97,-1594.33"/>
</g>
<!-- Approve -->
<g id="node17" class="node">
<title>Approve</title>
<path fill="aliceblue" stroke="blue" d="M1675.42,-834.78C1675.42,-834.78 1620.47,-834.78 1620.47,-834.78 1614.47,-834.78 1608.47,-828.78 1608.47,-822.78 1608.47,-822.78 1608.47,-810.78 1608.47,-810.78 1608.47,-804.78 1614.47,-798.78 1620.47,-798.78 1620.47,-798.78 1675.42,-798.78 1675.42,-798.78 1681.42,-798.78 1687.42,-804.78 1687.42,-810.78 1687.42,-810.78 1687.42,-822.78 1687.42,-822.78 1687.42,-828.78 1681.42,-834.78 1675.42,-834.78"/>
<text text-anchor="middle" x="1647.94" y="-811.38" font-family="Times,serif" font-size="18.00">Approve</text>
</g>
<!-- Approve&#45;&gt;Initialize -->
<g id="edge36" class="edge">
<title>Approve&#45;&gt;Initialize</title>
<path fill="none" stroke="indigo" d="M1608.45,-816.78C1391.37,-816.78 344.25,-816.78 100.95,-816.78"/>
<polygon fill="indigo" stroke="indigo" points="100.64,-813.28 90.64,-816.78 100.64,-820.28 100.64,-813.28"/>
</g>
<!-- Approve&#45;&gt;CheckInitialized -->
<g id="edge37" class="edge">
<title>Approve&#45;&gt;CheckInitialized</title>
<path fill="none" stroke="indigo" d="M1623.13,-798.75C1483.51,-697.31 796.42,-198.12 635.9,-81.49"/>
<polygon fill="indigo" stroke="indigo" points="637.52,-78.34 627.37,-75.29 633.4,-84 637.52,-78.34"/>
</g>
<!-- Approve&#45;&gt;createCompositeKey -->
<g id="edge38" class="edge">
<title>Approve&#45;&gt;createCompositeKey</title>
<path fill="none" stroke="indigo" d="M1629.76,-834.97C1524.78,-939.94 996.71,-1468.02 874.45,-1590.27"/>
<polygon fill="indigo" stroke="indigo" points="871.91,-1587.86 867.32,-1597.41 876.86,-1592.81 871.91,-1587.86"/>
</g>
<!-- Approve&#45;&gt;setEvent -->
<g id="edge39" class="edge">
<title>Approve&#45;&gt;setEvent</title>
<path fill="none" stroke="indigo" d="M1645.07,-834.93C1638.32,-877.55 1621.42,-984.26 1613.31,-1035.41"/>
<polygon fill="indigo" stroke="indigo" points="1609.83,-1035.02 1611.73,-1045.44 1616.75,-1036.11 1609.83,-1035.02"/>
</g>
<!-- Approve&#45;&gt;putState -->
<g id="edge40" class="edge">
<title>Approve&#45;&gt;putState</title>
<path fill="none" stroke="indigo" d="M1642.06,-834.9C1618.72,-906.72 1532.61,-1171.73 1504.4,-1258.55"/>
<polygon fill="indigo" stroke="indigo" points="1501.02,-1257.64 1501.26,-1268.23 1507.68,-1259.8 1501.02,-1257.64"/>
</g>
<!-- Mint&#45;&gt;Initialize -->
<g id="edge49" class="edge">
<title>Mint&#45;&gt;Initialize</title>
<path fill="none" stroke="indigo" d="M1288.36,-1444.99C1120.89,-1353.19 308.97,-939.31 99.67,-838.77"/>
<polygon fill="indigo" stroke="indigo" points="100.98,-835.52 90.45,-834.36 97.96,-841.83 100.98,-835.52"/>
</g>
<!-- Mint&#45;&gt;CheckInitialized -->
<g id="edge51" class="edge">
<title>Mint&#45;&gt;CheckInitialized</title>
<path fill="none" stroke="indigo" d="M1309.48,-1444.98C1233.47,-1295.79 709.1,-266.65 616.33,-84.59"/>
<polygon fill="indigo" stroke="indigo" points="619.31,-82.73 611.66,-75.41 613.08,-85.91 619.31,-82.73"/>
</g>
<!-- Mint&#45;&gt;getState -->
<g id="edge52" class="edge">
<title>Mint&#45;&gt;getState</title>
<path fill="none" stroke="indigo" d="M1321.59,-1444.58C1342.21,-1314.4 1465.77,-534.26 1490.92,-375.47"/>
<polygon fill="indigo" stroke="indigo" points="1494.39,-375.95 1492.5,-365.52 1487.48,-374.85 1494.39,-375.95"/>
</g>
<!-- Mint&#45;&gt;Transfer -->
<g id="edge48" class="edge">
<title>Mint&#45;&gt;Transfer</title>
<path fill="none" stroke="indigo" d="M1282.44,-1463.01C1136.99,-1463.01 595.42,-1463.01 428.77,-1463.01"/>
<polygon fill="indigo" stroke="indigo" points="428.34,-1459.51 418.34,-1463.01 428.34,-1466.51 428.34,-1459.51"/>
</g>
<!-- Mint&#45;&gt;createCompositeKey -->
<g id="edge53" class="edge">
<title>Mint&#45;&gt;createCompositeKey</title>
<path fill="none" stroke="indigo" d="M1282.61,-1474.73C1203.75,-1500.35 1014.99,-1561.68 914.58,-1594.31"/>
<polygon fill="indigo" stroke="indigo" points="913.28,-1591.05 904.85,-1597.47 915.44,-1597.71 913.28,-1591.05"/>
</g>
<!-- Mint&#45;&gt;setEvent -->
<g id="edge54" class="edge">
<title>Mint&#45;&gt;setEvent</title>
<path fill="none" stroke="indigo" d="M1331.89,-1444.81C1378.35,-1380.88 1534.23,-1166.33 1589.34,-1090.47"/>
<polygon fill="indigo" stroke="indigo" points="1592.5,-1092.07 1595.55,-1081.93 1586.84,-1087.96 1592.5,-1092.07"/>
</g>
<!-- Mint&#45;&gt;putState -->
<g id="edge55" class="edge">
<title>Mint&#45;&gt;putState</title>
<path fill="none" stroke="indigo" d="M1336.92,-1444.77C1368.62,-1413.07 1433.91,-1347.78 1470,-1311.68"/>
<polygon fill="indigo" stroke="indigo" points="1472.65,-1313.99 1477.24,-1304.44 1467.7,-1309.04 1472.65,-1313.99"/>
</g>
<!-- Burn -->
<g id="node19" class="node">
<title>Burn</title>
<path fill="aliceblue" stroke="blue" d="M1120,-1594.47C1120,-1594.47 1072,-1594.47 1072,-1594.47 1066,-1594.47 1060,-1588.47 1060,-1582.47 1060,-1582.47 1060,-1570.47 1060,-1570.47 1060,-1564.47 1066,-1558.47 1072,-1558.47 1072,-1558.47 1120,-1558.47 1120,-1558.47 1126,-1558.47 1132,-1564.47 1132,-1570.47 1132,-1570.47 1132,-1582.47 1132,-1582.47 1132,-1588.47 1126,-1594.47 1120,-1594.47"/>
<text text-anchor="middle" x="1096" y="-1571.07" font-family="Times,serif" font-size="18.00">Burn</text>
</g>
<!-- Mint&#45;&gt;Burn -->
<g id="edge50" class="edge">
<title>Mint&#45;&gt;Burn</title>
<path fill="none" stroke="indigo" d="M1282.9,-1481.24C1244.26,-1500.92 1182.65,-1532.32 1140.82,-1553.63"/>
<polygon fill="indigo" stroke="indigo" points="1139.01,-1550.63 1131.69,-1558.29 1142.18,-1556.86 1139.01,-1550.63"/>
</g>
<!-- Burn&#45;&gt;Initialize -->
<g id="edge57" class="edge">
<title>Burn&#45;&gt;Initialize</title>
<path fill="none" stroke="indigo" d="M1071.18,-1558.44C931.56,-1457 244.48,-957.8 83.96,-841.18"/>
<polygon fill="indigo" stroke="indigo" points="85.57,-838.03 75.42,-834.98 81.46,-843.69 85.57,-838.03"/>
</g>
<!-- Burn&#45;&gt;CheckInitialized -->
<g id="edge59" class="edge">
<title>Burn&#45;&gt;CheckInitialized</title>
<path fill="none" stroke="indigo" d="M1090.11,-1558.35C1039.18,-1401.61 673.59,-276.45 611.33,-84.81"/>
<polygon fill="indigo" stroke="indigo" points="614.62,-83.62 608.2,-75.19 607.96,-85.79 614.62,-83.62"/>
</g>
<!-- Burn&#45;&gt;getState -->
<g id="edge60" class="edge">
<title>Burn&#45;&gt;getState</title>
<path fill="none" stroke="indigo" d="M1101.95,-1558.14C1146.82,-1420.07 1431.45,-544.06 1486.26,-375.36"/>
<polygon fill="indigo" stroke="indigo" points="1489.64,-376.3 1489.4,-365.71 1482.98,-374.13 1489.64,-376.3"/>
</g>
<!-- Burn&#45;&gt;Transfer -->
<g id="edge56" class="edge">
<title>Burn&#45;&gt;Transfer</title>
<path fill="none" stroke="indigo" d="M1059.98,-1570.77C941.5,-1552 563.67,-1492.16 428.4,-1470.73"/>
<polygon fill="indigo" stroke="indigo" points="428.75,-1467.25 418.33,-1469.14 427.66,-1474.16 428.75,-1467.25"/>
</g>
<!-- Burn&#45;&gt;createCompositeKey -->
<g id="edge61" class="edge">
<title>Burn&#45;&gt;createCompositeKey</title>
<path fill="none" stroke="indigo" d="M1059.84,-1582.2C1029.1,-1587.07 983.57,-1594.28 942.69,-1600.75"/>
<polygon fill="indigo" stroke="indigo" points="942.02,-1597.31 932.69,-1602.34 943.11,-1604.23 942.02,-1597.31"/>
</g>
<!-- Burn&#45;&gt;setEvent -->
<g id="edge62" class="edge">
<title>Burn&#45;&gt;setEvent</title>
<path fill="none" stroke="indigo" d="M1114.25,-1558.22C1191.75,-1480.72 1493.7,-1178.77 1583.51,-1088.96"/>
<polygon fill="indigo" stroke="indigo" points="1586.22,-1091.2 1590.81,-1081.65 1581.27,-1086.25 1586.22,-1091.2"/>
</g>
<!-- Burn&#45;&gt;putState -->
<g id="edge63" class="edge">
<title>Burn&#45;&gt;putState</title>
<path fill="none" stroke="indigo" d="M1120.98,-1558.32C1190.04,-1508.14 1383.6,-1367.52 1461.89,-1310.63"/>
<polygon fill="indigo" stroke="indigo" points="1464.38,-1313.15 1470.41,-1304.44 1460.27,-1307.49 1464.38,-1313.15"/>
</g>
<!-- ClientAccountBalance -->
<g id="node20" class="node">
<title>ClientAccountBalance</title>
<path fill="aliceblue" stroke="blue" d="M166.92,-587.95C166.92,-587.95 12.03,-587.95 12.03,-587.95 6.03,-587.95 0.03,-581.95 0.03,-575.95 0.03,-575.95 0.03,-563.95 0.03,-563.95 0.03,-557.95 6.03,-551.95 12.03,-551.95 12.03,-551.95 166.92,-551.95 166.92,-551.95 172.92,-551.95 178.92,-557.95 178.92,-563.95 178.92,-563.95 178.92,-575.95 178.92,-575.95 178.92,-581.95 172.92,-587.95 166.92,-587.95"/>
<text text-anchor="middle" x="89.47" y="-564.55" font-family="Times,serif" font-size="18.00">ClientAccountBalance</text>
</g>
<!-- Burn&#45;&gt;ClientAccountBalance -->
<g id="edge58" class="edge">
<title>Burn&#45;&gt;ClientAccountBalance</title>
<path fill="none" stroke="indigo" d="M1077.67,-1558.14C955.3,-1435.77 257.29,-737.77 114.85,-595.33"/>
<polygon fill="indigo" stroke="indigo" points="117.29,-592.82 107.75,-588.22 112.34,-597.77 117.29,-592.82"/>
</g>
<!-- ClientAccountBalance&#45;&gt;Initialize -->
<g id="edge64" class="edge">
<title>ClientAccountBalance&#45;&gt;Initialize</title>
<path fill="none" stroke="indigo" d="M86.6,-588.1C79.85,-630.71 62.95,-737.42 54.84,-788.58"/>
<polygon fill="indigo" stroke="indigo" points="51.36,-788.18 53.26,-798.61 58.28,-789.28 51.36,-788.18"/>
</g>
<!-- ClientAccountBalance&#45;&gt;CheckInitialized -->
<g id="edge66" class="edge">
<title>ClientAccountBalance&#45;&gt;CheckInitialized</title>
<path fill="none" stroke="indigo" d="M107.73,-551.69C185.23,-474.19 487.17,-172.24 576.99,-82.43"/>
<polygon fill="indigo" stroke="indigo" points="579.69,-84.68 584.29,-75.13 574.74,-79.73 579.69,-84.68"/>
</g>
<!-- ClientAccountBalance&#45;&gt;getState -->
<g id="edge67" class="edge">
<title>ClientAccountBalance&#45;&gt;getState</title>
<path fill="none" stroke="indigo" d="M179.02,-555.76C448.48,-513.08 1245.66,-386.82 1448.18,-354.75"/>
<polygon fill="indigo" stroke="indigo" points="1448.87,-358.18 1458.2,-353.16 1447.77,-351.27 1448.87,-358.18"/>
</g>
<!-- ClientAccountBalance&#45;&gt;ClientAccountID -->
<g id="edge65" class="edge">
<title>ClientAccountBalance&#45;&gt;ClientAccountID</title>
<path fill="none" stroke="indigo" d="M98.76,-551.72C118.67,-512.64 165.57,-420.6 189.04,-374.53"/>
<polygon fill="indigo" stroke="indigo" points="192.26,-375.93 193.68,-365.43 186.02,-372.75 192.26,-375.93"/>
</g>
<!-- ClientAccountBalance&#45;&gt;createCompositeKey -->
<g id="edge68" class="edge">
<title>ClientAccountBalance&#45;&gt;createCompositeKey</title>
<path fill="none" stroke="indigo" d="M102.66,-588.09C193.16,-712.66 722.14,-1440.73 829.97,-1589.16"/>
<polygon fill="indigo" stroke="indigo" points="827.2,-1591.29 835.91,-1597.33 832.86,-1587.18 827.2,-1591.29"/>
</g>
</g>
</svg>
