<?xml version="1.0" encoding="UTF-8" standalone="no"?>
<!DOCTYPE svg PUBLIC "-//W3C//DTD SVG 1.1//EN"
 "http://www.w3.org/Graphics/SVG/1.1/DTD/svg11.dtd">
<!-- Generated by graphviz version 2.44.0 (20200518.1210)
 -->
<!-- Pages: 1 -->
<svg width="2719pt" height="2601pt"
 viewBox="0.00 0.00 2719.18 2601.01" xmlns="http://www.w3.org/2000/svg" xmlns:xlink="http://www.w3.org/1999/xlink">
<g id="graph0" class="graph" transform="scale(1 1) rotate(0) translate(4 2597.01)">
<polygon fill="white" stroke="transparent" points="-4,4 -4,-2597.01 2715.18,-2597.01 2715.18,4 -4,4"/>
<!-- BalanceOf -->
<g id="node1" class="node">
<title>BalanceOf</title>
<path fill="aliceblue" stroke="blue" d="M2313.7,-437.58C2313.7,-437.58 2244.79,-437.58 2244.79,-437.58 2238.79,-437.58 2232.79,-431.58 2232.79,-425.58 2232.79,-425.58 2232.79,-413.58 2232.79,-413.58 2232.79,-407.58 2238.79,-401.58 2244.79,-401.58 2244.79,-401.58 2313.7,-401.58 2313.7,-401.58 2319.7,-401.58 2325.7,-407.58 2325.7,-413.58 2325.7,-413.58 2325.7,-425.58 2325.7,-425.58 2325.7,-431.58 2319.7,-437.58 2313.7,-437.58"/>
<text text-anchor="middle" x="2279.25" y="-414.18" font-family="Times,serif" font-size="18.00">BalanceOf</text>
</g>
<!-- OwnerOf -->
<g id="node2" class="node">
<title>OwnerOf</title>
<path fill="aliceblue" stroke="blue" d="M104.44,-1153.95C104.44,-1153.95 44.53,-1153.95 44.53,-1153.95 38.53,-1153.95 32.53,-1147.95 32.53,-1141.95 32.53,-1141.95 32.53,-1129.95 32.53,-1129.95 32.53,-1123.95 38.53,-1117.95 44.53,-1117.95 44.53,-1117.95 104.44,-1117.95 104.44,-1117.95 110.44,-1117.95 116.44,-1123.95 116.44,-1129.95 116.44,-1129.95 116.44,-1141.95 116.44,-1141.95 116.44,-1147.95 110.44,-1153.95 104.44,-1153.95"/>
<text text-anchor="middle" x="74.48" y="-1130.55" font-family="Times,serif" font-size="18.00">OwnerOf</text>
</g>
<!-- BalanceOf&#45;&gt;OwnerOf -->
<g id="edge1" class="edge">
<title>BalanceOf&#45;&gt;OwnerOf</title>
<path fill="none" stroke="indigo" d="M2232.69,-434.71C1946.45,-527.71 427.51,-1021.24 126.39,-1119.08"/>
<polygon fill="indigo" stroke="indigo" points="125.03,-1115.84 116.6,-1122.26 127.2,-1122.5 125.03,-1115.84"/>
</g>
<!-- Initialize -->
<g id="node3" class="node">
<title>Initialize</title>
<path fill="aliceblue" stroke="blue" d="M182.31,-842.93C182.31,-842.93 126.37,-842.93 126.37,-842.93 120.37,-842.93 114.37,-836.93 114.37,-830.93 114.37,-830.93 114.37,-818.93 114.37,-818.93 114.37,-812.93 120.37,-806.93 126.37,-806.93 126.37,-806.93 182.31,-806.93 182.31,-806.93 188.31,-806.93 194.31,-812.93 194.31,-818.93 194.31,-818.93 194.31,-830.93 194.31,-830.93 194.31,-836.93 188.31,-842.93 182.31,-842.93"/>
<text text-anchor="middle" x="154.34" y="-819.53" font-family="Times,serif" font-size="18.00">Initialize</text>
</g>
<!-- BalanceOf&#45;&gt;Initialize -->
<g id="edge2" class="edge">
<title>BalanceOf&#45;&gt;Initialize</title>
<path fill="none" stroke="indigo" d="M2232.64,-428.47C1952.49,-481.91 494.69,-760 204.58,-815.34"/>
<polygon fill="indigo" stroke="indigo" points="203.53,-811.98 194.36,-817.29 204.84,-818.85 203.53,-811.98"/>
</g>
<!-- CheckInitialized -->
<g id="node4" class="node">
<title>CheckInitialized</title>
<path fill="aliceblue" stroke="blue" d="M855.44,-155.39C855.44,-155.39 744.52,-155.39 744.52,-155.39 738.52,-155.39 732.52,-149.39 732.52,-143.39 732.52,-143.39 732.52,-131.39 732.52,-131.39 732.52,-125.39 738.52,-119.39 744.52,-119.39 744.52,-119.39 855.44,-119.39 855.44,-119.39 861.44,-119.39 867.44,-125.39 867.44,-131.39 867.44,-131.39 867.44,-143.39 867.44,-143.39 867.44,-149.39 861.44,-155.39 855.44,-155.39"/>
<text text-anchor="middle" x="799.98" y="-131.99" font-family="Times,serif" font-size="18.00">CheckInitialized</text>
</g>
<!-- BalanceOf&#45;&gt;CheckInitialized -->
<g id="edge3" class="edge">
<title>BalanceOf&#45;&gt;CheckInitialized</title>
<path fill="none" stroke="indigo" d="M2232.53,-410.67C2020.16,-370.15 1144.6,-203.13 877.62,-152.2"/>
<polygon fill="indigo" stroke="indigo" points="878.1,-148.73 867.62,-150.3 876.79,-155.61 878.1,-148.73"/>
</g>
<!-- getStateByPartialCompositeKey -->
<g id="node5" class="node">
<title>getStateByPartialCompositeKey</title>
<path fill="lightyellow" stroke="red" d="M2699.16,-995.92C2699.16,-995.92 2473.24,-995.92 2473.24,-995.92 2467.24,-995.92 2461.24,-989.92 2461.24,-983.92 2461.24,-983.92 2461.24,-971.92 2461.24,-971.92 2461.24,-965.92 2467.24,-959.92 2473.24,-959.92 2473.24,-959.92 2699.16,-959.92 2699.16,-959.92 2705.16,-959.92 2711.16,-965.92 2711.16,-971.92 2711.16,-971.92 2711.16,-983.92 2711.16,-983.92 2711.16,-989.92 2705.16,-995.92 2699.16,-995.92"/>
<text text-anchor="middle" x="2586.2" y="-972.52" font-family="Times,serif" font-size="18.00">getStateByPartialCompositeKey</text>
</g>
<!-- BalanceOf&#45;&gt;getStateByPartialCompositeKey -->
<g id="edge4" class="edge">
<title>BalanceOf&#45;&gt;getStateByPartialCompositeKey</title>
<path fill="none" stroke="indigo" d="M2289.29,-437.84C2334.28,-519.69 2517.55,-853.04 2571.31,-950.84"/>
<polygon fill="indigo" stroke="indigo" points="2568.35,-952.73 2576.24,-959.8 2574.49,-949.36 2568.35,-952.73"/>
</g>
<!-- getState -->
<g id="node6" class="node">
<title>getState</title>
<path fill="lightyellow" stroke="red" d="M2056.81,-232.89C2056.81,-232.89 2006.84,-232.89 2006.84,-232.89 2000.84,-232.89 1994.84,-226.89 1994.84,-220.89 1994.84,-220.89 1994.84,-208.89 1994.84,-208.89 1994.84,-202.89 2000.84,-196.89 2006.84,-196.89 2006.84,-196.89 2056.81,-196.89 2056.81,-196.89 2062.81,-196.89 2068.81,-202.89 2068.81,-208.89 2068.81,-208.89 2068.81,-220.89 2068.81,-220.89 2068.81,-226.89 2062.81,-232.89 2056.81,-232.89"/>
<text text-anchor="middle" x="2031.83" y="-209.49" font-family="Times,serif" font-size="18.00">getState</text>
</g>
<!-- BalanceOf&#45;&gt;getState -->
<g id="edge5" class="edge">
<title>BalanceOf&#45;&gt;getState</title>
<path fill="none" stroke="indigo" d="M2257.29,-401.41C2212.81,-364.62 2112.04,-281.25 2061.66,-239.57"/>
<polygon fill="indigo" stroke="indigo" points="2063.67,-236.69 2053.73,-233.02 2059.21,-242.09 2063.67,-236.69"/>
</g>
<!-- OwnerOf&#45;&gt;Initialize -->
<g id="edge7" class="edge">
<title>OwnerOf&#45;&gt;Initialize</title>
<path fill="none" stroke="indigo" d="M79.12,-1117.88C92.46,-1065.92 131.01,-915.78 147.13,-853.02"/>
<polygon fill="indigo" stroke="indigo" points="150.59,-853.6 149.69,-843.04 143.81,-851.86 150.59,-853.6"/>
</g>
<!-- OwnerOf&#45;&gt;CheckInitialized -->
<g id="edge9" class="edge">
<title>OwnerOf&#45;&gt;CheckInitialized</title>
<path fill="none" stroke="indigo" d="M87.69,-1117.76C175.64,-996.72 676.02,-308.01 780.75,-163.85"/>
<polygon fill="indigo" stroke="indigo" points="783.76,-165.67 786.81,-155.52 778.1,-161.55 783.76,-165.67"/>
</g>
<!-- TransferFrom -->
<g id="node7" class="node">
<title>TransferFrom</title>
<path fill="aliceblue" stroke="blue" d="M1471.8,-2593.01C1471.8,-2593.01 1379.9,-2593.01 1379.9,-2593.01 1373.9,-2593.01 1367.9,-2587.01 1367.9,-2581.01 1367.9,-2581.01 1367.9,-2569.01 1367.9,-2569.01 1367.9,-2563.01 1373.9,-2557.01 1379.9,-2557.01 1379.9,-2557.01 1471.8,-2557.01 1471.8,-2557.01 1477.8,-2557.01 1483.8,-2563.01 1483.8,-2569.01 1483.8,-2569.01 1483.8,-2581.01 1483.8,-2581.01 1483.8,-2587.01 1477.8,-2593.01 1471.8,-2593.01"/>
<text text-anchor="middle" x="1425.85" y="-2569.61" font-family="Times,serif" font-size="18.00">TransferFrom</text>
</g>
<!-- OwnerOf&#45;&gt;TransferFrom -->
<g id="edge6" class="edge">
<title>OwnerOf&#45;&gt;TransferFrom</title>
<path fill="none" stroke="indigo" d="M91.57,-1154.14C234.72,-1306.59 1233.23,-2369.89 1401.73,-2549.32"/>
<polygon fill="indigo" stroke="indigo" points="1399.29,-2551.84 1408.69,-2556.73 1404.4,-2547.05 1399.29,-2551.84"/>
</g>
<!-- _readNFT -->
<g id="node8" class="node">
<title>_readNFT</title>
<path fill="aliceblue" stroke="blue" d="M342.01,-2067.48C342.01,-2067.48 276.07,-2067.48 276.07,-2067.48 270.07,-2067.48 264.07,-2061.48 264.07,-2055.48 264.07,-2055.48 264.07,-2043.48 264.07,-2043.48 264.07,-2037.48 270.07,-2031.48 276.07,-2031.48 276.07,-2031.48 342.01,-2031.48 342.01,-2031.48 348.01,-2031.48 354.01,-2037.48 354.01,-2043.48 354.01,-2043.48 354.01,-2055.48 354.01,-2055.48 354.01,-2061.48 348.01,-2067.48 342.01,-2067.48"/>
<text text-anchor="middle" x="309.04" y="-2044.08" font-family="Times,serif" font-size="18.00">_readNFT</text>
</g>
<!-- OwnerOf&#45;&gt;_readNFT -->
<g id="edge8" class="edge">
<title>OwnerOf&#45;&gt;_readNFT</title>
<path fill="none" stroke="indigo" d="M79.17,-1154.2C108.43,-1268.16 265.99,-1881.81 301.79,-2021.27"/>
<polygon fill="indigo" stroke="indigo" points="298.46,-2022.37 304.34,-2031.19 305.24,-2020.63 298.46,-2022.37"/>
</g>
<!-- Initialize&#45;&gt;getState -->
<g id="edge62" class="edge">
<title>Initialize&#45;&gt;getState</title>
<path fill="none" stroke="indigo" d="M194.42,-811.9C438.4,-732.63 1722.16,-315.51 1984.84,-230.16"/>
<polygon fill="indigo" stroke="indigo" points="1986.04,-233.45 1994.47,-227.03 1983.87,-226.79 1986.04,-233.45"/>
</g>
<!-- putState -->
<g id="node12" class="node">
<title>putState</title>
<path fill="lightyellow" stroke="red" d="M1130.87,-2572.85C1130.87,-2572.85 1079.88,-2572.85 1079.88,-2572.85 1073.88,-2572.85 1067.88,-2566.85 1067.88,-2560.85 1067.88,-2560.85 1067.88,-2548.85 1067.88,-2548.85 1067.88,-2542.85 1073.88,-2536.85 1079.88,-2536.85 1079.88,-2536.85 1130.87,-2536.85 1130.87,-2536.85 1136.87,-2536.85 1142.87,-2542.85 1142.87,-2548.85 1142.87,-2548.85 1142.87,-2560.85 1142.87,-2560.85 1142.87,-2566.85 1136.87,-2572.85 1130.87,-2572.85"/>
<text text-anchor="middle" x="1105.37" y="-2549.45" font-family="Times,serif" font-size="18.00">putState</text>
</g>
<!-- Initialize&#45;&gt;putState -->
<g id="edge61" class="edge">
<title>Initialize&#45;&gt;putState</title>
<path fill="none" stroke="indigo" d="M164.38,-843.18C257.98,-1013.45 977.25,-2321.79 1090.41,-2527.63"/>
<polygon fill="indigo" stroke="indigo" points="1087.45,-2529.51 1095.33,-2536.59 1093.58,-2526.14 1087.45,-2529.51"/>
</g>
<!-- CheckInitialized&#45;&gt;Initialize -->
<g id="edge88" class="edge">
<title>CheckInitialized&#45;&gt;Initialize</title>
<path fill="none" stroke="indigo" d="M783.04,-155.43C694.25,-249.98 282.57,-688.38 178.36,-799.35"/>
<polygon fill="indigo" stroke="indigo" points="175.69,-797.07 171.4,-806.76 180.8,-801.87 175.69,-797.07"/>
</g>
<!-- CheckInitialized&#45;&gt;getState -->
<g id="edge89" class="edge">
<title>CheckInitialized&#45;&gt;getState</title>
<path fill="none" stroke="indigo" d="M867.52,-141.64C1089.77,-155.62 1794.93,-199.99 1984.51,-211.92"/>
<polygon fill="indigo" stroke="indigo" points="1984.5,-215.42 1994.7,-212.56 1984.94,-208.44 1984.5,-215.42"/>
</g>
<!-- TransferFrom&#45;&gt;Initialize -->
<g id="edge12" class="edge">
<title>TransferFrom&#45;&gt;Initialize</title>
<path fill="none" stroke="indigo" d="M1412.64,-2556.83C1288.13,-2385.45 321.94,-1055.6 173.46,-851.25"/>
<polygon fill="indigo" stroke="indigo" points="176.29,-849.18 167.58,-843.14 170.62,-853.29 176.29,-849.18"/>
</g>
<!-- TransferFrom&#45;&gt;CheckInitialized -->
<g id="edge14" class="edge">
<title>TransferFrom&#45;&gt;CheckInitialized</title>
<path fill="none" stroke="indigo" d="M1421.17,-2556.79C1367.72,-2348.59 872.88,-421.31 807.17,-165.41"/>
<polygon fill="indigo" stroke="indigo" points="810.48,-164.24 804.61,-155.43 803.7,-165.98 810.48,-164.24"/>
</g>
<!-- TransferFrom&#45;&gt;_readNFT -->
<g id="edge13" class="edge">
<title>TransferFrom&#45;&gt;_readNFT</title>
<path fill="none" stroke="indigo" d="M1387.41,-2556.92C1218.51,-2477.44 542.48,-2159.33 356.57,-2071.84"/>
<polygon fill="indigo" stroke="indigo" points="357.86,-2068.58 347.32,-2067.49 354.88,-2074.92 357.86,-2068.58"/>
</g>
<!-- Approve -->
<g id="node9" class="node">
<title>Approve</title>
<path fill="aliceblue" stroke="blue" d="M556.33,-2301.56C556.33,-2301.56 501.38,-2301.56 501.38,-2301.56 495.38,-2301.56 489.38,-2295.56 489.38,-2289.56 489.38,-2289.56 489.38,-2277.56 489.38,-2277.56 489.38,-2271.56 495.38,-2265.56 501.38,-2265.56 501.38,-2265.56 556.33,-2265.56 556.33,-2265.56 562.33,-2265.56 568.33,-2271.56 568.33,-2277.56 568.33,-2277.56 568.33,-2289.56 568.33,-2289.56 568.33,-2295.56 562.33,-2301.56 556.33,-2301.56"/>
<text text-anchor="middle" x="528.85" y="-2278.16" font-family="Times,serif" font-size="18.00">Approve</text>
</g>
<!-- TransferFrom&#45;&gt;Approve -->
<g id="edge10" class="edge">
<title>TransferFrom&#45;&gt;Approve</title>
<path fill="none" stroke="indigo" d="M1370.42,-2557C1207.65,-2504.11 732.84,-2349.84 578.18,-2299.58"/>
<polygon fill="indigo" stroke="indigo" points="579.05,-2296.19 568.46,-2296.43 576.89,-2302.85 579.05,-2296.19"/>
</g>
<!-- IsApprovedForAll -->
<g id="node10" class="node">
<title>IsApprovedForAll</title>
<path fill="aliceblue" stroke="blue" d="M136.95,-1475.06C136.95,-1475.06 12.02,-1475.06 12.02,-1475.06 6.02,-1475.06 0.02,-1469.06 0.02,-1463.06 0.02,-1463.06 0.02,-1451.06 0.02,-1451.06 0.02,-1445.06 6.02,-1439.06 12.02,-1439.06 12.02,-1439.06 136.95,-1439.06 136.95,-1439.06 142.95,-1439.06 148.95,-1445.06 148.95,-1451.06 148.95,-1451.06 148.95,-1463.06 148.95,-1463.06 148.95,-1469.06 142.95,-1475.06 136.95,-1475.06"/>
<text text-anchor="middle" x="74.48" y="-1451.66" font-family="Times,serif" font-size="18.00">IsApprovedForAll</text>
</g>
<!-- TransferFrom&#45;&gt;IsApprovedForAll -->
<g id="edge11" class="edge">
<title>TransferFrom&#45;&gt;IsApprovedForAll</title>
<path fill="none" stroke="indigo" d="M1404.08,-2557C1246.85,-2426.93 286.16,-1632.18 104.21,-1481.65"/>
<polygon fill="indigo" stroke="indigo" points="106.32,-1478.85 96.38,-1475.17 101.85,-1484.25 106.32,-1478.85"/>
</g>
<!-- createCompositeKey -->
<g id="node11" class="node">
<title>createCompositeKey</title>
<path fill="lightyellow" stroke="red" d="M1812.72,-2532.84C1812.72,-2532.84 1669.83,-2532.84 1669.83,-2532.84 1663.83,-2532.84 1657.83,-2526.84 1657.83,-2520.84 1657.83,-2520.84 1657.83,-2508.84 1657.83,-2508.84 1657.83,-2502.84 1663.83,-2496.84 1669.83,-2496.84 1669.83,-2496.84 1812.72,-2496.84 1812.72,-2496.84 1818.72,-2496.84 1824.72,-2502.84 1824.72,-2508.84 1824.72,-2508.84 1824.72,-2520.84 1824.72,-2520.84 1824.72,-2526.84 1818.72,-2532.84 1812.72,-2532.84"/>
<text text-anchor="middle" x="1741.28" y="-2509.44" font-family="Times,serif" font-size="18.00">createCompositeKey</text>
</g>
<!-- TransferFrom&#45;&gt;createCompositeKey -->
<g id="edge15" class="edge">
<title>TransferFrom&#45;&gt;createCompositeKey</title>
<path fill="none" stroke="indigo" d="M1484.07,-2563.9C1529.89,-2555.16 1594.65,-2542.81 1647.72,-2532.68"/>
<polygon fill="indigo" stroke="indigo" points="1648.67,-2536.07 1657.83,-2530.76 1647.35,-2529.19 1648.67,-2536.07"/>
</g>
<!-- TransferFrom&#45;&gt;putState -->
<g id="edge16" class="edge">
<title>TransferFrom&#45;&gt;putState</title>
<path fill="none" stroke="indigo" d="M1367.81,-2571.36C1306.34,-2567.49 1210.43,-2561.46 1153.16,-2557.85"/>
<polygon fill="indigo" stroke="indigo" points="1153.14,-2554.34 1142.94,-2557.21 1152.7,-2561.33 1153.14,-2554.34"/>
</g>
<!-- deleteState -->
<g id="node13" class="node">
<title>deleteState</title>
<path fill="lightyellow" stroke="red" d="M2661.91,-1314.5C2661.91,-1314.5 2590.98,-1314.5 2590.98,-1314.5 2584.98,-1314.5 2578.98,-1308.5 2578.98,-1302.5 2578.98,-1302.5 2578.98,-1290.5 2578.98,-1290.5 2578.98,-1284.5 2584.98,-1278.5 2590.98,-1278.5 2590.98,-1278.5 2661.91,-1278.5 2661.91,-1278.5 2667.91,-1278.5 2673.91,-1284.5 2673.91,-1290.5 2673.91,-1290.5 2673.91,-1302.5 2673.91,-1302.5 2673.91,-1308.5 2667.91,-1314.5 2661.91,-1314.5"/>
<text text-anchor="middle" x="2626.45" y="-1291.1" font-family="Times,serif" font-size="18.00">deleteState</text>
</g>
<!-- TransferFrom&#45;&gt;deleteState -->
<g id="edge17" class="edge">
<title>TransferFrom&#45;&gt;deleteState</title>
<path fill="none" stroke="indigo" d="M1442.82,-2556.94C1575.53,-2415.62 2445.72,-1488.96 2602.32,-1322.19"/>
<polygon fill="indigo" stroke="indigo" points="2604.94,-1324.52 2609.24,-1314.83 2599.84,-1319.73 2604.94,-1324.52"/>
</g>
<!-- setEvent -->
<g id="node14" class="node">
<title>setEvent</title>
<path fill="lightyellow" stroke="red" d="M2494.97,-1931.65C2494.97,-1931.65 2441.01,-1931.65 2441.01,-1931.65 2435.01,-1931.65 2429.01,-1925.65 2429.01,-1919.65 2429.01,-1919.65 2429.01,-1907.65 2429.01,-1907.65 2429.01,-1901.65 2435.01,-1895.65 2441.01,-1895.65 2441.01,-1895.65 2494.97,-1895.65 2494.97,-1895.65 2500.97,-1895.65 2506.97,-1901.65 2506.97,-1907.65 2506.97,-1907.65 2506.97,-1919.65 2506.97,-1919.65 2506.97,-1925.65 2500.97,-1931.65 2494.97,-1931.65"/>
<text text-anchor="middle" x="2467.99" y="-1908.25" font-family="Times,serif" font-size="18.00">setEvent</text>
</g>
<!-- TransferFrom&#45;&gt;setEvent -->
<g id="edge18" class="edge">
<title>TransferFrom&#45;&gt;setEvent</title>
<path fill="none" stroke="indigo" d="M1454.27,-2556.98C1600.26,-2464.32 2265.57,-2042.11 2430.77,-1937.27"/>
<polygon fill="indigo" stroke="indigo" points="2433.03,-1939.98 2439.6,-1931.66 2429.28,-1934.07 2433.03,-1939.98"/>
</g>
<!-- _readNFT&#45;&gt;getState -->
<g id="edge78" class="edge">
<title>_readNFT&#45;&gt;getState</title>
<path fill="none" stroke="indigo" d="M326.09,-2031.32C491.79,-1854.87 1813.47,-447.42 2007.96,-240.31"/>
<polygon fill="indigo" stroke="indigo" points="2010.6,-242.61 2014.9,-232.92 2005.5,-237.81 2010.6,-242.61"/>
</g>
<!-- _readNFT&#45;&gt;createCompositeKey -->
<g id="edge77" class="edge">
<title>_readNFT&#45;&gt;createCompositeKey</title>
<path fill="none" stroke="indigo" d="M354.27,-2064.17C562.6,-2131.87 1430.1,-2413.73 1676.03,-2493.64"/>
<polygon fill="indigo" stroke="indigo" points="1674.96,-2496.97 1685.55,-2496.73 1677.12,-2490.31 1674.96,-2496.97"/>
</g>
<!-- Approve&#45;&gt;Initialize -->
<g id="edge21" class="edge">
<title>Approve&#45;&gt;Initialize</title>
<path fill="none" stroke="indigo" d="M524.19,-2265.38C484.9,-2112.36 209.66,-1040.4 161.52,-852.88"/>
<polygon fill="indigo" stroke="indigo" points="164.85,-851.79 158.97,-842.97 158.07,-853.53 164.85,-851.79"/>
</g>
<!-- Approve&#45;&gt;CheckInitialized -->
<g id="edge23" class="edge">
<title>Approve&#45;&gt;CheckInitialized</title>
<path fill="none" stroke="indigo" d="M531.16,-2265.33C555.56,-2072.18 766.24,-404.48 796.39,-165.79"/>
<polygon fill="indigo" stroke="indigo" points="799.91,-165.87 797.69,-155.51 792.96,-164.99 799.91,-165.87"/>
</g>
<!-- Approve&#45;&gt;_readNFT -->
<g id="edge22" class="edge">
<title>Approve&#45;&gt;_readNFT</title>
<path fill="none" stroke="indigo" d="M511.6,-2265.19C472.68,-2223.74 377.94,-2122.85 333.19,-2075.2"/>
<polygon fill="indigo" stroke="indigo" points="335.6,-2072.65 326.21,-2067.76 330.5,-2077.45 335.6,-2072.65"/>
</g>
<!-- Approve&#45;&gt;IsApprovedForAll -->
<g id="edge20" class="edge">
<title>Approve&#45;&gt;IsApprovedForAll</title>
<path fill="none" stroke="indigo" d="M521.22,-2265.27C469.15,-2158.13 169.42,-1612.54 92.41,-1484.13"/>
<polygon fill="indigo" stroke="indigo" points="95.23,-1482.03 87.06,-1475.29 89.24,-1485.66 95.23,-1482.03"/>
</g>
<!-- Approve&#45;&gt;createCompositeKey -->
<g id="edge24" class="edge">
<title>Approve&#45;&gt;createCompositeKey</title>
<path fill="none" stroke="indigo" d="M568.5,-2291.12C737.47,-2323.35 1400,-2449.74 1647.41,-2496.93"/>
<polygon fill="indigo" stroke="indigo" points="1646.98,-2500.41 1657.46,-2498.85 1648.29,-2493.54 1646.98,-2500.41"/>
</g>
<!-- Approve&#45;&gt;putState -->
<g id="edge25" class="edge">
<title>Approve&#45;&gt;putState</title>
<path fill="none" stroke="indigo" d="M567.13,-2301.57C669.15,-2349.58 947.41,-2480.51 1058.58,-2532.83"/>
<polygon fill="indigo" stroke="indigo" points="1057.33,-2536.11 1067.86,-2537.2 1060.31,-2529.77 1057.33,-2536.11"/>
</g>
<!-- Approve&#45;&gt;setEvent -->
<g id="edge26" class="edge">
<title>Approve&#45;&gt;setEvent</title>
<path fill="none" stroke="indigo" d="M568.47,-2276C815.72,-2228.83 2145.42,-1975.18 2418.83,-1923.03"/>
<polygon fill="indigo" stroke="indigo" points="2419.68,-1926.43 2428.84,-1921.11 2418.36,-1919.55 2419.68,-1926.43"/>
</g>
<!-- SetApprovalForAll -->
<g id="node15" class="node">
<title>SetApprovalForAll</title>
<path fill="aliceblue" stroke="blue" d="M865.45,-2473.62C865.45,-2473.62 734.5,-2473.62 734.5,-2473.62 728.5,-2473.62 722.5,-2467.62 722.5,-2461.62 722.5,-2461.62 722.5,-2449.62 722.5,-2449.62 722.5,-2443.62 728.5,-2437.62 734.5,-2437.62 734.5,-2437.62 865.45,-2437.62 865.45,-2437.62 871.45,-2437.62 877.45,-2443.62 877.45,-2449.62 877.45,-2449.62 877.45,-2461.62 877.45,-2461.62 877.45,-2467.62 871.45,-2473.62 865.45,-2473.62"/>
<text text-anchor="middle" x="799.98" y="-2450.22" font-family="Times,serif" font-size="18.00">SetApprovalForAll</text>
</g>
<!-- Approve&#45;&gt;SetApprovalForAll -->
<g id="edge19" class="edge">
<title>Approve&#45;&gt;SetApprovalForAll</title>
<path fill="none" stroke="indigo" d="M549.84,-2301.59C593.4,-2333.1 694.33,-2397.6 753.83,-2432.38"/>
<polygon fill="indigo" stroke="indigo" points="752.25,-2435.51 762.66,-2437.5 755.76,-2429.45 752.25,-2435.51"/>
</g>
<!-- IsApprovedForAll&#45;&gt;Initialize -->
<g id="edge41" class="edge">
<title>IsApprovedForAll&#45;&gt;Initialize</title>
<path fill="none" stroke="indigo" d="M76.79,-1438.82C88.02,-1349.87 137.09,-961.44 150.78,-853.08"/>
<polygon fill="indigo" stroke="indigo" points="154.28,-853.29 152.07,-842.93 147.34,-852.42 154.28,-853.29"/>
</g>
<!-- IsApprovedForAll&#45;&gt;CheckInitialized -->
<g id="edge42" class="edge">
<title>IsApprovedForAll&#45;&gt;CheckInitialized</title>
<path fill="none" stroke="indigo" d="M84.46,-1438.91C163.64,-1294.89 689.64,-338.1 785.12,-164.41"/>
<polygon fill="indigo" stroke="indigo" points="788.32,-165.86 790.07,-155.41 782.19,-162.49 788.32,-165.86"/>
</g>
<!-- IsApprovedForAll&#45;&gt;getState -->
<g id="edge44" class="edge">
<title>IsApprovedForAll&#45;&gt;getState</title>
<path fill="none" stroke="indigo" d="M102.91,-1439.02C322.33,-1299.77 1744.62,-397.16 1994.4,-238.64"/>
<polygon fill="indigo" stroke="indigo" points="1996.55,-241.42 2003.12,-233.11 1992.8,-235.51 1996.55,-241.42"/>
</g>
<!-- IsApprovedForAll&#45;&gt;Approve -->
<g id="edge39" class="edge">
<title>IsApprovedForAll&#45;&gt;Approve</title>
<path fill="none" stroke="indigo" d="M82.11,-1475.35C134.19,-1582.48 433.92,-2128.08 510.93,-2256.48"/>
<polygon fill="indigo" stroke="indigo" points="508.11,-2258.59 516.28,-2265.33 514.09,-2254.96 508.11,-2258.59"/>
</g>
<!-- IsApprovedForAll&#45;&gt;createCompositeKey -->
<g id="edge43" class="edge">
<title>IsApprovedForAll&#45;&gt;createCompositeKey</title>
<path fill="none" stroke="indigo" d="M103.06,-1475.2C302.09,-1601.51 1479.89,-2348.96 1704.34,-2491.4"/>
<polygon fill="indigo" stroke="indigo" points="1702.5,-2494.38 1712.82,-2496.78 1706.25,-2488.47 1702.5,-2494.38"/>
</g>
<!-- Name -->
<g id="node17" class="node">
<title>Name</title>
<path fill="aliceblue" stroke="blue" d="M1765.28,-96.17C1765.28,-96.17 1717.28,-96.17 1717.28,-96.17 1711.28,-96.17 1705.28,-90.17 1705.28,-84.17 1705.28,-84.17 1705.28,-72.17 1705.28,-72.17 1705.28,-66.17 1711.28,-60.17 1717.28,-60.17 1717.28,-60.17 1765.28,-60.17 1765.28,-60.17 1771.28,-60.17 1777.28,-66.17 1777.28,-72.17 1777.28,-72.17 1777.28,-84.17 1777.28,-84.17 1777.28,-90.17 1771.28,-96.17 1765.28,-96.17"/>
<text text-anchor="middle" x="1741.28" y="-72.77" font-family="Times,serif" font-size="18.00">Name</text>
</g>
<!-- IsApprovedForAll&#45;&gt;Name -->
<g id="edge40" class="edge">
<title>IsApprovedForAll&#45;&gt;Name</title>
<path fill="none" stroke="indigo" d="M96.47,-1438.87C276.35,-1290.06 1504.18,-274.31 1711.56,-102.75"/>
<polygon fill="indigo" stroke="indigo" points="1713.84,-105.41 1719.32,-96.33 1709.38,-100.01 1713.84,-105.41"/>
</g>
<!-- SetApprovalForAll&#45;&gt;Initialize -->
<g id="edge29" class="edge">
<title>SetApprovalForAll&#45;&gt;Initialize</title>
<path fill="none" stroke="indigo" d="M792.84,-2437.58C728.19,-2274.3 244.53,-1052.73 165.3,-852.62"/>
<polygon fill="indigo" stroke="indigo" points="168.48,-851.13 161.54,-843.12 161.97,-853.7 168.48,-851.13"/>
</g>
<!-- SetApprovalForAll&#45;&gt;CheckInitialized -->
<g id="edge30" class="edge">
<title>SetApprovalForAll&#45;&gt;CheckInitialized</title>
<path fill="none" stroke="indigo" d="M799.98,-2437.3C799.98,-2234.62 799.98,-414.06 799.98,-165.46"/>
<polygon fill="indigo" stroke="indigo" points="803.48,-165.43 799.98,-155.43 796.48,-165.43 803.48,-165.43"/>
</g>
<!-- SetApprovalForAll&#45;&gt;Approve -->
<g id="edge27" class="edge">
<title>SetApprovalForAll&#45;&gt;Approve</title>
<path fill="none" stroke="indigo" d="M778.99,-2437.59C735.43,-2406.07 634.5,-2341.57 575,-2306.79"/>
<polygon fill="indigo" stroke="indigo" points="576.58,-2303.66 566.17,-2301.68 573.07,-2309.72 576.58,-2303.66"/>
</g>
<!-- SetApprovalForAll&#45;&gt;createCompositeKey -->
<g id="edge31" class="edge">
<title>SetApprovalForAll&#45;&gt;createCompositeKey</title>
<path fill="none" stroke="indigo" d="M877.81,-2460.51C1049.84,-2471.34 1461.86,-2497.26 1647.63,-2508.95"/>
<polygon fill="indigo" stroke="indigo" points="1647.45,-2512.44 1657.65,-2509.58 1647.89,-2505.46 1647.45,-2512.44"/>
</g>
<!-- SetApprovalForAll&#45;&gt;putState -->
<g id="edge32" class="edge">
<title>SetApprovalForAll&#45;&gt;putState</title>
<path fill="none" stroke="indigo" d="M855.64,-2473.7C913.46,-2492.49 1002.97,-2521.58 1057.66,-2539.34"/>
<polygon fill="indigo" stroke="indigo" points="1056.86,-2542.76 1067.45,-2542.53 1059.02,-2536.11 1056.86,-2542.76"/>
</g>
<!-- SetApprovalForAll&#45;&gt;setEvent -->
<g id="edge33" class="edge">
<title>SetApprovalForAll&#45;&gt;setEvent</title>
<path fill="none" stroke="indigo" d="M855.47,-2437.59C1111.67,-2354.34 2177.81,-2007.93 2419.24,-1929.49"/>
<polygon fill="indigo" stroke="indigo" points="2420.37,-1932.8 2428.8,-1926.38 2418.21,-1926.14 2420.37,-1932.8"/>
</g>
<!-- GetApproved -->
<g id="node16" class="node">
<title>GetApproved</title>
<path fill="aliceblue" stroke="blue" d="M199.3,-1786.08C199.3,-1786.08 109.38,-1786.08 109.38,-1786.08 103.38,-1786.08 97.38,-1780.08 97.38,-1774.08 97.38,-1774.08 97.38,-1762.08 97.38,-1762.08 97.38,-1756.08 103.38,-1750.08 109.38,-1750.08 109.38,-1750.08 199.3,-1750.08 199.3,-1750.08 205.3,-1750.08 211.3,-1756.08 211.3,-1762.08 211.3,-1762.08 211.3,-1774.08 211.3,-1774.08 211.3,-1780.08 205.3,-1786.08 199.3,-1786.08"/>
<text text-anchor="middle" x="154.34" y="-1762.68" font-family="Times,serif" font-size="18.00">GetApproved</text>
</g>
<!-- SetApprovalForAll&#45;&gt;GetApproved -->
<g id="edge28" class="edge">
<title>SetApprovalForAll&#45;&gt;GetApproved</title>
<path fill="none" stroke="indigo" d="M783.04,-2437.58C694.25,-2343.03 282.57,-1904.63 178.36,-1793.66"/>
<polygon fill="indigo" stroke="indigo" points="180.8,-1791.14 171.4,-1786.25 175.69,-1795.94 180.8,-1791.14"/>
</g>
<!-- GetApproved&#45;&gt;Initialize -->
<g id="edge36" class="edge">
<title>GetApproved&#45;&gt;Initialize</title>
<path fill="none" stroke="indigo" d="M154.34,-1749.67C154.34,-1632.88 154.34,-995.65 154.34,-853.18"/>
<polygon fill="indigo" stroke="indigo" points="157.84,-853.08 154.34,-843.08 150.84,-853.08 157.84,-853.08"/>
</g>
<!-- GetApproved&#45;&gt;CheckInitialized -->
<g id="edge38" class="edge">
<title>GetApproved&#45;&gt;CheckInitialized</title>
<path fill="none" stroke="indigo" d="M161.48,-1750.05C226.13,-1586.77 709.78,-365.2 789.01,-165.08"/>
<polygon fill="indigo" stroke="indigo" points="792.35,-166.17 792.77,-155.58 785.84,-163.59 792.35,-166.17"/>
</g>
<!-- GetApproved&#45;&gt;_readNFT -->
<g id="edge37" class="edge">
<title>GetApproved&#45;&gt;_readNFT</title>
<path fill="none" stroke="indigo" d="M164.25,-1786.11C190.66,-1834.14 262.81,-1965.4 294.17,-2022.43"/>
<polygon fill="indigo" stroke="indigo" points="291.12,-2024.16 299.01,-2031.23 297.26,-2020.78 291.12,-2024.16"/>
</g>
<!-- GetApproved&#45;&gt;Approve -->
<g id="edge34" class="edge">
<title>GetApproved&#45;&gt;Approve</title>
<path fill="none" stroke="indigo" d="M167.45,-1786.13C223.51,-1863.29 443.26,-2165.75 509.71,-2257.21"/>
<polygon fill="indigo" stroke="indigo" points="506.95,-2259.36 515.66,-2265.39 512.61,-2255.25 506.95,-2259.36"/>
</g>
<!-- GetApproved&#45;&gt;IsApprovedForAll -->
<g id="edge35" class="edge">
<title>GetApproved&#45;&gt;IsApprovedForAll</title>
<path fill="none" stroke="indigo" d="M149.7,-1750.02C136.36,-1698.05 97.81,-1547.91 81.7,-1485.16"/>
<polygon fill="indigo" stroke="indigo" points="85.01,-1483.99 79.13,-1475.18 78.23,-1485.73 85.01,-1483.99"/>
</g>
<!-- Name&#45;&gt;Initialize -->
<g id="edge46" class="edge">
<title>Name&#45;&gt;Initialize</title>
<path fill="none" stroke="indigo" d="M1705.15,-95.17C1495.83,-193.67 439.79,-690.6 201.96,-802.52"/>
<polygon fill="indigo" stroke="indigo" points="200.43,-799.37 192.87,-806.79 203.41,-805.7 200.43,-799.37"/>
</g>
<!-- Name&#45;&gt;CheckInitialized -->
<g id="edge47" class="edge">
<title>Name&#45;&gt;CheckInitialized</title>
<path fill="none" stroke="indigo" d="M1705.24,-80.44C1567.33,-89.11 1071.11,-120.33 877.82,-132.49"/>
<polygon fill="indigo" stroke="indigo" points="877.5,-129.01 867.74,-133.13 877.94,-135.99 877.5,-129.01"/>
</g>
<!-- Name&#45;&gt;getState -->
<g id="edge48" class="edge">
<title>Name&#45;&gt;getState</title>
<path fill="none" stroke="indigo" d="M1777.49,-95.21C1830.08,-119.96 1927.63,-165.86 1985.43,-193.06"/>
<polygon fill="indigo" stroke="indigo" points="1984.16,-196.33 1994.7,-197.42 1987.14,-190 1984.16,-196.33"/>
</g>
<!-- Symbol -->
<g id="node18" class="node">
<title>Symbol</title>
<path fill="aliceblue" stroke="blue" d="M1449.86,-36C1449.86,-36 1401.84,-36 1401.84,-36 1395.84,-36 1389.84,-30 1389.84,-24 1389.84,-24 1389.84,-12 1389.84,-12 1389.84,-6 1395.84,0 1401.84,0 1401.84,0 1449.86,0 1449.86,0 1455.86,0 1461.86,-6 1461.86,-12 1461.86,-12 1461.86,-24 1461.86,-24 1461.86,-30 1455.86,-36 1449.86,-36"/>
<text text-anchor="middle" x="1425.85" y="-12.6" font-family="Times,serif" font-size="18.00">Symbol</text>
</g>
<!-- Name&#45;&gt;Symbol -->
<g id="edge45" class="edge">
<title>Name&#45;&gt;Symbol</title>
<path fill="none" stroke="indigo" d="M1705.09,-71.27C1647.61,-60.3 1535.48,-38.91 1472.19,-26.84"/>
<polygon fill="indigo" stroke="indigo" points="1472.58,-23.35 1462.1,-24.91 1471.26,-30.23 1472.58,-23.35"/>
</g>
<!-- Symbol&#45;&gt;Initialize -->
<g id="edge50" class="edge">
<title>Symbol&#45;&gt;Initialize</title>
<path fill="none" stroke="indigo" d="M1397.21,-36.18C1229.83,-142.4 379.2,-682.22 191.17,-801.55"/>
<polygon fill="indigo" stroke="indigo" points="189.29,-798.6 182.72,-806.92 193.04,-804.51 189.29,-798.6"/>
</g>
<!-- Symbol&#45;&gt;CheckInitialized -->
<g id="edge51" class="edge">
<title>Symbol&#45;&gt;CheckInitialized</title>
<path fill="none" stroke="indigo" d="M1389.5,-24.94C1290.36,-43.85 1013.66,-96.63 877.57,-122.59"/>
<polygon fill="indigo" stroke="indigo" points="876.78,-119.18 867.62,-124.49 878.1,-126.05 876.78,-119.18"/>
</g>
<!-- Symbol&#45;&gt;getState -->
<g id="edge52" class="edge">
<title>Symbol&#45;&gt;getState</title>
<path fill="none" stroke="indigo" d="M1461.94,-29.73C1566.3,-63.63 1868.36,-161.78 1985.05,-199.69"/>
<polygon fill="indigo" stroke="indigo" points="1984.18,-203.09 1994.77,-202.85 1986.34,-196.43 1984.18,-203.09"/>
</g>
<!-- TokenURI -->
<g id="node19" class="node">
<title>TokenURI</title>
<path fill="aliceblue" stroke="blue" d="M1139.85,-56.16C1139.85,-56.16 1070.9,-56.16 1070.9,-56.16 1064.9,-56.16 1058.9,-50.16 1058.9,-44.16 1058.9,-44.16 1058.9,-32.16 1058.9,-32.16 1058.9,-26.16 1064.9,-20.16 1070.9,-20.16 1070.9,-20.16 1139.85,-20.16 1139.85,-20.16 1145.85,-20.16 1151.85,-26.16 1151.85,-32.16 1151.85,-32.16 1151.85,-44.16 1151.85,-44.16 1151.85,-50.16 1145.85,-56.16 1139.85,-56.16"/>
<text text-anchor="middle" x="1105.37" y="-32.76" font-family="Times,serif" font-size="18.00">TokenURI</text>
</g>
<!-- Symbol&#45;&gt;TokenURI -->
<g id="edge49" class="edge">
<title>Symbol&#45;&gt;TokenURI</title>
<path fill="none" stroke="indigo" d="M1389.71,-20.27C1334.32,-23.76 1227.94,-30.45 1162.17,-34.59"/>
<polygon fill="indigo" stroke="indigo" points="1161.74,-31.11 1151.97,-35.23 1162.18,-38.1 1161.74,-31.11"/>
</g>
<!-- TokenURI&#45;&gt;Initialize -->
<g id="edge54" class="edge">
<title>TokenURI&#45;&gt;Initialize</title>
<path fill="none" stroke="indigo" d="M1083.26,-56.45C957.21,-160.74 329.77,-679.8 184.43,-800.03"/>
<polygon fill="indigo" stroke="indigo" points="181.8,-797.66 176.33,-806.74 186.26,-803.06 181.8,-797.66"/>
</g>
<!-- TokenURI&#45;&gt;CheckInitialized -->
<g id="edge56" class="edge">
<title>TokenURI&#45;&gt;CheckInitialized</title>
<path fill="none" stroke="indigo" d="M1058.66,-53.34C1007.01,-70.12 923.43,-97.28 865.31,-116.16"/>
<polygon fill="indigo" stroke="indigo" points="863.92,-112.94 855.49,-119.35 866.08,-119.59 863.92,-112.94"/>
</g>
<!-- TokenURI&#45;&gt;_readNFT -->
<g id="edge55" class="edge">
<title>TokenURI&#45;&gt;_readNFT</title>
<path fill="none" stroke="indigo" d="M1098.25,-56.17C1024.98,-241.21 409.79,-1795.01 319.96,-2021.88"/>
<polygon fill="indigo" stroke="indigo" points="316.62,-2020.81 316.2,-2031.39 323.13,-2023.38 316.62,-2020.81"/>
</g>
<!-- TotalSupply -->
<g id="node20" class="node">
<title>TotalSupply</title>
<path fill="aliceblue" stroke="blue" d="M2508.49,-697.36C2508.49,-697.36 2427.49,-697.36 2427.49,-697.36 2421.49,-697.36 2415.49,-691.36 2415.49,-685.36 2415.49,-685.36 2415.49,-673.36 2415.49,-673.36 2415.49,-667.36 2421.49,-661.36 2427.49,-661.36 2427.49,-661.36 2508.49,-661.36 2508.49,-661.36 2514.49,-661.36 2520.49,-667.36 2520.49,-673.36 2520.49,-673.36 2520.49,-685.36 2520.49,-685.36 2520.49,-691.36 2514.49,-697.36 2508.49,-697.36"/>
<text text-anchor="middle" x="2467.99" y="-673.96" font-family="Times,serif" font-size="18.00">TotalSupply</text>
</g>
<!-- TokenURI&#45;&gt;TotalSupply -->
<g id="edge53" class="edge">
<title>TokenURI&#45;&gt;TotalSupply</title>
<path fill="none" stroke="indigo" d="M1143.96,-56.32C1338.03,-147.64 2206.52,-556.32 2420.32,-656.93"/>
<polygon fill="indigo" stroke="indigo" points="2418.88,-660.12 2429.42,-661.21 2421.86,-653.79 2418.88,-660.12"/>
</g>
<!-- TotalSupply&#45;&gt;Initialize -->
<g id="edge57" class="edge">
<title>TotalSupply&#45;&gt;Initialize</title>
<path fill="none" stroke="indigo" d="M2415.32,-682.68C2104.22,-702.25 510.13,-802.54 204.9,-821.74"/>
<polygon fill="indigo" stroke="indigo" points="204.35,-818.27 194.59,-822.39 204.79,-825.26 204.35,-818.27"/>
</g>
<!-- TotalSupply&#45;&gt;CheckInitialized -->
<g id="edge58" class="edge">
<title>TotalSupply&#45;&gt;CheckInitialized</title>
<path fill="none" stroke="indigo" d="M2415.32,-662.25C2169.57,-582.4 1136.34,-246.68 865.31,-158.62"/>
<polygon fill="indigo" stroke="indigo" points="866.2,-155.23 855.61,-155.47 864.04,-161.89 866.2,-155.23"/>
</g>
<!-- TotalSupply&#45;&gt;getStateByPartialCompositeKey -->
<g id="edge59" class="edge">
<title>TotalSupply&#45;&gt;getStateByPartialCompositeKey</title>
<path fill="none" stroke="indigo" d="M2475.21,-697.59C2495.16,-747.98 2551.15,-889.41 2575.11,-949.9"/>
<polygon fill="indigo" stroke="indigo" points="2571.99,-951.55 2578.93,-959.56 2578.5,-948.97 2571.99,-951.55"/>
</g>
<!-- TotalSupply&#45;&gt;getState -->
<g id="edge60" class="edge">
<title>TotalSupply&#45;&gt;getState</title>
<path fill="none" stroke="indigo" d="M2450.89,-661.15C2383.3,-589.18 2134.59,-324.33 2055.88,-240.51"/>
<polygon fill="indigo" stroke="indigo" points="2058.2,-237.87 2048.81,-232.98 2053.1,-242.66 2058.2,-237.87"/>
</g>
<!-- MintWithTokenURI -->
<g id="node21" class="node">
<title>MintWithTokenURI</title>
<path fill="aliceblue" stroke="blue" d="M2349.22,-2191.43C2349.22,-2191.43 2209.27,-2191.43 2209.27,-2191.43 2203.27,-2191.43 2197.27,-2185.43 2197.27,-2179.43 2197.27,-2179.43 2197.27,-2167.43 2197.27,-2167.43 2197.27,-2161.43 2203.27,-2155.43 2209.27,-2155.43 2209.27,-2155.43 2349.22,-2155.43 2349.22,-2155.43 2355.22,-2155.43 2361.22,-2161.43 2361.22,-2167.43 2361.22,-2167.43 2361.22,-2179.43 2361.22,-2179.43 2361.22,-2185.43 2355.22,-2191.43 2349.22,-2191.43"/>
<text text-anchor="middle" x="2279.25" y="-2168.03" font-family="Times,serif" font-size="18.00">MintWithTokenURI</text>
</g>
<!-- MintWithTokenURI&#45;&gt;Initialize -->
<g id="edge64" class="edge">
<title>MintWithTokenURI&#45;&gt;Initialize</title>
<path fill="none" stroke="indigo" d="M2250.82,-2155.39C2019.99,-2008.9 454.95,-1015.7 191.85,-848.73"/>
<polygon fill="indigo" stroke="indigo" points="193.36,-845.54 183.04,-843.14 189.61,-851.45 193.36,-845.54"/>
</g>
<!-- MintWithTokenURI&#45;&gt;CheckInitialized -->
<g id="edge67" class="edge">
<title>MintWithTokenURI&#45;&gt;CheckInitialized</title>
<path fill="none" stroke="indigo" d="M2266.01,-2155.21C2129.57,-1967.42 981.4,-387.1 819.04,-163.63"/>
<polygon fill="indigo" stroke="indigo" points="821.77,-161.44 813.06,-155.4 816.11,-165.55 821.77,-161.44"/>
</g>
<!-- MintWithTokenURI&#45;&gt;createCompositeKey -->
<g id="edge68" class="edge">
<title>MintWithTokenURI&#45;&gt;createCompositeKey</title>
<path fill="none" stroke="indigo" d="M2250.7,-2191.55C2160.24,-2248.95 1879.93,-2426.84 1778.44,-2491.25"/>
<polygon fill="indigo" stroke="indigo" points="1776.32,-2488.45 1769.75,-2496.77 1780.07,-2494.37 1776.32,-2488.45"/>
</g>
<!-- MintWithTokenURI&#45;&gt;putState -->
<g id="edge69" class="edge">
<title>MintWithTokenURI&#45;&gt;putState</title>
<path fill="none" stroke="indigo" d="M2223.81,-2191.44C2023.46,-2256.54 1338.9,-2478.97 1152.54,-2539.52"/>
<polygon fill="indigo" stroke="indigo" points="1151.45,-2536.19 1143.02,-2542.61 1153.62,-2542.85 1151.45,-2536.19"/>
</g>
<!-- MintWithTokenURI&#45;&gt;setEvent -->
<g id="edge70" class="edge">
<title>MintWithTokenURI&#45;&gt;setEvent</title>
<path fill="none" stroke="indigo" d="M2292.52,-2155.16C2325.35,-2109.98 2410.46,-1992.84 2448.79,-1940.08"/>
<polygon fill="indigo" stroke="indigo" points="2451.69,-1942.04 2454.73,-1931.89 2446.02,-1937.93 2451.69,-1942.04"/>
</g>
<!-- MintWithTokenURI&#45;&gt;TokenURI -->
<g id="edge63" class="edge">
<title>MintWithTokenURI&#45;&gt;TokenURI</title>
<path fill="none" stroke="indigo" d="M2269.28,-2155.29C2163.42,-1962.74 1247.83,-297.3 1120.14,-65.02"/>
<polygon fill="indigo" stroke="indigo" points="1123.17,-63.27 1115.28,-56.19 1117.03,-66.64 1123.17,-63.27"/>
</g>
<!-- Burn -->
<g id="node22" class="node">
<title>Burn</title>
<path fill="aliceblue" stroke="blue" d="M2610.2,-1633.08C2610.2,-1633.08 2562.2,-1633.08 2562.2,-1633.08 2556.2,-1633.08 2550.2,-1627.08 2550.2,-1621.08 2550.2,-1621.08 2550.2,-1609.08 2550.2,-1609.08 2550.2,-1603.08 2556.2,-1597.08 2562.2,-1597.08 2562.2,-1597.08 2610.2,-1597.08 2610.2,-1597.08 2616.2,-1597.08 2622.2,-1603.08 2622.2,-1609.08 2622.2,-1609.08 2622.2,-1621.08 2622.2,-1621.08 2622.2,-1627.08 2616.2,-1633.08 2610.2,-1633.08"/>
<text text-anchor="middle" x="2586.2" y="-1609.68" font-family="Times,serif" font-size="18.00">Burn</text>
</g>
<!-- MintWithTokenURI&#45;&gt;Burn -->
<g id="edge65" class="edge">
<title>MintWithTokenURI&#45;&gt;Burn</title>
<path fill="none" stroke="indigo" d="M2289.29,-2155.17C2334.28,-2073.32 2517.55,-1739.96 2571.31,-1642.17"/>
<polygon fill="indigo" stroke="indigo" points="2574.49,-1643.65 2576.24,-1633.21 2568.35,-1640.28 2574.49,-1643.65"/>
</g>
<!-- _nftExists -->
<g id="node23" class="node">
<title>_nftExists</title>
<path fill="aliceblue" stroke="blue" d="M2064.32,-2396.12C2064.32,-2396.12 1999.33,-2396.12 1999.33,-2396.12 1993.33,-2396.12 1987.33,-2390.12 1987.33,-2384.12 1987.33,-2384.12 1987.33,-2372.12 1987.33,-2372.12 1987.33,-2366.12 1993.33,-2360.12 1999.33,-2360.12 1999.33,-2360.12 2064.32,-2360.12 2064.32,-2360.12 2070.32,-2360.12 2076.32,-2366.12 2076.32,-2372.12 2076.32,-2372.12 2076.32,-2384.12 2076.32,-2384.12 2076.32,-2390.12 2070.32,-2396.12 2064.32,-2396.12"/>
<text text-anchor="middle" x="2031.83" y="-2372.72" font-family="Times,serif" font-size="18.00">_nftExists</text>
</g>
<!-- MintWithTokenURI&#45;&gt;_nftExists -->
<g id="edge66" class="edge">
<title>MintWithTokenURI&#45;&gt;_nftExists</title>
<path fill="none" stroke="indigo" d="M2257.29,-2191.6C2212.81,-2228.39 2112.04,-2311.76 2061.66,-2353.44"/>
<polygon fill="indigo" stroke="indigo" points="2059.21,-2350.92 2053.73,-2359.99 2063.67,-2356.32 2059.21,-2350.92"/>
</g>
<!-- Burn&#45;&gt;Initialize -->
<g id="edge71" class="edge">
<title>Burn&#45;&gt;Initialize</title>
<path fill="none" stroke="indigo" d="M2549.94,-1603.3C2275.22,-1514.04 523.9,-945 204.35,-841.17"/>
<polygon fill="indigo" stroke="indigo" points="205.04,-837.72 194.45,-837.96 202.88,-844.38 205.04,-837.72"/>
</g>
<!-- Burn&#45;&gt;CheckInitialized -->
<g id="edge73" class="edge">
<title>Burn&#45;&gt;CheckInitialized</title>
<path fill="none" stroke="indigo" d="M2564.26,-1596.93C2376.77,-1441.83 1045.66,-340.64 829.58,-161.88"/>
<polygon fill="indigo" stroke="indigo" points="831.74,-159.13 821.8,-155.45 827.28,-164.52 831.74,-159.13"/>
</g>
<!-- Burn&#45;&gt;_readNFT -->
<g id="edge72" class="edge">
<title>Burn&#45;&gt;_readNFT</title>
<path fill="none" stroke="indigo" d="M2549.97,-1622C2287.83,-1672 682.75,-1978.19 364.03,-2038.99"/>
<polygon fill="indigo" stroke="indigo" points="363.27,-2035.57 354.1,-2040.88 364.58,-2042.44 363.27,-2035.57"/>
</g>
<!-- Burn&#45;&gt;createCompositeKey -->
<g id="edge74" class="edge">
<title>Burn&#45;&gt;createCompositeKey</title>
<path fill="none" stroke="indigo" d="M2568.94,-1633.47C2462.01,-1747.33 1890.44,-2355.99 1765.44,-2489.11"/>
<polygon fill="indigo" stroke="indigo" points="1762.8,-2486.8 1758.51,-2496.49 1767.91,-2491.59 1762.8,-2486.8"/>
</g>
<!-- Burn&#45;&gt;deleteState -->
<g id="edge75" class="edge">
<title>Burn&#45;&gt;deleteState</title>
<path fill="none" stroke="indigo" d="M2588.48,-1597.04C2595.16,-1544.16 2614.73,-1389.22 2622.85,-1324.95"/>
<polygon fill="indigo" stroke="indigo" points="2626.36,-1325.1 2624.14,-1314.74 2619.42,-1324.23 2626.36,-1325.1"/>
</g>
<!-- Burn&#45;&gt;setEvent -->
<g id="edge76" class="edge">
<title>Burn&#45;&gt;setEvent</title>
<path fill="none" stroke="indigo" d="M2578.98,-1633.31C2559.03,-1683.7 2503.04,-1825.13 2479.09,-1885.63"/>
<polygon fill="indigo" stroke="indigo" points="2475.69,-1884.69 2475.26,-1895.28 2482.2,-1887.27 2475.69,-1884.69"/>
</g>
<!-- _nftExists&#45;&gt;getState -->
<g id="edge81" class="edge">
<title>_nftExists&#45;&gt;getState</title>
<path fill="none" stroke="indigo" d="M2031.83,-2360.06C2031.83,-2166.84 2031.83,-482.7 2031.83,-243.18"/>
<polygon fill="indigo" stroke="indigo" points="2035.33,-243.18 2031.83,-233.18 2028.33,-243.18 2035.33,-243.18"/>
</g>
<!-- _nftExists&#45;&gt;createCompositeKey -->
<g id="edge80" class="edge">
<title>_nftExists&#45;&gt;createCompositeKey</title>
<path fill="none" stroke="indigo" d="M1993.54,-2396.13C1940.85,-2420.93 1846.01,-2465.55 1788.83,-2492.46"/>
<polygon fill="indigo" stroke="indigo" points="1787.2,-2489.36 1779.64,-2496.78 1790.18,-2495.69 1787.2,-2489.36"/>
</g>
<!-- ClientAccountBalance -->
<g id="node24" class="node">
<title>ClientAccountBalance</title>
<path fill="aliceblue" stroke="blue" d="M386.48,-561.53C386.48,-561.53 231.59,-561.53 231.59,-561.53 225.59,-561.53 219.59,-555.53 219.59,-549.53 219.59,-549.53 219.59,-537.53 219.59,-537.53 219.59,-531.53 225.59,-525.53 231.59,-525.53 231.59,-525.53 386.48,-525.53 386.48,-525.53 392.48,-525.53 398.48,-531.53 398.48,-537.53 398.48,-537.53 398.48,-549.53 398.48,-549.53 398.48,-555.53 392.48,-561.53 386.48,-561.53"/>
<text text-anchor="middle" x="309.04" y="-538.13" font-family="Times,serif" font-size="18.00">ClientAccountBalance</text>
</g>
<!-- _nftExists&#45;&gt;ClientAccountBalance -->
<g id="edge79" class="edge">
<title>_nftExists&#45;&gt;ClientAccountBalance</title>
<path fill="none" stroke="indigo" d="M2014.77,-2359.96C1849.08,-2183.51 527.4,-776.06 332.9,-568.95"/>
<polygon fill="indigo" stroke="indigo" points="335.36,-566.45 325.97,-561.56 330.26,-571.25 335.36,-566.45"/>
</g>
<!-- ClientAccountBalance&#45;&gt;BalanceOf -->
<g id="edge82" class="edge">
<title>ClientAccountBalance&#45;&gt;BalanceOf</title>
<path fill="none" stroke="indigo" d="M398.49,-537.9C738.44,-516.52 1944.91,-440.61 2222.16,-423.17"/>
<polygon fill="indigo" stroke="indigo" points="2222.63,-426.65 2232.39,-422.53 2222.19,-419.66 2222.63,-426.65"/>
</g>
<!-- ClientAccountBalance&#45;&gt;Initialize -->
<g id="edge83" class="edge">
<title>ClientAccountBalance&#45;&gt;Initialize</title>
<path fill="none" stroke="indigo" d="M299.12,-561.56C272.72,-609.59 200.56,-740.85 169.21,-797.87"/>
<polygon fill="indigo" stroke="indigo" points="166.12,-796.23 164.37,-806.68 172.25,-799.6 166.12,-796.23"/>
</g>
<!-- ClientAccountBalance&#45;&gt;CheckInitialized -->
<g id="edge85" class="edge">
<title>ClientAccountBalance&#45;&gt;CheckInitialized</title>
<path fill="none" stroke="indigo" d="M331.09,-525.29C410.15,-459.88 679.55,-237.02 770.05,-162.15"/>
<polygon fill="indigo" stroke="indigo" points="772.52,-164.65 777.99,-155.58 768.05,-159.26 772.52,-164.65"/>
</g>
<!-- ClientAccountID -->
<g id="node25" class="node">
<title>ClientAccountID</title>
<path fill="aliceblue" stroke="blue" d="M586.82,-327.45C586.82,-327.45 470.89,-327.45 470.89,-327.45 464.89,-327.45 458.89,-321.45 458.89,-315.45 458.89,-315.45 458.89,-303.45 458.89,-303.45 458.89,-297.45 464.89,-291.45 470.89,-291.45 470.89,-291.45 586.82,-291.45 586.82,-291.45 592.82,-291.45 598.82,-297.45 598.82,-303.45 598.82,-303.45 598.82,-315.45 598.82,-315.45 598.82,-321.45 592.82,-327.45 586.82,-327.45"/>
<text text-anchor="middle" x="528.85" y="-304.05" font-family="Times,serif" font-size="18.00">ClientAccountID</text>
</g>
<!-- ClientAccountBalance&#45;&gt;ClientAccountID -->
<g id="edge84" class="edge">
<title>ClientAccountBalance&#45;&gt;ClientAccountID</title>
<path fill="none" stroke="indigo" d="M326.29,-525.16C365.21,-483.71 459.95,-382.82 504.7,-335.18"/>
<polygon fill="indigo" stroke="indigo" points="507.39,-337.42 511.68,-327.73 502.29,-332.63 507.39,-337.42"/>
</g>
<!-- ClientAccountID&#45;&gt;Initialize -->
<g id="edge86" class="edge">
<title>ClientAccountID&#45;&gt;Initialize</title>
<path fill="none" stroke="indigo" d="M515.74,-327.5C459.68,-404.66 239.93,-707.12 173.48,-798.58"/>
<polygon fill="indigo" stroke="indigo" points="170.58,-796.61 167.54,-806.76 176.25,-800.73 170.58,-796.61"/>
</g>
<!-- ClientAccountID&#45;&gt;CheckInitialized -->
<g id="edge87" class="edge">
<title>ClientAccountID&#45;&gt;CheckInitialized</title>
<path fill="none" stroke="indigo" d="M557.36,-291.36C606.68,-260.06 707.93,-195.81 762.74,-161.02"/>
<polygon fill="indigo" stroke="indigo" points="764.88,-163.81 771.45,-155.5 761.13,-157.9 764.88,-163.81"/>
</g>
</g>
</svg>
