<?xml version="1.0" encoding="UTF-8" standalone="no"?>
<!DOCTYPE svg PUBLIC "-//W3C//DTD SVG 1.1//EN"
 "http://www.w3.org/Graphics/SVG/1.1/DTD/svg11.dtd">
<!-- Generated by graphviz version 2.44.0 (20200518.1210)
 -->
<!-- Pages: 1 -->
<svg width="1473pt" height="1491pt"
 viewBox="0.00 0.00 1473.29 1490.57" xmlns="http://www.w3.org/2000/svg" xmlns:xlink="http://www.w3.org/1999/xlink">
<g id="graph0" class="graph" transform="scale(1 1) rotate(0) translate(4 1486.57)">
<polygon fill="white" stroke="transparent" points="-4,4 -4,-1486.57 1469.29,-1486.57 1469.29,4 -4,4"/>
<!-- putState -->
<g id="node1" class="node">
<title>putState</title>
<path fill="lightyellow" stroke="red" d="M793.9,-831.24C793.9,-831.24 742.92,-831.24 742.92,-831.24 736.92,-831.24 730.92,-825.24 730.92,-819.24 730.92,-819.24 730.92,-807.24 730.92,-807.24 730.92,-801.24 736.92,-795.24 742.92,-795.24 742.92,-795.24 793.9,-795.24 793.9,-795.24 799.9,-795.24 805.9,-801.24 805.9,-807.24 805.9,-807.24 805.9,-819.24 805.9,-819.24 805.9,-825.24 799.9,-831.24 793.9,-831.24"/>
<text text-anchor="middle" x="768.41" y="-807.84" font-family="Times,serif" font-size="18.00">putState</text>
</g>
<!-- initLedger -->
<g id="node2" class="node">
<title>initLedger</title>
<path fill="aliceblue" stroke="blue" d="M1453.28,-831.24C1453.28,-831.24 1386.33,-831.24 1386.33,-831.24 1380.33,-831.24 1374.33,-825.24 1374.33,-819.24 1374.33,-819.24 1374.33,-807.24 1374.33,-807.24 1374.33,-801.24 1380.33,-795.24 1386.33,-795.24 1386.33,-795.24 1453.28,-795.24 1453.28,-795.24 1459.28,-795.24 1465.28,-801.24 1465.28,-807.24 1465.28,-807.24 1465.28,-819.24 1465.28,-819.24 1465.28,-825.24 1459.28,-831.24 1453.28,-831.24"/>
<text text-anchor="middle" x="1419.8" y="-807.84" font-family="Times,serif" font-size="18.00">initLedger</text>
</g>
<!-- initLedger&#45;&gt;putState -->
<g id="edge1" class="edge">
<title>initLedger&#45;&gt;putState</title>
<path fill="none" stroke="indigo" d="M1374.26,-813.24C1255.59,-813.24 937.71,-813.24 816.38,-813.24"/>
<polygon fill="indigo" stroke="indigo" points="816.28,-809.74 806.28,-813.24 816.28,-816.74 816.28,-809.74"/>
</g>
<!-- getState -->
<g id="node3" class="node">
<title>getState</title>
<path fill="lightyellow" stroke="red" d="M259.67,-292.49C259.67,-292.49 209.71,-292.49 209.71,-292.49 203.71,-292.49 197.71,-286.49 197.71,-280.49 197.71,-280.49 197.71,-268.49 197.71,-268.49 197.71,-262.49 203.71,-256.49 209.71,-256.49 209.71,-256.49 259.67,-256.49 259.67,-256.49 265.67,-256.49 271.67,-262.49 271.67,-268.49 271.67,-268.49 271.67,-280.49 271.67,-280.49 271.67,-286.49 265.67,-292.49 259.67,-292.49"/>
<text text-anchor="middle" x="234.69" y="-269.09" font-family="Times,serif" font-size="18.00">getState</text>
</g>
<!-- queryCar -->
<g id="node4" class="node">
<title>queryCar</title>
<path fill="aliceblue" stroke="blue" d="M70.95,-483.89C70.95,-483.89 12.02,-483.89 12.02,-483.89 6.02,-483.89 0.02,-477.89 0.02,-471.89 0.02,-471.89 0.02,-459.89 0.02,-459.89 0.02,-453.89 6.02,-447.89 12.02,-447.89 12.02,-447.89 70.95,-447.89 70.95,-447.89 76.95,-447.89 82.95,-453.89 82.95,-459.89 82.95,-459.89 82.95,-471.89 82.95,-471.89 82.95,-477.89 76.95,-483.89 70.95,-483.89"/>
<text text-anchor="middle" x="41.48" y="-460.49" font-family="Times,serif" font-size="18.00">queryCar</text>
</g>
<!-- queryCar&#45;&gt;getState -->
<g id="edge2" class="edge">
<title>queryCar&#45;&gt;getState</title>
<path fill="none" stroke="indigo" d="M59.66,-447.89C94.18,-413.69 169.32,-339.25 208.98,-299.96"/>
<polygon fill="indigo" stroke="indigo" points="211.78,-302.11 216.42,-292.59 206.85,-297.14 211.78,-302.11"/>
</g>
<!-- createCar -->
<g id="node5" class="node">
<title>createCar</title>
<path fill="aliceblue" stroke="blue" d="M789.73,-1482.57C789.73,-1482.57 728.84,-1482.57 728.84,-1482.57 722.84,-1482.57 716.84,-1476.57 716.84,-1470.57 716.84,-1470.57 716.84,-1458.57 716.84,-1458.57 716.84,-1452.57 722.84,-1446.57 728.84,-1446.57 728.84,-1446.57 789.73,-1446.57 789.73,-1446.57 795.73,-1446.57 801.73,-1452.57 801.73,-1458.57 801.73,-1458.57 801.73,-1470.57 801.73,-1470.57 801.73,-1476.57 795.73,-1482.57 789.73,-1482.57"/>
<text text-anchor="middle" x="759.29" y="-1459.17" font-family="Times,serif" font-size="18.00">createCar</text>
</g>
<!-- createCar&#45;&gt;putState -->
<g id="edge3" class="edge">
<title>createCar&#45;&gt;putState</title>
<path fill="none" stroke="indigo" d="M759.54,-1446.47C760.81,-1355.9 766.47,-951.88 768.02,-841.3"/>
<polygon fill="indigo" stroke="indigo" points="771.52,-841.3 768.16,-831.25 764.52,-841.2 771.52,-841.3"/>
</g>
<!-- queryAllCars -->
<g id="node6" class="node">
<title>queryAllCars</title>
<path fill="aliceblue" stroke="blue" d="M396.71,-176.03C396.71,-176.03 307.78,-176.03 307.78,-176.03 301.78,-176.03 295.78,-170.03 295.78,-164.03 295.78,-164.03 295.78,-152.03 295.78,-152.03 295.78,-146.03 301.78,-140.03 307.78,-140.03 307.78,-140.03 396.71,-140.03 396.71,-140.03 402.71,-140.03 408.71,-146.03 408.71,-152.03 408.71,-152.03 408.71,-164.03 408.71,-164.03 408.71,-170.03 402.71,-176.03 396.71,-176.03"/>
<text text-anchor="middle" x="352.25" y="-152.63" font-family="Times,serif" font-size="18.00">queryAllCars</text>
</g>
<!-- queryAllCars&#45;&gt;getState -->
<g id="edge4" class="edge">
<title>queryAllCars&#45;&gt;getState</title>
<path fill="none" stroke="indigo" d="M333.88,-176.23C314.04,-195.89 282.29,-227.34 260.07,-249.35"/>
<polygon fill="indigo" stroke="indigo" points="257.57,-246.9 252.93,-256.42 262.5,-251.87 257.57,-246.9"/>
</g>
<!-- getStateByRange -->
<g id="node7" class="node">
<title>getStateByRange</title>
<path fill="lightyellow" stroke="red" d="M552.07,-36C552.07,-36 435.12,-36 435.12,-36 429.12,-36 423.12,-30 423.12,-24 423.12,-24 423.12,-12 423.12,-12 423.12,-6 429.12,0 435.12,0 435.12,0 552.07,0 552.07,0 558.07,0 564.07,-6 564.07,-12 564.07,-12 564.07,-24 564.07,-24 564.07,-30 558.07,-36 552.07,-36"/>
<text text-anchor="middle" x="493.6" y="-12.6" font-family="Times,serif" font-size="18.00">getStateByRange</text>
</g>
<!-- queryAllCars&#45;&gt;getStateByRange -->
<g id="edge5" class="edge">
<title>queryAllCars&#45;&gt;getStateByRange</title>
<path fill="none" stroke="indigo" d="M370.44,-140.01C395.21,-115.47 439.71,-71.39 467.89,-43.47"/>
<polygon fill="indigo" stroke="indigo" points="470.39,-45.92 475.03,-36.4 465.46,-40.95 470.39,-45.92"/>
</g>
<!-- changeCarOwner -->
<g id="node8" class="node">
<title>changeCarOwner</title>
<path fill="aliceblue" stroke="blue" d="M700.33,-703.04C700.33,-703.04 582.48,-703.04 582.48,-703.04 576.48,-703.04 570.48,-697.04 570.48,-691.04 570.48,-691.04 570.48,-679.04 570.48,-679.04 570.48,-673.04 576.48,-667.04 582.48,-667.04 582.48,-667.04 700.33,-667.04 700.33,-667.04 706.33,-667.04 712.33,-673.04 712.33,-679.04 712.33,-679.04 712.33,-691.04 712.33,-691.04 712.33,-697.04 706.33,-703.04 700.33,-703.04"/>
<text text-anchor="middle" x="641.4" y="-679.64" font-family="Times,serif" font-size="18.00">changeCarOwner</text>
</g>
<!-- changeCarOwner&#45;&gt;putState -->
<g id="edge6" class="edge">
<title>changeCarOwner&#45;&gt;putState</title>
<path fill="none" stroke="indigo" d="M659.33,-703.13C681.27,-725.28 718.54,-762.9 743.32,-787.91"/>
<polygon fill="indigo" stroke="indigo" points="741.05,-790.59 750.57,-795.23 746.02,-785.67 741.05,-790.59"/>
</g>
<!-- changeCarOwner&#45;&gt;getState -->
<g id="edge7" class="edge">
<title>changeCarOwner&#45;&gt;getState</title>
<path fill="none" stroke="indigo" d="M623.4,-666.87C558.45,-601.3 336.01,-376.77 260.22,-300.26"/>
<polygon fill="indigo" stroke="indigo" points="262.47,-297.56 252.94,-292.92 257.5,-302.48 262.47,-297.56"/>
</g>
</g>
</svg>
