<?xml version="1.0" encoding="UTF-8" standalone="no"?>
<!DOCTYPE svg PUBLIC "-//W3C//DTD SVG 1.1//EN"
 "http://www.w3.org/Graphics/SVG/1.1/DTD/svg11.dtd">
<!-- Generated by graphviz version 2.44.0 (20200518.1210)
 -->
<!-- Pages: 1 -->
<svg width="989pt" height="132pt"
 viewBox="0.00 0.00 989.38 132.00" xmlns="http://www.w3.org/2000/svg" xmlns:xlink="http://www.w3.org/1999/xlink">
<g id="graph0" class="graph" transform="scale(1 1) rotate(0) translate(4 128)">
<polygon fill="white" stroke="transparent" points="-4,4 -4,-128 985.38,-128 985.38,4 -4,4"/>
<!-- putState -->
<g id="node1" class="node">
<title>putState</title>
<path fill="lightyellow" stroke="red" d="M781.42,-124C781.42,-124 730.43,-124 730.43,-124 724.43,-124 718.43,-118 718.43,-112 718.43,-112 718.43,-100 718.43,-100 718.43,-94 724.43,-88 730.43,-88 730.43,-88 781.42,-88 781.42,-88 787.42,-88 793.42,-94 793.42,-100 793.42,-100 793.42,-112 793.42,-112 793.42,-118 787.42,-124 781.42,-124"/>
<text text-anchor="middle" x="755.92" y="-100.6" font-family="Times,serif" font-size="18.00">putState</text>
</g>
<!-- initLedger -->
<g id="node2" class="node">
<title>initLedger</title>
<path fill="aliceblue" stroke="blue" d="M969.36,-124C969.36,-124 902.41,-124 902.41,-124 896.41,-124 890.41,-118 890.41,-112 890.41,-112 890.41,-100 890.41,-100 890.41,-94 896.41,-88 902.41,-88 902.41,-88 969.36,-88 969.36,-88 975.36,-88 981.36,-94 981.36,-100 981.36,-100 981.36,-112 981.36,-112 981.36,-118 975.36,-124 969.36,-124"/>
<text text-anchor="middle" x="935.89" y="-100.6" font-family="Times,serif" font-size="18.00">initLedger</text>
</g>
<!-- initLedger&#45;&gt;putState -->
<g id="edge1" class="edge">
<title>initLedger&#45;&gt;putState</title>
<path fill="none" stroke="indigo" d="M890.01,-106C863.62,-106 830.52,-106 803.8,-106"/>
<polygon fill="indigo" stroke="indigo" points="803.53,-102.5 793.53,-106 803.53,-109.5 803.53,-102.5"/>
</g>
<!-- getState -->
<g id="node3" class="node">
<title>getState</title>
<path fill="lightyellow" stroke="red" d="M515.91,-36C515.91,-36 465.94,-36 465.94,-36 459.94,-36 453.94,-30 453.94,-24 453.94,-24 453.94,-12 453.94,-12 453.94,-6 459.94,0 465.94,0 465.94,0 515.91,0 515.91,0 521.91,0 527.91,-6 527.91,-12 527.91,-12 527.91,-24 527.91,-24 527.91,-30 521.91,-36 515.91,-36"/>
<text text-anchor="middle" x="490.92" y="-12.6" font-family="Times,serif" font-size="18.00">getState</text>
</g>
<!-- queryBlockchain -->
<g id="node4" class="node">
<title>queryBlockchain</title>
<path fill="aliceblue" stroke="blue" d="M848.34,-36C848.34,-36 733.42,-36 733.42,-36 727.42,-36 721.42,-30 721.42,-24 721.42,-24 721.42,-12 721.42,-12 721.42,-6 727.42,0 733.42,0 733.42,0 848.34,0 848.34,0 854.34,0 860.34,-6 860.34,-12 860.34,-12 860.34,-24 860.34,-24 860.34,-30 854.34,-36 848.34,-36"/>
<text text-anchor="middle" x="790.88" y="-12.6" font-family="Times,serif" font-size="18.00">queryBlockchain</text>
</g>
<!-- queryBlockchain&#45;&gt;getState -->
<g id="edge2" class="edge">
<title>queryBlockchain&#45;&gt;getState</title>
<path fill="none" stroke="indigo" d="M721.31,-18C665.08,-18 587.45,-18 538.21,-18"/>
<polygon fill="indigo" stroke="indigo" points="538.16,-14.5 528.16,-18 538.16,-21.5 538.16,-14.5"/>
</g>
<!-- createBlockchain -->
<g id="node5" class="node">
<title>createBlockchain</title>
<path fill="aliceblue" stroke="blue" d="M634.39,-124C634.39,-124 517.53,-124 517.53,-124 511.53,-124 505.53,-118 505.53,-112 505.53,-112 505.53,-100 505.53,-100 505.53,-94 511.53,-88 517.53,-88 517.53,-88 634.39,-88 634.39,-88 640.39,-88 646.39,-94 646.39,-100 646.39,-100 646.39,-112 646.39,-112 646.39,-118 640.39,-124 634.39,-124"/>
<text text-anchor="middle" x="575.96" y="-100.6" font-family="Times,serif" font-size="18.00">createBlockchain</text>
</g>
<!-- createBlockchain&#45;&gt;putState -->
<g id="edge3" class="edge">
<title>createBlockchain&#45;&gt;putState</title>
<path fill="none" stroke="indigo" d="M646.57,-106C667.18,-106 689.2,-106 708.05,-106"/>
<polygon fill="indigo" stroke="indigo" points="708.16,-109.5 718.16,-106 708.16,-102.5 708.16,-109.5"/>
</g>
<!-- queryAllBlockchains -->
<g id="node6" class="node">
<title>queryAllBlockchains</title>
<path fill="aliceblue" stroke="blue" d="M369.91,-36C369.91,-36 224.99,-36 224.99,-36 218.99,-36 212.99,-30 212.99,-24 212.99,-24 212.99,-12 212.99,-12 212.99,-6 218.99,0 224.99,0 224.99,0 369.91,0 369.91,0 375.91,0 381.91,-6 381.91,-12 381.91,-12 381.91,-24 381.91,-24 381.91,-30 375.91,-36 369.91,-36"/>
<text text-anchor="middle" x="297.45" y="-12.6" font-family="Times,serif" font-size="18.00">queryAllBlockchains</text>
</g>
<!-- queryAllBlockchains&#45;&gt;getState -->
<g id="edge4" class="edge">
<title>queryAllBlockchains&#45;&gt;getState</title>
<path fill="none" stroke="indigo" d="M382.03,-18C403.04,-18 424.82,-18 443.34,-18"/>
<polygon fill="indigo" stroke="indigo" points="443.54,-21.5 453.54,-18 443.54,-14.5 443.54,-21.5"/>
</g>
<!-- getStateByRange -->
<g id="node7" class="node">
<title>getStateByRange</title>
<path fill="lightyellow" stroke="red" d="M128.96,-36C128.96,-36 12.01,-36 12.01,-36 6.01,-36 0.01,-30 0.01,-24 0.01,-24 0.01,-12 0.01,-12 0.01,-6 6.01,0 12.01,0 12.01,0 128.96,0 128.96,0 134.96,0 140.96,-6 140.96,-12 140.96,-12 140.96,-24 140.96,-24 140.96,-30 134.96,-36 128.96,-36"/>
<text text-anchor="middle" x="70.49" y="-12.6" font-family="Times,serif" font-size="18.00">getStateByRange</text>
</g>
<!-- queryAllBlockchains&#45;&gt;getStateByRange -->
<g id="edge5" class="edge">
<title>queryAllBlockchains&#45;&gt;getStateByRange</title>
<path fill="none" stroke="indigo" d="M212.94,-18C192.67,-18 171.08,-18 150.99,-18"/>
<polygon fill="indigo" stroke="indigo" points="150.96,-14.5 140.96,-18 150.96,-21.5 150.96,-14.5"/>
</g>
</g>
</svg>
