<?xml version="1.0" encoding="UTF-8" standalone="no"?>
<!DOCTYPE svg PUBLIC "-//W3C//DTD SVG 1.1//EN"
 "http://www.w3.org/Graphics/SVG/1.1/DTD/svg11.dtd">
<!-- Generated by graphviz version 2.44.0 (20200518.1210)
 -->
<!-- Pages: 1 -->
<svg width="2742pt" height="2523pt"
 viewBox="0.00 0.00 2741.77 2522.76" xmlns="http://www.w3.org/2000/svg" xmlns:xlink="http://www.w3.org/1999/xlink">
<g id="graph0" class="graph" transform="scale(1 1) rotate(0) translate(4 2518.76)">
<polygon fill="white" stroke="transparent" points="-4,4 -4,-2518.76 2737.77,-2518.76 2737.77,4 -4,4"/>
<!-- putState -->
<g id="node1" class="node">
<title>putState</title>
<path fill="lightyellow" stroke="red" d="M1564.91,-1279.66C1564.91,-1279.66 1513.93,-1279.66 1513.93,-1279.66 1507.93,-1279.66 1501.93,-1273.66 1501.93,-1267.66 1501.93,-1267.66 1501.93,-1255.66 1501.93,-1255.66 1501.93,-1249.66 1507.93,-1243.66 1513.93,-1243.66 1513.93,-1243.66 1564.91,-1243.66 1564.91,-1243.66 1570.91,-1243.66 1576.91,-1249.66 1576.91,-1255.66 1576.91,-1255.66 1576.91,-1267.66 1576.91,-1267.66 1576.91,-1273.66 1570.91,-1279.66 1564.91,-1279.66"/>
<text text-anchor="middle" x="1539.42" y="-1256.26" font-family="Times,serif" font-size="18.00">putState</text>
</g>
<!-- initLedger -->
<g id="node2" class="node">
<title>initLedger</title>
<path fill="aliceblue" stroke="blue" d="M2721.75,-1279.66C2721.75,-1279.66 2654.8,-1279.66 2654.8,-1279.66 2648.8,-1279.66 2642.8,-1273.66 2642.8,-1267.66 2642.8,-1267.66 2642.8,-1255.66 2642.8,-1255.66 2642.8,-1249.66 2648.8,-1243.66 2654.8,-1243.66 2654.8,-1243.66 2721.75,-1243.66 2721.75,-1243.66 2727.75,-1243.66 2733.75,-1249.66 2733.75,-1255.66 2733.75,-1255.66 2733.75,-1267.66 2733.75,-1267.66 2733.75,-1273.66 2727.75,-1279.66 2721.75,-1279.66"/>
<text text-anchor="middle" x="2688.28" y="-1256.26" font-family="Times,serif" font-size="18.00">initLedger</text>
</g>
<!-- initLedger&#45;&gt;putState -->
<g id="edge1" class="edge">
<title>initLedger&#45;&gt;putState</title>
<path fill="none" stroke="indigo" d="M2642.53,-1261.66C2458.73,-1261.66 1774.89,-1261.66 1587.29,-1261.66"/>
<polygon fill="indigo" stroke="indigo" points="1587.19,-1258.16 1577.19,-1261.66 1587.19,-1265.16 1587.19,-1258.16"/>
</g>
<!-- getState -->
<g id="node3" class="node">
<title>getState</title>
<path fill="lightyellow" stroke="red" d="M353.23,-833.35C353.23,-833.35 303.27,-833.35 303.27,-833.35 297.27,-833.35 291.27,-827.35 291.27,-821.35 291.27,-821.35 291.27,-809.35 291.27,-809.35 291.27,-803.35 297.27,-797.35 303.27,-797.35 303.27,-797.35 353.23,-797.35 353.23,-797.35 359.23,-797.35 365.23,-803.35 365.23,-809.35 365.23,-809.35 365.23,-821.35 365.23,-821.35 365.23,-827.35 359.23,-833.35 353.23,-833.35"/>
<text text-anchor="middle" x="328.25" y="-809.95" font-family="Times,serif" font-size="18.00">getState</text>
</g>
<!-- queryTopic -->
<g id="node4" class="node">
<title>queryTopic</title>
<path fill="aliceblue" stroke="blue" d="M555.4,-1039.26C555.4,-1039.26 480.46,-1039.26 480.46,-1039.26 474.46,-1039.26 468.46,-1033.26 468.46,-1027.26 468.46,-1027.26 468.46,-1015.26 468.46,-1015.26 468.46,-1009.26 474.46,-1003.26 480.46,-1003.26 480.46,-1003.26 555.4,-1003.26 555.4,-1003.26 561.4,-1003.26 567.4,-1009.26 567.4,-1015.26 567.4,-1015.26 567.4,-1027.26 567.4,-1027.26 567.4,-1033.26 561.4,-1039.26 555.4,-1039.26"/>
<text text-anchor="middle" x="517.93" y="-1015.86" font-family="Times,serif" font-size="18.00">queryTopic</text>
</g>
<!-- queryTopic&#45;&gt;getState -->
<g id="edge2" class="edge">
<title>queryTopic&#45;&gt;getState</title>
<path fill="none" stroke="indigo" d="M501.1,-1002.99C467.21,-966.2 390.7,-883.14 351.84,-840.96"/>
<polygon fill="indigo" stroke="indigo" points="354.39,-838.57 345.04,-833.58 349.25,-843.31 354.39,-838.57"/>
</g>
<!-- createBrokerTopic -->
<g id="node5" class="node">
<title>createBrokerTopic</title>
<path fill="moccasin" stroke="red" d="M1626.74,-2514.76C1626.74,-2514.76 1499.89,-2514.76 1499.89,-2514.76 1493.89,-2514.76 1487.89,-2508.76 1487.89,-2502.76 1487.89,-2502.76 1487.89,-2490.76 1487.89,-2490.76 1487.89,-2484.76 1493.89,-2478.76 1499.89,-2478.76 1499.89,-2478.76 1626.74,-2478.76 1626.74,-2478.76 1632.74,-2478.76 1638.74,-2484.76 1638.74,-2490.76 1638.74,-2490.76 1638.74,-2502.76 1638.74,-2502.76 1638.74,-2508.76 1632.74,-2514.76 1626.74,-2514.76"/>
<text text-anchor="middle" x="1563.32" y="-2491.36" font-family="Times,serif" font-size="18.00">createBrokerTopic</text>
</g>
<!-- createTopic -->
<g id="node6" class="node">
<title>createTopic</title>
<path fill="aliceblue" stroke="blue" d="M1597.93,-2316.86C1597.93,-2316.86 1521.04,-2316.86 1521.04,-2316.86 1515.04,-2316.86 1509.04,-2310.86 1509.04,-2304.86 1509.04,-2304.86 1509.04,-2292.86 1509.04,-2292.86 1509.04,-2286.86 1515.04,-2280.86 1521.04,-2280.86 1521.04,-2280.86 1597.93,-2280.86 1597.93,-2280.86 1603.93,-2280.86 1609.93,-2286.86 1609.93,-2292.86 1609.93,-2292.86 1609.93,-2304.86 1609.93,-2304.86 1609.93,-2310.86 1603.93,-2316.86 1597.93,-2316.86"/>
<text text-anchor="middle" x="1559.49" y="-2293.46" font-family="Times,serif" font-size="18.00">createTopic</text>
</g>
<!-- createBrokerTopic&#45;&gt;createTopic -->
<g id="edge10" class="edge">
<title>createBrokerTopic&#45;&gt;createTopic</title>
<path fill="none" stroke="indigo" d="M1567.08,-2478.42C1569.63,-2443.75 1568.44,-2368.39 1564.94,-2327.18"/>
<polygon fill="indigo" stroke="indigo" points="1568.4,-2326.62 1563.95,-2317 1561.44,-2327.3 1568.4,-2326.62"/>
</g>
<!-- createTopic&#45;&gt;putState -->
<g id="edge4" class="edge">
<title>createTopic&#45;&gt;putState</title>
<path fill="none" stroke="indigo" d="M1559.14,-2280.86C1556.76,-2157.91 1542.91,-1442.26 1539.97,-1290.1"/>
<polygon fill="indigo" stroke="indigo" points="1543.46,-1289.68 1539.77,-1279.75 1536.46,-1289.82 1543.46,-1289.68"/>
</g>
<!-- createTopic&#45;&gt;createBrokerTopic -->
<g id="edge3" class="edge">
<title>createTopic&#45;&gt;createBrokerTopic</title>
<path fill="none" stroke="indigo" d="M1555.73,-2317.21C1553.17,-2351.88 1554.36,-2427.23 1557.86,-2468.44"/>
<polygon fill="indigo" stroke="indigo" points="1554.4,-2469.01 1558.86,-2478.62 1561.37,-2468.33 1554.4,-2469.01"/>
</g>
<!-- queryAllTopics -->
<g id="node7" class="node">
<title>queryAllTopics</title>
<path fill="aliceblue" stroke="blue" d="M263.18,-705.76C263.18,-705.76 158.24,-705.76 158.24,-705.76 152.24,-705.76 146.24,-699.76 146.24,-693.76 146.24,-693.76 146.24,-681.76 146.24,-681.76 146.24,-675.76 152.24,-669.76 158.24,-669.76 158.24,-669.76 263.18,-669.76 263.18,-669.76 269.18,-669.76 275.18,-675.76 275.18,-681.76 275.18,-681.76 275.18,-693.76 275.18,-693.76 275.18,-699.76 269.18,-705.76 263.18,-705.76"/>
<text text-anchor="middle" x="210.71" y="-682.36" font-family="Times,serif" font-size="18.00">queryAllTopics</text>
</g>
<!-- queryAllTopics&#45;&gt;getState -->
<g id="edge5" class="edge">
<title>queryAllTopics&#45;&gt;getState</title>
<path fill="none" stroke="indigo" d="M227.3,-705.77C247.4,-727.59 281.41,-764.51 304.34,-789.4"/>
<polygon fill="indigo" stroke="indigo" points="302.01,-792.03 311.36,-797.02 307.16,-787.29 302.01,-792.03"/>
</g>
<!-- getStateByRange -->
<g id="node8" class="node">
<title>getStateByRange</title>
<path fill="lightyellow" stroke="red" d="M128.96,-553.53C128.96,-553.53 12.01,-553.53 12.01,-553.53 6.01,-553.53 0.01,-547.53 0.01,-541.53 0.01,-541.53 0.01,-529.53 0.01,-529.53 0.01,-523.53 6.01,-517.53 12.01,-517.53 12.01,-517.53 128.96,-517.53 128.96,-517.53 134.96,-517.53 140.96,-523.53 140.96,-529.53 140.96,-529.53 140.96,-541.53 140.96,-541.53 140.96,-547.53 134.96,-553.53 128.96,-553.53"/>
<text text-anchor="middle" x="70.49" y="-530.13" font-family="Times,serif" font-size="18.00">getStateByRange</text>
</g>
<!-- queryAllTopics&#45;&gt;getStateByRange -->
<g id="edge6" class="edge">
<title>queryAllTopics&#45;&gt;getStateByRange</title>
<path fill="none" stroke="indigo" d="M194.08,-669.7C169.3,-642.8 122.6,-592.1 94.24,-561.31"/>
<polygon fill="indigo" stroke="indigo" points="96.45,-558.55 87.1,-553.57 91.3,-563.29 96.45,-558.55"/>
</g>
<!-- updateBrokerTopic -->
<g id="node9" class="node">
<title>updateBrokerTopic</title>
<path fill="moccasin" stroke="red" d="M1259.78,-36C1259.78,-36 1127.88,-36 1127.88,-36 1121.88,-36 1115.88,-30 1115.88,-24 1115.88,-24 1115.88,-12 1115.88,-12 1115.88,-6 1121.88,0 1127.88,0 1127.88,0 1259.78,0 1259.78,0 1265.78,0 1271.78,-6 1271.78,-12 1271.78,-12 1271.78,-24 1271.78,-24 1271.78,-30 1265.78,-36 1259.78,-36"/>
<text text-anchor="middle" x="1193.83" y="-12.6" font-family="Times,serif" font-size="18.00">updateBrokerTopic</text>
</g>
<!-- publishToTopic -->
<g id="node10" class="node">
<title>publishToTopic</title>
<path fill="aliceblue" stroke="blue" d="M814.53,-434.68C814.53,-434.68 707.55,-434.68 707.55,-434.68 701.55,-434.68 695.55,-428.68 695.55,-422.68 695.55,-422.68 695.55,-410.68 695.55,-410.68 695.55,-404.68 701.55,-398.68 707.55,-398.68 707.55,-398.68 814.53,-398.68 814.53,-398.68 820.53,-398.68 826.53,-404.68 826.53,-410.68 826.53,-410.68 826.53,-422.68 826.53,-422.68 826.53,-428.68 820.53,-434.68 814.53,-434.68"/>
<text text-anchor="middle" x="761.04" y="-411.28" font-family="Times,serif" font-size="18.00">publishToTopic</text>
</g>
<!-- updateBrokerTopic&#45;&gt;publishToTopic -->
<g id="edge11" class="edge">
<title>updateBrokerTopic&#45;&gt;publishToTopic</title>
<path fill="none" stroke="indigo" d="M1169.3,-36.24C1092.5,-100.63 857.87,-316.7 783.7,-391.23"/>
<polygon fill="indigo" stroke="indigo" points="781.16,-388.81 776.64,-398.39 786.15,-393.73 781.16,-388.81"/>
</g>
<!-- publishToTopic&#45;&gt;putState -->
<g id="edge8" class="edge">
<title>publishToTopic&#45;&gt;putState</title>
<path fill="none" stroke="indigo" d="M777.66,-434.71C877.57,-543.18 1398.13,-1108.28 1515.77,-1235.99"/>
<polygon fill="indigo" stroke="indigo" points="1513.28,-1238.45 1522.63,-1243.43 1518.42,-1233.7 1513.28,-1238.45"/>
</g>
<!-- publishToTopic&#45;&gt;getState -->
<g id="edge9" class="edge">
<title>publishToTopic&#45;&gt;getState</title>
<path fill="none" stroke="indigo" d="M741.32,-434.84C671.61,-499.05 436.7,-715.44 355.86,-789.92"/>
<polygon fill="indigo" stroke="indigo" points="353.07,-787.73 348.09,-797.08 357.81,-792.88 353.07,-787.73"/>
</g>
<!-- publishToTopic&#45;&gt;updateBrokerTopic -->
<g id="edge7" class="edge">
<title>publishToTopic&#45;&gt;updateBrokerTopic</title>
<path fill="none" stroke="indigo" d="M785.57,-398.44C862.36,-334.05 1097,-117.98 1171.17,-43.45"/>
<polygon fill="indigo" stroke="indigo" points="1173.7,-45.86 1178.23,-36.28 1168.72,-40.95 1173.7,-45.86"/>
</g>
</g>
</svg>
