<?xml version="1.0" encoding="UTF-8" standalone="no"?>
<!DOCTYPE svg PUBLIC "-//W3C//DTD SVG 1.1//EN"
 "http://www.w3.org/Graphics/SVG/1.1/DTD/svg11.dtd">
<!-- Generated by graphviz version 2.44.0 (20200518.1210)
 -->
<!-- Pages: 1 -->
<svg width="714pt" height="500pt"
 viewBox="0.00 0.00 714.02 500.09" xmlns="http://www.w3.org/2000/svg" xmlns:xlink="http://www.w3.org/1999/xlink">
<g id="graph0" class="graph" transform="scale(1 1) rotate(0) translate(4 496.09)">
<polygon fill="white" stroke="transparent" points="-4,4 -4,-496.09 710.02,-496.09 710.02,4 -4,4"/>
<!-- putState -->
<g id="node1" class="node">
<title>putState</title>
<path fill="lightyellow" stroke="red" d="M189.27,-144C189.27,-144 138.28,-144 138.28,-144 132.28,-144 126.28,-138 126.28,-132 126.28,-132 126.28,-120 126.28,-120 126.28,-114 132.28,-108 138.28,-108 138.28,-108 189.27,-108 189.27,-108 195.27,-108 201.27,-114 201.27,-120 201.27,-120 201.27,-132 201.27,-132 201.27,-138 195.27,-144 189.27,-144"/>
<text text-anchor="middle" x="163.77" y="-120.6" font-family="Times,serif" font-size="18.00">putState</text>
</g>
<!-- Init -->
<g id="node2" class="node">
<title>Init</title>
<path fill="aliceblue" stroke="blue" d="M187.77,-36C187.77,-36 139.77,-36 139.77,-36 133.77,-36 127.77,-30 127.77,-24 127.77,-24 127.77,-12 127.77,-12 127.77,-6 133.77,0 139.77,0 139.77,0 187.77,0 187.77,0 193.77,0 199.77,-6 199.77,-12 199.77,-12 199.77,-24 199.77,-24 199.77,-30 193.77,-36 187.77,-36"/>
<text text-anchor="middle" x="163.77" y="-12.6" font-family="Times,serif" font-size="18.00">Init</text>
</g>
<!-- Init&#45;&gt;putState -->
<g id="edge1" class="edge">
<title>Init&#45;&gt;putState</title>
<path fill="none" stroke="indigo" d="M163.77,-36.32C163.77,-53.18 163.77,-78.43 163.77,-97.85"/>
<polygon fill="indigo" stroke="indigo" points="160.27,-97.95 163.77,-107.95 167.27,-97.95 160.27,-97.95"/>
</g>
<!-- getState -->
<g id="node3" class="node">
<title>getState</title>
<path fill="lightyellow" stroke="red" d="M188.76,-370.6C188.76,-370.6 138.79,-370.6 138.79,-370.6 132.79,-370.6 126.79,-364.6 126.79,-358.6 126.79,-358.6 126.79,-346.6 126.79,-346.6 126.79,-340.6 132.79,-334.6 138.79,-334.6 138.79,-334.6 188.76,-334.6 188.76,-334.6 194.76,-334.6 200.76,-340.6 200.76,-346.6 200.76,-346.6 200.76,-358.6 200.76,-358.6 200.76,-364.6 194.76,-370.6 188.76,-370.6"/>
<text text-anchor="middle" x="163.77" y="-347.2" font-family="Times,serif" font-size="18.00">getState</text>
</g>
<!-- queryTopic -->
<g id="node4" class="node">
<title>queryTopic</title>
<path fill="aliceblue" stroke="blue" d="M201.24,-492.09C201.24,-492.09 126.3,-492.09 126.3,-492.09 120.3,-492.09 114.3,-486.09 114.3,-480.09 114.3,-480.09 114.3,-468.09 114.3,-468.09 114.3,-462.09 120.3,-456.09 126.3,-456.09 126.3,-456.09 201.24,-456.09 201.24,-456.09 207.24,-456.09 213.24,-462.09 213.24,-468.09 213.24,-468.09 213.24,-480.09 213.24,-480.09 213.24,-486.09 207.24,-492.09 201.24,-492.09"/>
<text text-anchor="middle" x="163.77" y="-468.69" font-family="Times,serif" font-size="18.00">queryTopic</text>
</g>
<!-- queryTopic&#45;&gt;getState -->
<g id="edge2" class="edge">
<title>queryTopic&#45;&gt;getState</title>
<path fill="none" stroke="indigo" d="M163.77,-455.9C163.77,-436.13 163.77,-404.27 163.77,-381.15"/>
<polygon fill="indigo" stroke="indigo" points="167.27,-380.91 163.77,-370.91 160.27,-380.91 167.27,-380.91"/>
</g>
<!-- createTopic -->
<g id="node5" class="node">
<title>createTopic</title>
<path fill="aliceblue" stroke="blue" d="M88.92,-257.3C88.92,-257.3 12.03,-257.3 12.03,-257.3 6.03,-257.3 0.03,-251.3 0.03,-245.3 0.03,-245.3 0.03,-233.3 0.03,-233.3 0.03,-227.3 6.03,-221.3 12.03,-221.3 12.03,-221.3 88.92,-221.3 88.92,-221.3 94.92,-221.3 100.92,-227.3 100.92,-233.3 100.92,-233.3 100.92,-245.3 100.92,-245.3 100.92,-251.3 94.92,-257.3 88.92,-257.3"/>
<text text-anchor="middle" x="50.47" y="-233.9" font-family="Times,serif" font-size="18.00">createTopic</text>
</g>
<!-- createTopic&#45;&gt;putState -->
<g id="edge3" class="edge">
<title>createTopic&#45;&gt;putState</title>
<path fill="none" stroke="indigo" d="M68.68,-221.1C87.59,-202.18 117.33,-172.45 138.51,-151.26"/>
<polygon fill="indigo" stroke="indigo" points="141.02,-153.7 145.61,-144.16 136.07,-148.75 141.02,-153.7"/>
</g>
<!-- createTopic&#45;&gt;getState -->
<g id="edge4" class="edge">
<title>createTopic&#45;&gt;getState</title>
<path fill="none" stroke="indigo" d="M68.68,-257.5C87.59,-276.42 117.33,-306.15 138.51,-327.34"/>
<polygon fill="indigo" stroke="indigo" points="136.07,-329.85 145.61,-334.44 141.02,-324.9 136.07,-329.85"/>
</g>
<!-- updateTopic -->
<g id="node6" class="node">
<title>updateTopic</title>
<path fill="aliceblue" stroke="blue" d="M318.04,-257.3C318.04,-257.3 236.1,-257.3 236.1,-257.3 230.1,-257.3 224.1,-251.3 224.1,-245.3 224.1,-245.3 224.1,-233.3 224.1,-233.3 224.1,-227.3 230.1,-221.3 236.1,-221.3 236.1,-221.3 318.04,-221.3 318.04,-221.3 324.04,-221.3 330.04,-227.3 330.04,-233.3 330.04,-233.3 330.04,-245.3 330.04,-245.3 330.04,-251.3 324.04,-257.3 318.04,-257.3"/>
<text text-anchor="middle" x="277.07" y="-233.9" font-family="Times,serif" font-size="18.00">updateTopic</text>
</g>
<!-- updateTopic&#45;&gt;putState -->
<g id="edge6" class="edge">
<title>updateTopic&#45;&gt;putState</title>
<path fill="none" stroke="indigo" d="M258.87,-221.1C239.96,-202.18 210.22,-172.45 189.03,-151.26"/>
<polygon fill="indigo" stroke="indigo" points="191.48,-148.75 181.93,-144.16 186.53,-153.7 191.48,-148.75"/>
</g>
<!-- updateTopic&#45;&gt;getState -->
<g id="edge7" class="edge">
<title>updateTopic&#45;&gt;getState</title>
<path fill="none" stroke="indigo" d="M258.87,-257.5C239.96,-276.42 210.22,-306.15 189.03,-327.34"/>
<polygon fill="indigo" stroke="indigo" points="186.53,-324.9 181.93,-334.44 191.48,-329.85 186.53,-324.9"/>
</g>
<!-- Invoke -->
<g id="node7" class="node">
<title>Invoke</title>
<path fill="aliceblue" stroke="blue" d="M409.07,-257.3C409.07,-257.3 361.07,-257.3 361.07,-257.3 355.07,-257.3 349.07,-251.3 349.07,-245.3 349.07,-245.3 349.07,-233.3 349.07,-233.3 349.07,-227.3 355.07,-221.3 361.07,-221.3 361.07,-221.3 409.07,-221.3 409.07,-221.3 415.07,-221.3 421.07,-227.3 421.07,-233.3 421.07,-233.3 421.07,-245.3 421.07,-245.3 421.07,-251.3 415.07,-257.3 409.07,-257.3"/>
<text text-anchor="middle" x="385.07" y="-233.9" font-family="Times,serif" font-size="18.00">Invoke</text>
</g>
<!-- updateTopic&#45;&gt;Invoke -->
<g id="edge5" class="edge">
<title>updateTopic&#45;&gt;Invoke</title>
<path fill="none" stroke="indigo" d="M330.12,-239.3C333.02,-239.3 335.93,-239.3 338.8,-239.3"/>
<polygon fill="indigo" stroke="indigo" points="339.02,-242.8 349.02,-239.3 339.02,-235.8 339.02,-242.8"/>
</g>
<!-- getFunctionAndParameters -->
<g id="node8" class="node">
<title>getFunctionAndParameters</title>
<path fill="lightyellow" stroke="red" d="M693.99,-257.3C693.99,-257.3 505.1,-257.3 505.1,-257.3 499.1,-257.3 493.1,-251.3 493.1,-245.3 493.1,-245.3 493.1,-233.3 493.1,-233.3 493.1,-227.3 499.1,-221.3 505.1,-221.3 505.1,-221.3 693.99,-221.3 693.99,-221.3 699.99,-221.3 705.99,-227.3 705.99,-233.3 705.99,-233.3 705.99,-245.3 705.99,-245.3 705.99,-251.3 699.99,-257.3 693.99,-257.3"/>
<text text-anchor="middle" x="599.54" y="-233.9" font-family="Times,serif" font-size="18.00">getFunctionAndParameters</text>
</g>
<!-- Invoke&#45;&gt;getFunctionAndParameters -->
<g id="edge8" class="edge">
<title>Invoke&#45;&gt;getFunctionAndParameters</title>
<path fill="none" stroke="indigo" d="M421.45,-239.3C438.66,-239.3 460.27,-239.3 482.44,-239.3"/>
<polygon fill="indigo" stroke="indigo" points="482.66,-242.8 492.66,-239.3 482.66,-235.8 482.66,-242.8"/>
</g>
</g>
</svg>
